<svg width="1084" height="295" viewBox="0 0 1084 295" fill="none" xmlns="http://www.w3.org/2000/svg">
<path fill-rule="evenodd" clip-rule="evenodd" d="M44.5359 271.096C27.0607 251.501 13.064 219.296 0.299927 176.627L66.3658 156.061C77.0696 191.843 86.3594 210.981 92.8642 220.177C96.9024 215.735 102.614 208.051 109.815 195.737C120.149 178.065 130.619 156.19 141.857 132.533C142.239 131.729 142.622 130.921 143.007 130.112C153.572 107.866 164.848 84.1222 176.33 64.0998C187.404 44.7895 202.118 22.4741 221.227 10.3024C231.927 3.48673 246.129 -1.50516 262.343 1.37188C278.142 4.17519 290.335 13.4872 299.331 23.8309C316.266 43.303 329.581 75.3293 341.623 117.557L275.299 137.24C265.893 104.253 257.617 85.6738 251.616 76.0645C247.711 80.7557 242.449 88.2591 235.954 99.5849C225.862 117.184 215.61 138.767 204.524 162.104L204.018 163.17C193.081 186.193 181.292 210.957 169.14 231.739C157.821 251.096 142.696 273.404 122.932 285.342C111.866 292.026 97.6005 296.518 81.5831 293.5C66.0161 290.568 53.7861 281.468 44.5359 271.096Z" fill="#090F20"/>
<path d="M493.474 159.74C468.747 159.74 449.86 155.189 436.814 146.087C423.92 136.985 417.473 123.788 417.473 106.494V104.218H456.838V106.494C456.838 112.714 460.1 117.492 466.623 120.829C473.146 124.015 482.627 125.608 495.067 125.608C517.215 125.608 528.289 121.436 528.289 113.093V111.5C528.289 108.466 526.772 106.115 523.738 104.446C520.704 102.626 515.774 101.184 508.947 100.122L468.671 93.9787C452.287 91.3998 440 86.7729 431.808 80.0982C423.768 73.4234 419.748 64.3973 419.748 53.0199V50.7444C419.748 36.1813 425.968 24.8797 438.407 16.8397C450.998 8.6479 468.671 4.55202 491.426 4.55202C515.394 4.55202 533.75 8.95129 546.493 17.7498C559.387 26.3967 565.834 38.9119 565.834 55.2954V57.1158H526.696V55.2954C526.696 44.2213 514.939 38.6843 491.426 38.6843C481.11 38.6843 473.298 39.6704 467.988 41.6425C462.679 43.4628 460.024 46.1934 460.024 49.8342V51.4271C460.024 54.0059 461.389 56.0539 464.12 57.5709C467.002 58.9362 471.781 60.1497 478.456 61.2116L518.732 67.3555C535.874 69.9343 548.541 74.7129 556.732 81.691C565.076 88.5175 569.248 97.847 569.248 109.68V111.955C569.248 127.125 562.573 138.882 549.223 147.225C536.025 155.568 517.442 159.74 493.474 159.74Z" fill="#090F20"/>
<path d="M728.414 7.51015V42.3251H633.071V64.8524H723.863V99.2123H633.071V121.967H728.414V156.782H592.795V7.51015H728.414Z" fill="#090F20"/>
<path d="M837.332 159.74C818.976 159.74 802.82 156.63 788.864 150.411C775.059 144.039 764.365 135.089 756.78 123.56C749.346 112.031 745.63 98.5296 745.63 83.0563V81.4635C745.63 65.9902 749.346 52.4889 756.78 40.9598C764.365 29.279 775.059 20.3287 788.864 14.1091C802.82 7.7377 818.976 4.55202 837.332 4.55202C854.474 4.55202 869.871 7.35845 883.524 12.9713C897.177 18.5842 907.796 26.3208 915.381 36.1813C923.118 46.0417 926.986 57.1916 926.986 69.6309V71.4513H885.8V69.6309C885.8 61.2875 881.325 54.6127 872.374 49.6067C863.576 44.6006 851.895 42.0976 837.332 42.0976C803.503 42.0976 786.589 55.0678 786.589 81.0084V83.739C786.589 96.6334 790.76 106.266 799.104 112.638C807.447 119.009 820.19 122.195 837.332 122.195C852.35 122.195 864.183 119.768 872.829 114.913C881.476 110.059 885.8 103.384 885.8 94.8888V93.296H926.986V94.8888C926.986 107.328 923.118 118.478 915.381 128.339C907.796 138.199 897.177 145.936 883.524 151.548C869.871 157.01 854.474 159.74 837.332 159.74Z" fill="#090F20"/>
<path d="M987.292 7.51015V120.829H1084V156.782H947.016V7.51015H987.292Z" fill="#090F20"/>
<path d="M498.442 199.391V257.795C498.442 268.768 495.079 276.953 488.354 282.351C481.629 287.749 471.496 290.448 457.957 290.448C445.391 290.359 435.569 288.014 428.49 283.413C421.499 278.9 418.003 272.573 418.003 264.432V263.635H441.1V264.432C441.1 266.378 442.693 268.015 445.878 269.343C449.064 270.67 453.046 271.334 457.825 271.334C463.753 271.334 468.222 270.272 471.231 268.148C474.328 266.024 475.877 262.883 475.877 258.724V256.202C470.125 259.83 463.178 261.644 455.037 261.644C442.914 261.644 433.622 258.989 427.162 253.68C420.702 248.37 417.473 240.76 417.473 230.849V229.787C417.473 219.699 420.791 211.824 427.428 206.16C434.065 200.497 443.268 197.665 455.037 197.665C463.886 197.665 471.187 199.789 476.939 204.036L477.47 199.391H498.442ZM458.488 242.928C462.205 242.928 465.567 242.397 468.576 241.335C471.673 240.274 474.107 238.858 475.877 237.088V223.549C474.018 221.602 471.541 220.098 468.443 219.036C465.435 217.885 462.116 217.31 458.488 217.31C446.719 217.31 440.834 221.469 440.834 229.787V230.849C440.834 235.008 442.25 238.061 445.082 240.008C448.002 241.955 452.471 242.928 458.488 242.928Z" fill="#090F20"/>
<path d="M565.605 199.391V219.168H550.34C543.172 219.168 538.04 220.761 534.942 223.947V266.157H512.377V199.391H533.482L534.013 204.966C539.146 201.249 545.606 199.391 553.393 199.391H565.605Z" fill="#090F20"/>
<path d="M607.961 267.883C599.466 267.883 592.121 266.511 585.927 263.768C579.732 260.936 574.954 256.954 571.591 251.822C568.317 246.689 566.68 240.627 566.68 233.637V232.177C566.68 225.097 568.317 218.991 571.591 213.859C574.865 208.638 579.6 204.656 585.794 201.913C591.988 199.081 599.378 197.665 607.961 197.665C620.792 197.665 630.792 200.762 637.96 206.957C645.216 213.062 648.844 221.469 648.844 232.177V233.637C648.844 244.256 645.216 252.618 637.96 258.724C630.792 264.83 620.792 267.883 607.961 267.883ZM607.828 247.309C613.492 247.309 617.828 246.158 620.837 243.857C623.934 241.468 625.482 238.017 625.482 233.504V232.442C625.482 227.84 623.934 224.345 620.837 221.956C617.828 219.478 613.492 218.239 607.828 218.239C602.076 218.239 597.652 219.434 594.555 221.823C591.546 224.212 590.042 227.752 590.042 232.442V233.504C590.042 238.017 591.59 241.468 594.687 243.857C597.785 246.158 602.165 247.309 607.828 247.309Z" fill="#090F20"/>
<path d="M735.995 199.391V266.157H715.023L714.492 260.582C708.828 265.272 701.749 267.706 693.254 267.883C681.838 267.883 673.166 264.874 667.237 258.857C661.397 252.839 658.477 243.769 658.477 231.646V199.391H681.042V231.646C681.042 236.69 682.414 240.539 685.157 243.194C687.9 245.848 691.838 247.176 696.97 247.176C700.599 247.176 703.829 246.379 706.66 244.787C709.58 243.194 711.837 240.937 713.43 238.017V199.391H735.995Z" fill="#090F20"/>
<path d="M794.391 197.665C802.001 197.665 808.638 199.081 814.301 201.913C820.053 204.744 824.434 208.771 827.442 213.992C830.54 219.213 832.088 225.23 832.088 232.044V233.238C832.088 240.141 830.54 246.202 827.442 251.423C824.345 256.644 819.965 260.715 814.301 263.635C808.638 266.467 802.001 267.883 794.391 267.883C786.338 267.883 779.436 265.892 773.684 261.91V288.722H751.119V199.391H772.091L772.622 204.7C778.728 200.01 785.984 197.665 794.391 197.665ZM808.727 232.044C808.727 227.708 807.178 224.345 804.081 221.956C800.984 219.567 796.603 218.372 790.94 218.372C787.312 218.372 783.949 218.903 780.852 219.965C777.843 220.938 775.454 222.31 773.684 224.08V241.203C775.454 243.061 777.843 244.521 780.852 245.583C783.949 246.645 787.312 247.176 790.94 247.176C796.515 247.176 800.851 245.981 803.948 243.592C807.134 241.114 808.727 237.663 808.727 233.238V232.044Z" fill="#090F20"/>
</svg>
