<svg width="270" height="27" viewBox="0 0 270 27" fill="none" xmlns="http://www.w3.org/2000/svg">
<path fill-rule="evenodd" clip-rule="evenodd" d="M4.50836 24.5183C9.95943 22.4284 14.9354 20.4952 19.4821 18.7289L19.4822 18.7289C30.4433 14.4705 38.9091 11.1816 45.5207 9.00257C50.19 7.46368 53.7461 6.54443 56.4763 6.21329C58.4611 5.97257 59.8151 6.06815 60.7616 6.33199C59.7969 7.35652 58.2026 8.59807 56.2169 10.1378L56.168 10.1757C54.1336 11.7532 51.6471 13.6812 50.1465 15.6128C49.3915 16.5846 48.56 17.956 48.4914 19.5999C48.412 21.4998 49.3603 23.0381 50.7526 24.1014C52.433 25.3846 54.6524 25.5421 56.4679 25.4547C58.4266 25.3604 60.6987 24.9297 63.0936 24.33C67.892 23.1284 73.7427 21.0998 79.5853 19.0587L80.2927 18.8115C85.9697 16.8276 91.6407 14.8458 96.6166 13.4709C99.2027 12.7563 101.531 12.226 103.519 11.9438C105.55 11.6555 107.015 11.6584 107.97 11.8572C110.066 12.2938 111.444 13.327 112.68 14.7628C113.328 15.5158 113.923 16.3631 114.573 17.3293C114.68 17.4882 114.79 17.6521 114.902 17.8196C115.441 18.6247 116.037 19.5149 116.67 20.3474C118.246 22.4203 120.353 24.5493 123.681 25.5288C126.932 26.4854 130.873 26.2065 135.882 24.585C135.946 24.5651 136.011 24.5429 136.075 24.5183C141.526 22.4284 146.502 20.4953 151.048 18.7289C162.01 14.4706 170.475 11.1816 177.087 9.00257C181.756 7.46368 185.312 6.54443 188.043 6.21329C190.027 5.97257 191.382 6.06815 192.328 6.33199C191.363 7.35652 189.769 8.59807 187.783 10.1378L187.734 10.1757C185.7 11.7532 183.214 13.6812 181.713 15.6128C180.958 16.5846 180.126 17.956 180.058 19.5999C179.978 21.4998 180.927 23.0381 182.319 24.1014C183.999 25.3846 186.219 25.5421 188.034 25.4547C189.993 25.3604 192.265 24.9297 194.66 24.33C199.458 23.1284 205.309 21.0998 211.152 19.0587L211.859 18.8116L211.859 18.8115C217.536 16.8276 223.207 14.8458 228.183 13.4709C230.769 12.7563 233.097 12.226 235.085 11.9438C237.116 11.6555 238.582 11.6584 239.536 11.8572C240.672 12.0938 241.272 12.4127 241.601 12.6606C241.908 12.8915 242.117 13.1635 242.306 13.5634C242.526 14.0289 242.682 14.5771 242.915 15.4468L242.939 15.5372C243.146 16.3129 243.424 17.3519 243.889 18.375C244.987 20.7929 246.973 22.8131 250.719 23.9501C254.223 25.0136 259.3 25.3217 266.811 24.7071C268.462 24.572 269.692 23.1238 269.556 21.4725C269.421 19.8211 267.973 18.592 266.322 18.7271C259.038 19.3231 254.869 18.9394 252.462 18.2088C250.297 17.5516 249.707 16.6752 249.352 15.8939C249.108 15.3576 248.943 14.7629 248.711 13.8962L248.691 13.8221C248.484 13.0476 248.206 12.0041 247.731 10.9997C247.21 9.89725 246.437 8.79121 245.212 7.86835C244.009 6.9624 242.529 6.35186 240.759 5.98321C238.807 5.57669 236.541 5.67689 234.242 6.00333C231.9 6.33579 229.299 6.93765 226.585 7.68759C221.41 9.11748 215.567 11.1595 209.961 13.119L209.173 13.3944C203.259 15.4604 197.684 17.3876 193.202 18.5097C190.958 19.0719 189.126 19.3951 187.746 19.4616C187.081 19.4936 186.638 19.4593 186.358 19.4166C186.387 19.3779 186.417 19.337 186.451 19.2938C187.399 18.0741 189.21 16.6238 191.46 14.8793L191.82 14.6005L191.82 14.6004C193.759 13.0999 196.046 11.3289 197.404 9.63353C198.102 8.76171 199.018 7.36121 198.964 5.63487C198.899 3.57914 197.554 2.22572 196.161 1.45381C193.648 0.062251 190.63 -0.144503 187.32 0.256939C183.991 0.660759 179.984 1.73021 175.209 3.30408C168.44 5.53505 159.747 8.91236 148.692 13.2071L148.69 13.2076C144.196 14.9538 139.31 16.8517 134.005 18.8859C129.62 20.3018 127.016 20.2558 125.375 19.7728C123.793 19.3073 122.656 18.307 121.445 16.715C120.932 16.0409 120.459 15.3338 119.924 14.535C119.803 14.3542 119.679 14.1688 119.55 13.9779C118.883 12.9876 118.123 11.8882 117.227 10.8479C115.375 8.69695 112.909 6.75712 109.193 5.98321C107.241 5.57669 104.975 5.67689 102.676 6.00333C100.334 6.33579 97.7328 6.93765 95.0186 7.68759C89.8437 9.11747 84.001 11.1595 78.3947 13.1189L78.3946 13.119L77.6065 13.3944C71.6927 15.4604 66.1173 17.3876 61.6361 18.5097C59.3911 19.0719 57.5601 19.3951 56.1793 19.4616C55.5144 19.4936 55.0718 19.4593 54.7919 19.4166C54.8203 19.3779 54.8511 19.337 54.8846 19.2938C55.8322 18.0741 57.6439 16.6238 59.8936 14.8793L60.2536 14.6005L60.2536 14.6005C62.1921 13.0999 64.48 11.3289 65.8376 9.63353C66.5357 8.76171 67.452 7.36121 67.3974 5.63487C67.3323 3.57914 65.9881 2.22572 64.5944 1.45381C62.082 0.0622512 59.0639 -0.144503 55.7539 0.256939C52.4244 0.660759 48.4181 1.73021 43.6426 3.30408C36.8734 5.53505 28.1801 8.91236 17.1252 13.2071C12.6079 14.9621 7.69627 16.8702 2.36045 18.9159C0.813396 19.5091 0.0400916 21.244 0.633222 22.7911C1.22635 24.3381 2.96131 25.1114 4.50836 24.5183Z" fill="#090F20"/>
</svg>
