<svg width="14" height="22" viewBox="0 0 14 22" fill="none" xmlns="http://www.w3.org/2000/svg">
<path d="M10.525 8.90042C11.2 8.75042 11.8 8.37542 12.325 7.85042C13.3 6.87542 13.75 5.45042 13.375 4.25042L13.225 3.87542L12.85 3.72542C11.8 3.42542 10.6 3.65042 9.69997 4.32542C9.69997 2.75042 8.72497 1.25042 7.29997 0.575415L6.99997 0.425415L6.69997 0.575415C5.27497 1.25042 4.29997 2.67542 4.29997 4.32542C3.32497 3.57542 2.19997 3.35042 1.14997 3.72542L0.774974 3.80042L0.624974 4.17542C0.249974 5.37542 0.624974 6.80042 1.67497 7.77542C2.19997 8.30042 2.87497 8.67542 3.47497 8.82542C2.27497 10.0254 1.37497 11.9754 1.07497 14.3004C0.924974 15.5754 0.849974 17.9754 2.34997 19.7004C3.39997 20.9004 4.97497 21.5004 7.07497 21.5004C9.17497 21.5004 10.75 20.9004 11.8 19.7004C13.3 17.9754 13.225 15.5754 13.075 14.3004C12.625 11.9754 11.725 10.1004 10.525 8.90042Z" fill="#E46EC3"/>
</svg>
