<svg width="200" height="198" viewBox="0 0 200 198" fill="none" xmlns="http://www.w3.org/2000/svg" xmlns:xlink="http://www.w3.org/1999/xlink">

<path d="M176 30.8823L176.63 42.9244C176.999 49.9742 182.559 55.6465 189.6 56.1564L198 56.7647L189.6 57.373C182.559 57.8828 176.999 63.5551 176.63 70.6049L176 82.647L175.37 70.6049C175.001 63.5551 169.441 57.8828 162.4 57.373L154 56.7647L162.4 56.1564C169.441 55.6465 175.001 49.9742 175.37 42.9244L176 30.8823Z" stroke="#6A67DB" stroke-width="4" stroke-linejoin="round"/>

<path d="M142 2.64697L142.166 5.82302C142.535 12.8728 148.095 18.5451 155.136 19.055L156 19.1176L155.136 19.1801C148.095 19.69 142.535 25.3623 142.166 32.4121L142 35.5882L141.834 32.4121C141.465 25.3623 135.905 19.69 128.864 19.1801L128 19.1176L128.864 19.055C135.905 18.5451 141.465 12.8728 141.834 5.82302L142 2.64697Z" stroke="#6A67DB" stroke-width="4" stroke-linejoin="round"/>

<path d="M16 162.647L16.1662 165.823C16.535 172.873 22.0949 178.545 29.1359 179.055L30 179.118L29.1359 179.18C22.0949 179.69 16.535 185.362 16.1662 192.412L16 195.588L15.8338 192.412C15.465 185.362 9.9051 179.69 2.8641 179.18L2 179.118L2.8641 179.055C9.9051 178.545 15.465 172.873 15.8338 165.823L16 162.647Z" stroke="#6A67DB" stroke-width="4" stroke-linejoin="round"/>

</svg>
