<?xml version="1.0" encoding="utf-8"?>
<!-- Generator: Adobe Illustrator 18.0.0, SVG Export Plug-In . SVG Version: 6.00 Build 0)  -->
<!DOCTYPE svg PUBLIC "-//W3C//DTD SVG 1.1//EN" "http://www.w3.org/Graphics/SVG/1.1/DTD/svg11.dtd">
<svg version="1.1" id="Layer_1" xmlns="http://www.w3.org/2000/svg" xmlns:xlink="http://www.w3.org/1999/xlink" x="0px" y="0px"
	 viewBox="240 137.9 800 524.1" enable-background="new 240 137.9 800 524.1" xml:space="preserve">
<path fill="#C8414B" d="M253.8,662.1h772.4c7.6,0,13.8-6.2,13.8-13.8V151.7c0-7.6-6.2-13.8-13.8-13.8H253.8
	c-7.6,0-13.8,6.2-13.8,13.8v496.6C240,655.9,246.2,662.1,253.8,662.1z"/>
<rect x="240" y="248.3" fill="#FFD250" width="800" height="303.5"/>
<path fill="#C8414B" d="M577.9,400l11.7-52.6c1.1-4.8-2.6-9.4-7.6-9.4h-8.2c-5,0-8.7,4.6-7.6,9.4L577.9,400z"/>
<rect x="564.1" y="372.4" fill="#F5F5F5" width="27.6" height="117.2"/>
<rect x="557.2" y="358.6" fill="#FAB446" width="41.4" height="13.8"/>
<g>
	<rect x="529.7" y="400" fill="#C8414B" width="69" height="13.8"/>
	<polygon fill="#C8414B" points="598.6,455.2 557.2,441.4 557.2,427.6 598.6,441.4 	"/>
	<path fill="#C8414B" d="M371,400l11.7-52.6c1.1-4.8-2.6-9.4-7.6-9.4h-8.2c-5,0-8.7,4.6-7.6,9.4L371,400z"/>
</g>
<path fill="#F5F5F5" d="M419.3,358.6c-7.6,0-13.8,6.2-13.8,13.8v89.7c0,16.8,15.6,48.3,69,48.3s69-31.5,69-48.3v-89.7
	c0-7.6-6.2-13.8-13.8-13.8H419.3z"/>
<g>
	<path fill="#C8414B" d="M474.5,427.6h-69v-55.2c0-7.6,6.2-13.8,13.8-13.8h55.2V427.6z"/>
	<path fill="#C8414B" d="M474.5,427.6h69v34.5c0,19-15.4,34.5-34.5,34.5l0,0c-19,0-34.5-15.4-34.5-34.5V427.6z"/>
</g>
<path fill="#FAB446" d="M405.5,427.6h69v34.5c0,19-15.4,34.5-34.5,34.5l0,0c-19,0-34.5-15.4-34.5-34.5V427.6z"/>
<g>
	<path fill="#C8414B" d="M460.7,489.5v-61.9h-13.8v68.3C452,494.8,456.7,492.5,460.7,489.5z"/>
	<path fill="#C8414B" d="M433.1,495.9v-68.3h-13.8v61.9C423.3,492.5,428,494.8,433.1,495.9z"/>
</g>
<rect x="419.3" y="400" fill="#FFB441" width="41.4" height="13.8"/>
<g>
	<rect x="419.3" y="372.4" fill="#FAB446" width="41.4" height="13.8"/>
	<rect x="426.2" y="380.6" fill="#FAB446" width="27.6" height="25"/>
</g>
<rect x="357.2" y="372.4" fill="#F5F5F5" width="27.6" height="117.2"/>
<g>
	<rect x="350.3" y="482.8" fill="#FAB446" width="41.4" height="13.8"/>
	<rect x="350.3" y="358.6" fill="#FAB446" width="41.4" height="13.8"/>
</g>
<rect x="343.5" y="496.5" fill="#5064AA" width="55.2" height="13.8"/>
<rect x="564.1" y="482.8" fill="#FAB446" width="41.4" height="13.8"/>
<rect x="550.3" y="496.5" fill="#5064AA" width="55.2" height="13.8"/>
<rect x="433.1" y="344.8" fill="#FAB446" width="82.8" height="13.8"/>
<rect x="467.6" y="303.5" fill="#FFB441" width="13.8" height="41.4"/>
<g>
	<path fill="#F5F5F5" d="M460.7,324.1c-11.4,0-20.7-9.3-20.7-20.7c0-11.4,9.3-20.7,20.7-20.7c11.4,0,20.7,9.3,20.7,20.7
		C481.4,314.9,472.1,324.1,460.7,324.1z M460.7,296.6c-3.8,0-6.9,3.1-6.9,6.9c0,3.8,3.1,6.9,6.9,6.9s6.9-3.1,6.9-6.9
		C467.6,299.6,464.5,296.6,460.7,296.6z"/>
	<path fill="#F5F5F5" d="M488.3,324.1c-11.4,0-20.7-9.3-20.7-20.7c0-11.4,9.3-20.7,20.7-20.7c11.4,0,20.7,9.3,20.7,20.7
		S499.7,324.1,488.3,324.1z M488.3,296.6c-3.8,0-6.9,3.1-6.9,6.9c0,3.8,3.1,6.9,6.9,6.9c3.8,0,6.9-3.1,6.9-6.9
		C495.2,299.6,492.1,296.6,488.3,296.6z"/>
	<path fill="#F5F5F5" d="M515.9,337.9c-11.4,0-20.7-9.3-20.7-20.7c0-11.4,9.3-20.7,20.7-20.7c11.4,0,20.7,9.3,20.7,20.7
		S527.3,337.9,515.9,337.9z M515.9,310.3c-3.8,0-6.9,3.1-6.9,6.9c0,3.8,3.1,6.9,6.9,6.9c3.8,0,6.9-3.1,6.9-6.9
		S519.7,310.3,515.9,310.3z"/>
	<path fill="#F5F5F5" d="M433.1,337.9c-11.4,0-20.7-9.3-20.7-20.7c0-11.4,9.3-20.7,20.7-20.7c11.4,0,20.7,9.3,20.7,20.7
		C453.8,328.7,444.5,337.9,433.1,337.9z M433.1,310.3c-3.8,0-6.9,3.1-6.9,6.9c0,3.8,3.1,6.9,6.9,6.9s6.9-3.1,6.9-6.9
		C440,313.4,436.9,310.3,433.1,310.3z"/>
</g>
<path fill="#FAB446" d="M515.9,455.2v6.9c0,3.8-3.1,6.9-6.9,6.9s-6.9-3.1-6.9-6.9v-6.9H515.9 M529.7,441.4h-41.4v20.7
	c0,11.4,9.3,20.7,20.7,20.7c11.4,0,20.7-9.3,20.7-20.7L529.7,441.4L529.7,441.4z"/>
<path fill="#FFA0D2" d="M509,413.8L509,413.8c-7.6,0-13.8-6.2-13.8-13.8v-13.8c0-7.6,6.2-13.8,13.8-13.8l0,0
	c7.6,0,13.8,6.2,13.8,13.8V400C522.8,407.6,516.6,413.8,509,413.8z"/>
<circle fill="#5064AA" cx="474.5" cy="427.6" r="20.7"/>
<rect x="467.6" y="275.9" fill="#FAB446" width="13.8" height="41.4"/>
<path fill="#C8414B" d="M433.1,344.8L419.3,331l8.1-8.1c12.5-12.5,29.4-19.5,47.1-19.5l0,0c17.7,0,34.6,7,47.1,19.5l8.1,8.1
	l-13.8,13.8H433.1z"/>
<g>
	<circle fill="#FFD250" cx="474.5" cy="331" r="6.9"/>
	<circle fill="#FFD250" cx="446.9" cy="331" r="6.9"/>
	<circle fill="#FFD250" cx="502.1" cy="331" r="6.9"/>
</g>
<g>
	<rect x="350.3" y="400" fill="#C8414B" width="69" height="13.8"/>
	<polygon fill="#C8414B" points="350.3,455.2 391.7,441.4 391.7,427.6 350.3,441.4 	"/>
</g>
</svg>
