<?xml version="1.0" encoding="utf-8"?>
<!-- Generator: Adobe Illustrator 18.0.0, SVG Export Plug-In . SVG Version: 6.00 Build 0)  -->
<!DOCTYPE svg PUBLIC "-//W3C//DTD SVG 1.1//EN" "http://www.w3.org/Graphics/SVG/1.1/DTD/svg11.dtd">
<svg version="1.1" id="Layer_1" xmlns="http://www.w3.org/2000/svg" xmlns:xlink="http://www.w3.org/1999/xlink" x="0px" y="0px"
	 viewBox="240 137.9 800 524.1" enable-background="new 240 137.9 800 524.1" xml:space="preserve">
<path fill="#F5F5F5" d="M1026.2,662.1H253.8c-7.6,0-13.8-6.2-13.8-13.8V151.7c0-7.6,6.2-13.8,13.8-13.8h772.4
	c7.6,0,13.8,6.2,13.8,13.8v496.6C1040,655.9,1033.8,662.1,1026.2,662.1z"/>
<g>
	<path fill="#FF4B55" d="M1040,178.3H240v-26.5c0-7.6,6.2-13.8,13.8-13.8h772.4c7.6,0,13.8,6.2,13.8,13.8L1040,178.3L1040,178.3z"/>
	<rect x="240" y="299.2" fill="#FF4B55" width="800" height="40.3"/>
	<rect x="240" y="218.6" fill="#FF4B55" width="800" height="40.3"/>
	<path fill="#FF4B55" d="M1040,420.2H253.8c-7.6,0-13.8-6.2-13.8-13.8v-26.5h800V420.2z"/>
	<rect x="240" y="541.1" fill="#FF4B55" width="800" height="40.3"/>
	<path fill="#FF4B55" d="M1026.2,662.1H253.8c-7.6,0-13.8-6.2-13.8-13.8v-26.5h800v26.5C1040,655.9,1033.8,662.1,1026.2,662.1z"/>
	<rect x="240" y="460.5" fill="#FF4B55" width="800" height="40.3"/>
</g>
<path fill="#41479B" d="M598.6,137.9H253.8c-7.6,0-13.8,6.2-13.8,13.8v254.6c0,7.6,6.2,13.8,13.8,13.8h344.8
	c7.6,0,13.8-6.2,13.8-13.8V151.7C612.4,144.1,606.2,137.9,598.6,137.9z"/>
<g>
	<path fill="#F5F5F5" d="M278.7,169.6l3.1,9.2l9.7,0.1c1.3,0,1.8,1.6,0.8,2.3l-7.8,5.7l2.9,9.2c0.4,1.2-1,2.2-2,1.4l-7.9-5.6
		l-7.9,5.6c-1,0.7-2.4-0.3-2-1.4l2.9-9.2l-7.8-5.7c-1-0.7-0.5-2.3,0.8-2.3l9.7-0.1l3.1-9.2C276.7,168.4,278.3,168.4,278.7,169.6z"/>
	<path fill="#F5F5F5" d="M278.7,217.5l3.1,9.2l9.7,0.1c1.3,0,1.8,1.6,0.8,2.3l-7.8,5.7l2.9,9.2c0.4,1.2-1,2.2-2,1.4l-7.9-5.6
		l-7.9,5.6c-1,0.7-2.4-0.3-2-1.4l2.9-9.2l-7.8-5.7c-1-0.7-0.5-2.3,0.8-2.3l9.7-0.1l3.1-9.2C276.7,216.3,278.3,216.3,278.7,217.5z"/>
	<path fill="#F5F5F5" d="M278.7,265.4l3.1,9.2l9.7,0.1c1.3,0,1.8,1.6,0.8,2.3l-7.8,5.7l2.9,9.2c0.4,1.2-1,2.2-2,1.4l-7.9-5.6
		l-7.9,5.6c-1,0.7-2.4-0.3-2-1.4l2.9-9.2l-7.8-5.7c-1-0.7-0.5-2.3,0.8-2.3l9.7-0.1l3.1-9.2C276.7,264.2,278.3,264.2,278.7,265.4z"/>
	<path fill="#F5F5F5" d="M278.7,313.3l3.1,9.2l9.7,0.1c1.3,0,1.8,1.6,0.8,2.3l-7.8,5.7l2.9,9.2c0.4,1.2-1,2.2-2,1.4l-7.9-5.6
		l-7.9,5.6c-1,0.7-2.4-0.3-2-1.4l2.9-9.2l-7.8-5.7c-1-0.7-0.5-2.3,0.8-2.3l9.7-0.1l3.1-9.2C276.7,312.1,278.3,312.1,278.7,313.3z"/>
	<path fill="#F5F5F5" d="M278.7,361.2l3.1,9.2l9.7,0.1c1.3,0,1.8,1.6,0.8,2.3l-7.8,5.7l2.9,9.2c0.4,1.2-1,2.2-2,1.5l-7.9-5.6
		l-7.9,5.6c-1,0.7-2.4-0.3-2-1.4l2.9-9.2l-7.8-5.7c-1-0.7-0.5-2.3,0.8-2.3l9.7-0.1l3.1-9.2C276.7,360,278.3,360,278.7,361.2z"/>
	<path fill="#F5F5F5" d="M315.9,193.1l3.1,9.2l9.7,0.1c1.3,0,1.8,1.6,0.8,2.3l-7.8,5.7l2.9,9.2c0.4,1.2-1,2.2-2,1.4l-7.9-5.6
		l-7.9,5.6c-1,0.7-2.4-0.3-2-1.4l2.9-9.2l-7.8-5.7c-1-0.7-0.5-2.3,0.8-2.3l9.7-0.1l3.1-9.2C313.8,191.9,315.5,191.9,315.9,193.1z"/>
	<path fill="#F5F5F5" d="M315.9,241l3.1,9.2l9.7,0.1c1.3,0,1.8,1.6,0.8,2.3l-7.8,5.7l2.9,9.2c0.4,1.2-1,2.2-2,1.4l-7.9-5.6l-7.9,5.6
		c-1,0.7-2.4-0.3-2-1.4l2.9-9.2l-7.8-5.7c-1-0.7-0.5-2.3,0.8-2.3l9.7-0.1l3.1-9.2C313.8,239.8,315.5,239.8,315.9,241z"/>
	<path fill="#F5F5F5" d="M315.9,288.9l3.1,9.2l9.7,0.1c1.3,0,1.8,1.6,0.8,2.3l-7.8,5.7l2.9,9.2c0.4,1.2-1,2.2-2,1.4l-7.9-5.6
		l-7.9,5.6c-1,0.7-2.4-0.3-2-1.4l2.9-9.2l-7.8-5.7c-1-0.7-0.5-2.3,0.8-2.3l9.7-0.1l3.1-9.2C313.8,287.7,315.5,287.7,315.9,288.9z"/>
	<path fill="#F5F5F5" d="M315.9,336.8l3.1,9.2l9.7,0.1c1.3,0,1.8,1.6,0.8,2.3l-7.8,5.7l2.9,9.2c0.4,1.2-1,2.2-2,1.4l-7.9-5.6
		l-7.9,5.6c-1,0.7-2.4-0.3-2-1.4l2.9-9.2l-7.8-5.7c-1-0.7-0.5-2.3,0.8-2.3l9.7-0.1l3.1-9.2C313.8,335.6,315.5,335.6,315.9,336.8z"/>
	<path fill="#F5F5F5" d="M353.1,169.6l3.1,9.2l9.7,0.1c1.3,0,1.8,1.6,0.8,2.3l-7.8,5.7l2.9,9.2c0.4,1.2-1,2.2-2,1.4l-7.9-5.6
		l-7.9,5.6c-1,0.7-2.4-0.3-2-1.4l2.9-9.2l-7.8-5.7c-1-0.7-0.5-2.3,0.8-2.3l9.7-0.1l3.1-9.2C351,168.4,352.7,168.4,353.1,169.6z"/>
	<path fill="#F5F5F5" d="M353.1,217.5l3.1,9.2l9.7,0.1c1.3,0,1.8,1.6,0.8,2.3l-7.8,5.7l2.9,9.2c0.4,1.2-1,2.2-2,1.4l-7.9-5.6
		l-7.9,5.6c-1,0.7-2.4-0.3-2-1.4l2.9-9.2l-7.8-5.7c-1-0.7-0.5-2.3,0.8-2.3l9.7-0.1l3.1-9.2C351,216.3,352.7,216.3,353.1,217.5z"/>
	<path fill="#F5F5F5" d="M353.1,265.4l3.1,9.2l9.7,0.1c1.3,0,1.8,1.6,0.8,2.3l-7.8,5.7l2.9,9.2c0.4,1.2-1,2.2-2,1.4l-7.9-5.6
		l-7.9,5.6c-1,0.7-2.4-0.3-2-1.4l2.9-9.2l-7.8-5.7c-1-0.7-0.5-2.3,0.8-2.3l9.7-0.1l3.1-9.2C351,264.2,352.7,264.2,353.1,265.4z"/>
	<path fill="#F5F5F5" d="M353.1,313.3l3.1,9.2l9.7,0.1c1.3,0,1.8,1.6,0.8,2.3l-7.8,5.7l2.9,9.2c0.4,1.2-1,2.2-2,1.4l-7.9-5.6
		l-7.9,5.6c-1,0.7-2.4-0.3-2-1.4l2.9-9.2l-7.8-5.7c-1-0.7-0.5-2.3,0.8-2.3l9.7-0.1l3.1-9.2C351,312.1,352.7,312.1,353.1,313.3z"/>
	<path fill="#F5F5F5" d="M353.1,361.2l3.1,9.2l9.7,0.1c1.3,0,1.8,1.6,0.8,2.3l-7.8,5.7l2.9,9.2c0.4,1.2-1,2.2-2,1.5l-7.9-5.6
		l-7.9,5.6c-1,0.7-2.4-0.3-2-1.5l2.9-9.2l-7.8-5.7c-1-0.7-0.5-2.3,0.8-2.3l9.7-0.1l3.1-9.2C351,360,352.7,360,353.1,361.2z"/>
	<path fill="#F5F5F5" d="M390.3,193.1l3.1,9.2l9.7,0.1c1.3,0,1.8,1.6,0.8,2.3l-7.8,5.7l2.9,9.2c0.4,1.2-1,2.2-2,1.4l-7.9-5.6
		l-7.9,5.6c-1,0.7-2.4-0.3-2-1.4l2.9-9.2l-7.8-5.7c-1-0.7-0.5-2.3,0.8-2.3l9.7-0.1l3.1-9.2C388.2,191.9,389.9,191.9,390.3,193.1z"/>
	<path fill="#F5F5F5" d="M390.3,241l3.1,9.2l9.7,0.1c1.3,0,1.8,1.6,0.8,2.3l-7.8,5.7l2.9,9.2c0.4,1.2-1,2.2-2,1.4l-7.9-5.6l-7.9,5.6
		c-1,0.7-2.4-0.3-2-1.4l2.9-9.2l-7.8-5.7c-1-0.7-0.5-2.3,0.8-2.3l9.7-0.1l3.1-9.2C388.2,239.8,389.9,239.8,390.3,241z"/>
	<path fill="#F5F5F5" d="M390.3,288.9l3.1,9.2l9.7,0.1c1.3,0,1.8,1.6,0.8,2.3l-7.8,5.7l2.9,9.2c0.4,1.2-1,2.2-2,1.4l-7.9-5.6
		l-7.9,5.6c-1,0.7-2.4-0.3-2-1.4l2.9-9.2l-7.8-5.7c-1-0.7-0.5-2.3,0.8-2.3l9.7-0.1l3.1-9.2C388.2,287.7,389.9,287.7,390.3,288.9z"/>
	<path fill="#F5F5F5" d="M390.3,336.8l3.1,9.2l9.7,0.1c1.3,0,1.8,1.6,0.8,2.3l-7.8,5.7l2.9,9.2c0.4,1.2-1,2.2-2,1.4l-7.9-5.6
		l-7.9,5.6c-1,0.7-2.4-0.3-2-1.4l2.9-9.2l-7.8-5.7c-1-0.7-0.5-2.3,0.8-2.3l9.7-0.1l3.1-9.2C388.2,335.6,389.9,335.6,390.3,336.8z"/>
	<path fill="#F5F5F5" d="M427.4,169.6l3.1,9.2l9.7,0.1c1.3,0,1.8,1.6,0.8,2.3l-7.8,5.7l2.9,9.2c0.4,1.2-1,2.2-2,1.4l-7.9-5.6
		l-7.9,5.6c-1,0.7-2.4-0.3-2-1.4l2.9-9.2l-7.8-5.7c-1-0.7-0.5-2.3,0.8-2.3l9.7-0.1l3.1-9.2C425.4,168.4,427,168.4,427.4,169.6z"/>
	<path fill="#F5F5F5" d="M427.4,217.5l3.1,9.2l9.7,0.1c1.3,0,1.8,1.6,0.8,2.3l-7.8,5.7l2.9,9.2c0.4,1.2-1,2.2-2,1.4l-7.9-5.6
		l-7.9,5.6c-1,0.7-2.4-0.3-2-1.4l2.9-9.2l-7.8-5.7c-1-0.7-0.5-2.3,0.8-2.3l9.7-0.1l3.1-9.2C425.4,216.3,427,216.3,427.4,217.5z"/>
	<path fill="#F5F5F5" d="M427.4,265.4l3.1,9.2l9.7,0.1c1.3,0,1.8,1.6,0.8,2.3l-7.8,5.7l2.9,9.2c0.4,1.2-1,2.2-2,1.4l-7.9-5.6
		l-7.9,5.6c-1,0.7-2.4-0.3-2-1.4l2.9-9.2l-7.8-5.7c-1-0.7-0.5-2.3,0.8-2.3l9.7-0.1l3.1-9.2C425.4,264.2,427,264.2,427.4,265.4z"/>
	<path fill="#F5F5F5" d="M427.4,313.3l3.1,9.2l9.7,0.1c1.3,0,1.8,1.6,0.8,2.3l-7.8,5.7l2.9,9.2c0.4,1.2-1,2.2-2,1.4l-7.9-5.6
		l-7.9,5.6c-1,0.7-2.4-0.3-2-1.4l2.9-9.2l-7.8-5.7c-1-0.7-0.5-2.3,0.8-2.3l9.7-0.1l3.1-9.2C425.4,312.1,427,312.1,427.4,313.3z"/>
	<path fill="#F5F5F5" d="M427.4,361.2l3.1,9.2l9.7,0.1c1.3,0,1.8,1.6,0.8,2.3l-7.8,5.7l2.9,9.2c0.4,1.2-1,2.2-2,1.5l-7.9-5.6
		l-7.9,5.6c-1,0.7-2.4-0.3-2-1.5l2.9-9.2l-7.8-5.7c-1-0.7-0.5-2.3,0.8-2.3l9.7-0.1l3.1-9.2C425.4,360,427,360,427.4,361.2z"/>
	<path fill="#F5F5F5" d="M464.6,193.1l3.1,9.2l9.7,0.1c1.3,0,1.8,1.6,0.8,2.3l-7.8,5.7l2.9,9.2c0.4,1.2-1,2.2-2,1.4l-7.9-5.6
		l-7.9,5.6c-1,0.7-2.4-0.3-2-1.4l2.9-9.2l-7.8-5.7c-1-0.7-0.5-2.3,0.8-2.3l9.7-0.1l3.1-9.2C462.5,191.9,464.2,191.9,464.6,193.1z"/>
	<path fill="#F5F5F5" d="M464.6,241l3.1,9.2l9.7,0.1c1.3,0,1.8,1.6,0.8,2.3l-7.8,5.7l2.9,9.2c0.4,1.2-1,2.2-2,1.4l-7.9-5.6l-7.9,5.6
		c-1,0.7-2.4-0.3-2-1.4l2.9-9.2l-7.8-5.7c-1-0.7-0.5-2.3,0.8-2.3l9.7-0.1l3.1-9.2C462.5,239.8,464.2,239.8,464.6,241z"/>
	<path fill="#F5F5F5" d="M464.6,288.9l3.1,9.2l9.7,0.1c1.3,0,1.8,1.6,0.8,2.3l-7.8,5.7l2.9,9.2c0.4,1.2-1,2.2-2,1.4l-7.9-5.6
		l-7.9,5.6c-1,0.7-2.4-0.3-2-1.4l2.9-9.2l-7.8-5.7c-1-0.7-0.5-2.3,0.8-2.3l9.7-0.1l3.1-9.2C462.5,287.7,464.2,287.7,464.6,288.9z"/>
	<path fill="#F5F5F5" d="M464.6,336.8l3.1,9.2l9.7,0.1c1.3,0,1.8,1.6,0.8,2.3l-7.8,5.7l2.9,9.2c0.4,1.2-1,2.2-2,1.4l-7.9-5.6
		l-7.9,5.6c-1,0.7-2.4-0.3-2-1.4l2.9-9.2l-7.8-5.7c-1-0.7-0.5-2.3,0.8-2.3l9.7-0.1l3.1-9.2C462.5,335.6,464.2,335.6,464.6,336.8z"/>
	<path fill="#F5F5F5" d="M501.8,169.6l3.1,9.2l9.7,0.1c1.3,0,1.8,1.6,0.8,2.3l-7.8,5.7l2.9,9.2c0.4,1.2-1,2.2-2,1.4l-7.9-5.6
		l-7.9,5.6c-1,0.7-2.4-0.3-2-1.4l2.9-9.2l-7.8-5.7c-1-0.7-0.5-2.3,0.8-2.3l9.7-0.1l3.1-9.2C499.7,168.4,501.4,168.4,501.8,169.6z"/>
	<path fill="#F5F5F5" d="M501.8,217.5l3.1,9.2l9.7,0.1c1.3,0,1.8,1.6,0.8,2.3l-7.8,5.7l2.9,9.2c0.4,1.2-1,2.2-2,1.4l-7.9-5.6
		l-7.9,5.6c-1,0.7-2.4-0.3-2-1.4l2.9-9.2l-7.8-5.7c-1-0.7-0.5-2.3,0.8-2.3l9.7-0.1l3.1-9.2C499.7,216.3,501.4,216.3,501.8,217.5z"/>
	<path fill="#F5F5F5" d="M501.8,265.4l3.1,9.2l9.7,0.1c1.3,0,1.8,1.6,0.8,2.3l-7.8,5.7l2.9,9.2c0.4,1.2-1,2.2-2,1.4l-7.9-5.6
		l-7.9,5.6c-1,0.7-2.4-0.3-2-1.4l2.9-9.2l-7.8-5.7c-1-0.7-0.5-2.3,0.8-2.3l9.7-0.1l3.1-9.2C499.7,264.2,501.4,264.2,501.8,265.4z"/>
	<path fill="#F5F5F5" d="M501.8,313.3l3.1,9.2l9.7,0.1c1.3,0,1.8,1.6,0.8,2.3l-7.8,5.7l2.9,9.2c0.4,1.2-1,2.2-2,1.4l-7.9-5.6
		l-7.9,5.6c-1,0.7-2.4-0.3-2-1.4l2.9-9.2l-7.8-5.7c-1-0.7-0.5-2.3,0.8-2.3l9.7-0.1l3.1-9.2C499.7,312.1,501.4,312.1,501.8,313.3z"/>
	<path fill="#F5F5F5" d="M501.8,361.2l3.1,9.2l9.7,0.1c1.3,0,1.8,1.6,0.8,2.3l-7.8,5.7l2.9,9.2c0.4,1.2-1,2.2-2,1.5l-7.9-5.6
		l-7.9,5.6c-1,0.7-2.4-0.3-2-1.5l2.9-9.2l-7.8-5.7c-1-0.7-0.5-2.3,0.8-2.3l9.7-0.1l3.1-9.2C499.7,360,501.4,360,501.8,361.2z"/>
	<path fill="#F5F5F5" d="M539,193.1l3.1,9.2l9.7,0.1c1.3,0,1.8,1.6,0.8,2.3l-7.8,5.7l2.9,9.2c0.4,1.2-1,2.2-2,1.4l-7.9-5.6l-7.9,5.6
		c-1,0.7-2.4-0.3-2-1.4l2.9-9.2l-7.8-5.7c-1-0.7-0.5-2.3,0.8-2.3l9.7-0.1l3.1-9.2C536.9,191.9,538.6,191.9,539,193.1z"/>
	<path fill="#F5F5F5" d="M539,241l3.1,9.2l9.7,0.1c1.3,0,1.8,1.6,0.8,2.3l-7.8,5.7l2.9,9.2c0.4,1.2-1,2.2-2,1.4l-7.9-5.6l-7.9,5.6
		c-1,0.7-2.4-0.3-2-1.4l2.9-9.2l-7.8-5.7c-1-0.7-0.5-2.3,0.8-2.3l9.7-0.1l3.1-9.2C536.9,239.8,538.6,239.8,539,241z"/>
	<path fill="#F5F5F5" d="M539,288.9l3.1,9.2l9.7,0.1c1.3,0,1.8,1.6,0.8,2.3l-7.8,5.7l2.9,9.2c0.4,1.2-1,2.2-2,1.4l-7.9-5.6l-7.9,5.6
		c-1,0.7-2.4-0.3-2-1.4l2.9-9.2l-7.8-5.7c-1-0.7-0.5-2.3,0.8-2.3l9.7-0.1l3.1-9.2C536.9,287.7,538.6,287.7,539,288.9z"/>
	<path fill="#F5F5F5" d="M539,336.8l3.1,9.2l9.7,0.1c1.3,0,1.8,1.6,0.8,2.3l-7.8,5.7l2.9,9.2c0.4,1.2-1,2.2-2,1.4l-7.9-5.6l-7.9,5.6
		c-1,0.7-2.4-0.3-2-1.4l2.9-9.2l-7.8-5.7c-1-0.7-0.5-2.3,0.8-2.3l9.7-0.1l3.1-9.2C536.9,335.6,538.6,335.6,539,336.8z"/>
	<path fill="#F5F5F5" d="M576.1,169.6l3.1,9.2l9.7,0.1c1.3,0,1.8,1.6,0.8,2.3l-7.8,5.7l2.9,9.2c0.4,1.2-1,2.2-2,1.4l-7.9-5.6
		l-7.9,5.6c-1,0.7-2.4-0.3-2-1.4l2.9-9.2l-7.8-5.7c-1-0.7-0.5-2.3,0.8-2.3l9.7-0.1l3.1-9.2C574.1,168.4,575.8,168.4,576.1,169.6z"/>
	<path fill="#F5F5F5" d="M576.1,217.5l3.1,9.2l9.7,0.1c1.3,0,1.8,1.6,0.8,2.3l-7.8,5.7l2.9,9.2c0.4,1.2-1,2.2-2,1.4l-7.9-5.6
		l-7.9,5.6c-1,0.7-2.4-0.3-2-1.4l2.9-9.2l-7.8-5.7c-1-0.7-0.5-2.3,0.8-2.3l9.7-0.1l3.1-9.2C574.1,216.3,575.8,216.3,576.1,217.5z"/>
	<path fill="#F5F5F5" d="M576.1,265.4l3.1,9.2l9.7,0.1c1.3,0,1.8,1.6,0.8,2.3l-7.8,5.7l2.9,9.2c0.4,1.2-1,2.2-2,1.4l-7.9-5.6
		l-7.9,5.6c-1,0.7-2.4-0.3-2-1.4l2.9-9.2l-7.8-5.7c-1-0.7-0.5-2.3,0.8-2.3l9.7-0.1l3.1-9.2C574.1,264.2,575.8,264.2,576.1,265.4z"/>
	<path fill="#F5F5F5" d="M576.1,313.3l3.1,9.2l9.7,0.1c1.3,0,1.8,1.6,0.8,2.3l-7.8,5.7l2.9,9.2c0.4,1.2-1,2.2-2,1.4l-7.9-5.6
		l-7.9,5.6c-1,0.7-2.4-0.3-2-1.4l2.9-9.2l-7.8-5.7c-1-0.7-0.5-2.3,0.8-2.3l9.7-0.1l3.1-9.2C574.1,312.1,575.8,312.1,576.1,313.3z"/>
	<path fill="#F5F5F5" d="M576.1,361.2l3.1,9.2l9.7,0.1c1.3,0,1.8,1.6,0.8,2.3l-7.8,5.7l2.9,9.2c0.4,1.2-1,2.2-2,1.5l-7.9-5.6
		l-7.9,5.6c-1,0.7-2.4-0.3-2-1.5l2.9-9.2l-7.8-5.7c-1-0.7-0.5-2.3,0.8-2.3l9.7-0.1l3.1-9.2C574.1,360,575.8,360,576.1,361.2z"/>
</g>
</svg>
