<svg width="1440" height="230" viewBox="0 0 1440 230" fill="none" xmlns="http://www.w3.org/2000/svg" xmlns:xlink="http://www.w3.org/1999/xlink">
<path d="M590.385 125.906V249.055H468.723L590.385 125.906Z" fill="#FFEEFA"/>
<path d="M1441.99 125.945C1374.8 125.945 1320.36 181.08 1320.36 249.075C1387.55 249.075 1441.99 193.941 1441.99 125.945Z" fill="#FDDAF3" />
<path d="M-17.064 123.141L104.588 123.141L104.588 0.000643118L-17.064 123.141Z" fill="#FFEEFA"/>
<path d="M1077.02 125.906H955.374V249.055H1077.02V125.906Z" fill="#FDDAF3" />
<path d="M1077.07 249.055L1198.72 249.055V125.906L1077.07 125.906V249.055Z" fill="#FDDAF3" />
<path d="M833.674 125.906H712.031V249.055H833.674V125.906Z" fill="#FDDAF3"/>
<path d="M833.674 125.906H712.031V249.055H833.674V125.906Z" fill="#FFEEFA"/>
<path d="M833.731 249.055L955.374 249.055V125.906L833.731 125.906V249.055Z" fill="#FDDAF3" />
<path d="M1077.02 2.73828H955.374V125.887H1077.02V2.73828Z" fill="#FFEEFA"/>
<path d="M1077.02 2.73828H955.374V125.887H1077.02V2.73828Z" fill="#FDDAF3" />
<path d="M955.375 2.73828C888.192 2.73828 833.731 57.8727 833.731 125.887H955.375V2.73828Z" fill="#FFEEFA"/>
<path d="M1077.07 125.906L1198.72 125.906V2.75721L1077.07 2.75721V125.906Z" fill="#FDDAF3" />
<path d="M1077.07 2.73828V125.887H1198.72C1198.72 57.8727 1144.26 2.73828 1077.07 2.73828Z" fill="#FFEEFA"/>
<path d="M955.374 125.906C955.374 193.921 1009.83 249.055 1077.02 249.055V125.906H955.374Z" fill="#FFEEFA"/>
<path d="M1077.07 125.906V249.055C1144.26 249.055 1198.72 193.921 1198.72 125.906H1077.07Z" fill="#FFEEFA"/>
<path d="M467.723 126.18L589.375 126.18C589.375 58.17 534.91 3.03965 467.723 3.03965L467.723 126.18Z" fill="#FFEEFA"/>
<path d="M1077.04 64.2852C1043.42 64.2852 1016.17 91.8717 1016.17 125.908H1077.04V64.2852Z" fill="#FFEEFA"/>
<path d="M1077.07 187.529C1110.67 187.51 1137.9 159.923 1137.9 125.906H1077.07V187.529Z" fill="#FDDAF3" />
<path d="M833.731 125.906V249.055H955.375L833.731 125.906Z" fill="#FFEEFA"/>
<path d="M1198.72 125.945C1265.9 125.945 1320.34 181.08 1320.34 249.075C1253.16 249.075 1198.72 193.941 1198.72 125.945Z" fill="#FDDAF3" />
<path d="M1320.36 2.75781C1253.18 2.75781 1198.74 57.8922 1198.74 125.887C1265.92 125.887 1320.36 70.753 1320.36 2.75781Z" fill="#FDDAF3" />
<path d="M-20.1767 248.305C47.0062 248.305 101.447 193.17 101.447 125.175C34.2644 125.175 -20.1767 180.309 -20.1767 248.305Z" fill="#FDDAF3" />
<path d="M712.62 3.12109C779.803 3.12109 834.263 58.2555 834.263 126.27H712.62V3.12109Z" fill="#FFEEFA"/>
<path d="M103.342 125.277C103.342 193.292 48.8816 248.426 -18.3013 248.426V125.277H103.342Z" fill="#FFEEFA"/>
<path d="M224.984 125.277V248.426H103.341L224.984 125.277Z" fill="#FFEEFA"/>
<path d="M1320.35 3.03516L1442 3.03516L1442 126.175L1320.35 3.03516Z" fill="#FDDAF3" />
<path d="M347.048 125.316C414.231 125.316 468.672 180.451 468.672 248.446C401.489 248.446 347.048 193.312 347.048 125.316Z" fill="#FFEEFA"/>
<path d="M468.692 2.12891C401.509 2.12891 347.068 57.2633 347.068 125.259C414.251 125.259 468.692 70.1241 468.692 2.12891Z" fill="#FFEEFA"/>
<path d="M1335.19 151.212C1350.1 147.624 1359.31 132.48 1355.77 117.385C1352.22 102.291 1337.26 92.9634 1322.35 96.551C1307.44 100.139 1298.23 115.283 1301.77 130.377C1305.32 145.471 1320.28 154.799 1335.19 151.212Z" fill="#FDDAF3" />
<path d="M-35.0039 99.8547C-49.9135 103.442 -59.1273 118.587 -55.5835 133.681C-52.0398 148.775 -37.0806 158.103 -22.171 154.515C-7.26144 150.928 1.95245 135.783 -1.59126 120.689C-5.13497 105.595 -20.0944 96.2671 -35.0039 99.8547Z" fill="#FDDAF3" />
<path d="M346.479 2.02344V125.172H224.836C224.836 57.1578 279.296 2.02344 346.479 2.02344Z" fill="#FFEEFA"/>
</svg>
