<svg width="19" height="16" viewBox="0 0 19 16" fill="none" xmlns="http://www.w3.org/2000/svg">
<path d="M-1.20467e-06 8C-1.25502e-06 8.57328 0.464736 9.03802 1.03802 9.03802L15.0502 9.03802L10.3139 13.8028C9.91269 14.2063 9.91269 14.8581 10.3139 15.2617C10.7185 15.6687 11.377 15.6687 11.7816 15.2617L17.6878 9.32009C18.4138 8.58975 18.4138 7.41025 17.6878 6.67992L11.7816 0.738272C11.377 0.331253 10.7185 0.331253 10.3139 0.738273C9.91269 1.14186 9.91269 1.79366 10.3139 2.19724L15.0502 6.96198L1.03802 6.96198C0.464736 6.96198 -1.15431e-06 7.42672 -1.20467e-06 8Z" fill="#FF7733"/>
</svg>
