<svg width="60" height="45" viewBox="0 0 60 45" fill="none" xmlns="http://www.w3.org/2000/svg">
<path d="M16.6113 0.750031C17.0043 0.454545 17.4514 0.239553 17.9273 0.117329C18.4031 -0.00489452 18.8983 -0.0319559 19.3846 0.0376909C19.8709 0.107338 20.3387 0.272329 20.7614 0.523243C21.1841 0.774157 21.5533 1.10608 21.8481 1.50006C22.1428 1.89405 22.3572 2.34237 22.4792 2.81944C22.6011 3.29651 22.6281 3.79298 22.5586 4.28051C22.4891 4.76804 22.3246 5.23707 22.0743 5.66084C21.824 6.0846 21.4929 6.4548 21.1 6.75028C15.2497 11.1492 11.8982 15.4281 9.97926 19.1633C12.614 18.4833 15.3946 18.6432 17.9345 19.6206C20.4745 20.5981 22.6476 22.3446 24.1518 24.6174C25.6561 26.8902 26.4167 29.5763 26.328 32.3025C26.2392 35.0286 25.3056 37.6594 23.6568 39.829C22.008 41.9987 19.7259 43.5994 17.1278 44.4088C14.5297 45.2182 11.7447 45.196 9.15975 44.3453C6.57482 43.4946 4.31845 41.8577 2.70426 39.662C1.09008 37.4663 0.198269 34.8211 0.152797 32.0938C-0.326511 27.4884 0.325874 22.8353 2.053 18.5408C4.28612 12.893 8.65136 6.73528 16.6113 0.750031ZM50.2764 0.750031C50.6693 0.454545 51.1165 0.239553 51.5924 0.117329C52.0682 -0.00489452 52.5634 -0.0319559 53.0497 0.0376909C53.536 0.107338 54.0038 0.272329 54.4265 0.523243C54.8492 0.774157 55.2184 1.10608 55.5131 1.50006C55.8079 1.89405 56.0223 2.34237 56.1442 2.81944C56.2661 3.29651 56.2931 3.79298 56.2237 4.28051C56.1542 4.76804 55.9896 5.23707 55.7394 5.66084C55.4891 6.0846 55.158 6.4548 54.765 6.75028C48.9148 11.1492 45.5632 15.4281 43.6443 19.1633C46.2791 18.4833 49.0597 18.6432 51.5996 19.6206C54.1396 20.5981 56.3127 22.3446 57.8169 24.6174C59.3211 26.8902 60.0817 29.5763 59.993 32.3025C59.9043 35.0286 58.9707 37.6594 57.3219 39.829C55.6731 41.9987 53.391 43.5994 50.7929 44.4088C48.1948 45.2182 45.4098 45.196 42.8248 44.3453C40.2399 43.4946 37.9835 41.8577 36.3693 39.662C34.7552 37.4663 33.8633 34.8211 33.8179 32.0938C33.3386 27.4884 33.991 22.8353 35.7181 18.5408C37.9549 12.893 42.3164 6.73528 50.2764 0.750031Z" fill="#141733"/>
</svg>
