<svg width="886" height="700" viewBox="0 0 886 700" fill="none" xmlns="http://www.w3.org/2000/svg">
<path d="M795.477 592.071C973.961 622.863 882.978 469.471 561.368 366.674C665.991 338.575 858.85 262.697 793.298 183.98C727.747 105.262 586.978 192.975 524.788 246.672C572.675 175.001 650.253 26.5831 577.47 6.27338C486.491 -19.1138 399.512 41.7024 356.371 283.099C273.715 142.215 92.4203 60.062 32.122 119.15C-28.1762 178.237 -32.4383 260.98 303.327 396.61C108.991 416.957 -9.13307 573.667 100.46 614.851C210.054 656.034 283.869 653.371 390.649 476.624C356.264 584.201 443.222 736.306 560.951 691.883C655.134 656.344 569.792 525.405 515.348 464.378C549.23 496.678 652.69 567.437 795.477 592.071Z" fill="#F84F3A"/>
</svg>
