<svg width="397" height="446" viewBox="0 0 397 446" fill="none" xmlns="http://www.w3.org/2000/svg">
<path d="M269.161 387.855C255.501 356.776 248.423 323.897 246.591 311.343C250.118 351.093 253.893 429.946 240.776 427.357C227.659 424.768 223.511 428.533 223.076 430.74C222.212 436.986 215.122 448.531 193.67 444.738C166.856 439.995 178.66 426.098 167.012 419.674C155.365 413.25 141.871 407.836 144.843 392.746C140.779 375.717 131.926 424.85 118.543 421.659C105.16 418.467 5.14424 387.233 19.6437 354.066C31.2433 327.532 108.278 243.614 114.997 206.711C100.524 217.423 63.3994 240.202 30.6819 245.626C-10.2149 252.405 -0.911474 213.537 34.4577 195.766C5.51297 185.102 -16.7345 187.862 19.6437 152.413C56.0218 116.963 15.4079 111.148 38.739 98.7007C62.0701 86.2538 39.5523 -10.4019 80.3415 1.49918C121.131 13.4002 186.85 103.003 269.161 20.9752C317.768 -27.4652 379.195 71.7103 357.104 73.6758C355.719 73.799 354.698 73.8709 353.999 73.9108C361.691 73.8895 403.486 76.213 395.763 118.71C387.889 162.04 336.548 160.378 311.862 154.131C333.13 160.528 375.627 178.267 375.469 198.038C375.272 222.752 274.009 130.285 252.645 166.222C256.342 194.897 371.53 263.156 375.47 299.133C383.459 372.096 278.31 408.67 269.161 387.855Z" fill="#FFBC4B"></path>
</svg>
