<svg width="436" height="469" viewBox="0 0 436 469" fill="none" xmlns="http://www.w3.org/2000/svg">
<path d="M158.816 307.03C146.504 211.658 125.634 29.4498 140.655 63.5872C155.675 97.7246 163.458 133.839 165.472 147.629C161.594 103.967 157.443 17.3539 171.866 20.1976C186.289 23.0413 190.851 18.9057 191.329 16.4825C192.279 9.62094 200.075 -3.06034 223.663 1.10685C253.147 6.31583 240.169 21.5804 252.976 28.6369C265.783 35.6934 280.622 41.6399 277.354 58.2149C281.822 76.9195 291.556 22.9514 306.272 26.4569C320.988 29.9625 364.222 68.0916 348.278 104.522C335.523 133.667 317.56 222.022 310.172 262.556C326.086 250.791 366.908 225.77 402.883 219.813C447.853 212.366 437.623 255.059 398.732 274.579C430.559 286.292 455.022 283.261 415.021 322.199C375.02 361.136 419.679 367.525 394.024 381.196C368.369 394.868 371.762 466.529 326.911 453.457C282.059 440.384 101.621 474.732 45.1589 466.923C-11.3034 459.114 19.6625 410.843 43.9535 408.684C45.4764 408.548 46.5988 408.47 47.3674 408.426C38.9089 408.449 -7.04809 405.897 1.44405 359.218C10.1028 311.624 66.5564 313.449 93.7009 320.312C70.3148 313.284 23.5858 293.8 23.7591 272.083C23.9756 244.938 135.324 346.504 158.816 307.03Z" fill="#5B9DFF"/>
</svg>
