<svg width="397" height="446" viewBox="0 0 397 446" fill="none" xmlns="http://www.w3.org/2000/svg">
<path d="M268.79 387.855C255.13 356.776 248.052 323.897 246.22 311.343C249.747 351.093 253.522 429.946 240.405 427.357C227.288 424.768 223.14 428.533 222.705 430.74C221.841 436.986 214.751 448.531 193.299 444.738C166.485 439.995 178.289 426.098 166.641 419.674C154.994 413.25 141.5 407.836 144.471 392.746C140.407 375.717 131.555 424.85 118.172 421.659C104.789 418.467 4.77314 387.233 19.2726 354.066C30.8722 327.532 107.907 243.614 114.625 206.711C100.153 217.423 63.0283 240.202 30.3108 245.626C-10.5859 252.405 -1.28257 213.537 34.0866 195.766C5.14187 185.102 -17.1056 187.862 19.2726 152.413C55.6507 116.963 15.0368 111.148 38.3679 98.7007C61.699 86.2538 39.1812 -10.4019 79.9704 1.49918C120.76 13.4002 186.479 103.003 268.79 20.9752C317.397 -27.4652 378.824 71.7103 356.733 73.6758C355.348 73.799 354.327 73.8709 353.628 73.9108C361.32 73.8895 403.115 76.213 395.392 118.71C387.518 162.04 336.177 160.378 311.491 154.131C332.759 160.528 375.256 178.267 375.098 198.038C374.901 222.752 273.637 130.285 252.274 166.222C255.971 194.897 371.159 263.156 375.099 299.133C383.088 372.096 277.938 408.67 268.79 387.855Z" fill="#97DF02"></path>
</svg>
