<svg xmlns="http://www.w3.org/2000/svg" width="435" height="389" fill="none">
  <path stroke="none" fill="#5B9DFF" d="m158.41389,254.94454c-12.312,-79.26627 -33.182,-230.70447 -18.161,-202.33194c15.02,28.37252 22.803,58.38818 24.817,69.84943c-3.878,-36.28868 -8.029,-108.27518 6.394,-105.91171c14.423,2.36348 18.985,-1.07373 19.463,-3.08772c0.95,-5.70283 8.746,-16.24259 32.334,-12.77912c29.484,4.32933 16.506,17.01613 29.313,22.88097c12.807,5.86485 27.646,10.80715 24.378,24.58308c4.468,15.5459 14.202,-29.30846 28.918,-26.39494c14.716,2.9136 57.95,34.60373 42.006,64.88203c-12.755,24.2232 -30.718,97.65745 -38.106,131.34636c15.914,-9.77821 56.736,-30.57385 92.711,-35.52487c44.97,-6.1894 34.74,29.29391 -4.151,45.51751c31.827,9.73499 56.29,7.21585 16.289,39.57828c-40.001,32.3616 4.658,37.67167 -20.997,49.03401c-25.655,11.36317 -22.262,70.92258 -67.113,60.05809c-44.852,-10.86533 -225.29,17.68223 -281.7521,11.19196c-56.4623,-6.49027 -25.4964,-46.60962 -1.2054,-48.40402c1.5229,-0.11303 2.6453,-0.17786 3.4139,-0.21443c-8.4585,0.01912 -54.41549,-2.10192 -45.92335,-40.89811c8.65875,-39.55667 65.11235,-38.03986 92.25685,-32.33584c-23.3861,-5.84116 -70.1151,-22.03485 -69.9418,-40.08444c0.2165,-22.56095 111.5649,61.85332 135.0569,29.0454z"></path>
</svg>
