<svg width="677" height="642" viewBox="0 0 677 642" fill="none" xmlns="http://www.w3.org/2000/svg" xmlns:xlink="http://www.w3.org/1999/xlink">
<path d="M397.079 243.169C407.302 160.086 401.472 -4.84271 296.361 0.109044C214.96 5.80699 204.309 150.571 209.159 222.24C158.784 182.828 49.9423 117.302 17.5774 170.492C-22.8786 236.979 -0.822708 308.614 179.895 384.179C65.2856 415.258 -85.4558 653.365 108.175 641.315C263.08 631.675 331.471 494.531 346.303 427.164C422.253 598.152 734.1 760.154 620.432 498.196C580.749 406.743 488.769 371.58 447.74 365.43C548.724 321.104 732.569 216.979 660.07 155.09C587.572 93.2016 454.535 188.023 397.079 243.169Z" fill="#6A67DB"></path>
</svg>
