<svg width="15" height="17" viewBox="0 0 15 17" fill="none" xmlns="http://www.w3.org/2000/svg">
<path d="M1.5 7C2.32843 7 3 6.32843 3 5.5C3 4.67157 2.32843 4 1.5 4C0.671573 4 0 4.67157 0 5.5C0 6.32843 0.671573 7 1.5 7Z" fill="#F2AA66"/>
<path d="M4.45942 8.19293V15.9994H7.19592V12.1389C7.19592 11.1203 7.41229 10.1338 8.83826 10.1338C10.2446 10.1338 10.262 11.2984 10.262 12.2032V16H13V11.719C13 9.61608 12.4889 8 9.71388 8C8.38157 8 7.48852 8.64759 7.12332 9.26045H7.08629V8.19293H4.45942ZM0 8.19293H2.74085V15.9994H0V8.19293Z" fill="#F2AA66"/>
</svg>
