<svg width="188" height="219" viewBox="0 0 188 219" fill="none" xmlns="http://www.w3.org/2000/svg">
<path d="M138.161 44.1619L139.342 44.5984L139.891 43.155L140.21 43.0567L140.311 42.1372L140.971 40.3854L141.045 39.897L141.312 39.6323L141.604 39.1493L141.774 39.092L141.967 38.8901L142.027 38.3389L142.101 38.1943L142.524 38.0142L143.122 37.6131L143.168 37.5257L143.474 37.4466L143.856 37.081L143.88 36.8272L144.611 36.6853L145.34 36.4479L145.727 36.4534L146.09 36.3606L147.261 36.8709L147.564 36.8872L147.853 37.4466L147.837 37.5912L148 37.5967L148.639 38.7127L148.95 39.5804L149.498 39.343L149.602 39.3594L149.79 39.6814V39.9543L149.924 40.4782H150.284L150.841 40.9666L151.056 41.2531L151.25 41.3268L151.539 42.1235L151.73 42.2736L151.829 42.612L152.014 42.7048L152.025 43.1986L153.807 42.3882L154.549 42.1863L156.342 42.2818L156.683 42.511L156.899 42.8194L158.757 44.7267L159.611 45.709L160.293 46.3475L162.754 49.1553L164.809 51.2237L166.04 52.9209L168.277 56.3017L168.329 56.2881L168.695 56.6646L169.606 56.9075L168.381 59.8845L169.407 59.9936L169.54 60.4984L169.701 60.4848L170.34 61.4207L170.452 61.4616L170.621 61.7045L170.738 61.7399L170.913 61.6417L170.962 61.669L170.853 62.0046L170.815 62.4112L171.683 62.3675L170.779 64.414L170.785 65.219L170.021 76.12L170.056 76.2837L169.456 76.9932L169.191 76.8295L168.872 76.8431L168.173 76.674L167.955 76.5239L167.841 76.3547L167.317 76.3902L166.916 76.12L166.58 76.0136L166.282 76.3274L165.941 76.2919L165.655 76.5812L165.327 76.5402L164.926 76.6521L164.588 76.5048L164.503 76.4038L164.121 76.412L163.999 75.9781L163.532 75.8444L163.417 75.8635L163.199 75.7025L162.517 75.7735L162.209 75.517L161.747 75.8008L161.401 75.7871L161.256 75.8499L160.615 75.6098L160.44 75.6507L159.996 75.9208L159.346 75.8144L159.21 75.6589L158.765 75.708L158.62 75.5798L158.388 75.5661L158.064 75.6316L157.818 75.7653L157.676 75.9918L157.283 75.8499L157.046 76.0273L156.956 75.899L156.574 76.0627L155.987 76.6876L155.815 76.9495L155.409 77.1487L155.245 77.4407L154.748 77.4107L154.904 76.9714L154.817 76.824L155.095 76.5184L155.032 76.3765L154.942 76.3465L155.163 75.8444L153.69 75.3314L151.062 74.0817L148.306 74.7011L147.951 74.9003L146.661 75.9645L146.631 76.0982L146.726 76.9223L146.86 77.3206L146.98 78.5103L146.917 78.6331H146.816L146.794 78.4831L146.696 78.4749L146.622 78.2975L146.429 78.2839L146.311 78.0656H146.038L145.779 77.951L145.504 77.9373L145.414 78.0137L145.086 77.9783L145.037 77.8664L144.857 77.7954L144.865 77.6181L144.674 77.5171L144.508 78.0437L144.369 78.1911L143.894 78.333L143.64 78.292L143.381 78.1283L143.236 77.9428L143.25 77.6672L143.132 77.5526L143.086 77.3916L142.966 77.6099L142.707 77.8009L142.677 77.9646L142.551 78.0656L142.161 77.8664L142.025 78.1147L141.613 78.101L141.506 78.2839L141.116 78.4912L141.056 78.4749L141.018 78.2784H140.909L140.75 78.0656L140.728 77.8364L140.6 77.6181L140.641 77.3261L140.456 77.0641L140.385 76.7176L140.112 76.3765L140.155 76.2837L139.964 76.1419L139.831 76.1555L139.743 76.0627L139.719 75.9154L139.326 75.6807L139.217 75.5388L138.881 75.4188L138.562 75.1322L138.548 74.813L138.666 74.6711L138.518 74.4173L138.259 74.431L137.724 74.6847L137.394 74.7066L137.239 74.9358L137.094 74.9549L136.968 74.8839L136.704 74.5238L136.545 74.5019L136.354 74.7421L136.237 74.7639L136.019 74.622L135.871 74.4228L135.563 74.401L135.309 74.21L135.08 73.8252L134.843 73.847L134.515 73.6833L134.469 73.5851L134.346 73.6288L133.959 73.4077L133.912 73.2222L133.568 73.3504L133.337 73.3586L133.105 73.6779L132.551 73.6124L132.447 73.4923L132.114 73.6288L131.907 73.2004L131.765 73.0667L131.71 73.1021L131.563 73.0093L131.295 72.6546L131.074 71.8879L130.586 70.821L129.713 68.5725L129.909 68.2314L130.002 68.166L130.995 67.9258L131.833 67.5056L131.885 67.1618L133.293 65.6037L133.012 65.32L132.193 64.193L131.885 64.0211L130.354 62.2393L130.139 61.9555L130.043 61.6772L129.713 61.2488L131.533 59.8435L133.345 58.6784L134.493 57.0794L135.042 56.6455L135.241 56.258L135.555 56.0589L135.828 56.037L137.601 56.2089L138.958 57.6006L141.514 55.7723L143.021 52.9209L140.196 48.5332L140.385 46.0965L137.809 45.1224L138.161 44.1619Z" fill="#E46EC3" stroke="white" stroke-width="0.5"/>
<path d="M99.752 84.4643L99.5801 84.4015L99.5665 84.2596L99.6538 84.1669L99.763 83.5993L100.325 82.2595L100.661 81.9266L101.373 81.5801L101.463 81.4164L101.455 81.2745L100.958 79.7437L98.5623 75.8853L98.6606 75.8144L101.075 79.6727L101.586 81.3236L101.477 81.6701L100.663 82.0521L100.41 82.3359L99.8366 83.7303L99.752 84.4643ZM112.042 62.4958L112.473 62.5804L112.814 62.916L113.109 62.7959L112.841 61.991L113.706 62.2556L115.27 63.8383L115.537 64.8724L115.698 64.7797L116.083 65.4646L116.667 65.9776L116.675 66.114H117.467L117.557 66.1767L118.067 66.2695L118.446 66.4551L119.292 67.039L119.546 67.3937L119.985 67.7703L120.244 67.934L120.4 67.9422L121.232 68.7335L121.388 68.9764L121.693 69.7649L122.13 71.2739L122.433 71.4294L122.58 71.6859V71.9342L122.667 71.926L122.809 72.0407L122.995 72.4527L123.003 72.701L122.891 72.8865L122.752 72.9084L122.506 73.2003L122.105 73.4787L121.617 74.0326L121.633 74.2754L121.737 74.3955L121.922 74.4173L121.928 74.3191L122.504 74.5456L122.801 74.5674L123.219 74.7093L123.906 75.3123L124.61 75.5033L125.123 76.0136L125.232 76.191L125.241 76.2974L125.017 76.5593L124.045 77.206L122.616 77.5171L122.55 77.6726L121.557 78.232L120.918 78.3111L120.703 78.0765L120.356 77.9428L117.813 78.5021L117.589 78.5949L117.472 78.7859L114.913 78.7777L114.896 80.6496L115.914 80.636L116.312 80.7069L118.151 82.6688L118.285 83.0727L118.626 85.0209L118.329 86.3443L118.061 86.7345L117.95 87.414L117.677 88.1644L117.682 88.2981L117.6 88.3826L117.297 88.2844L117.177 88.3417L116.574 89.4932L116.561 89.5724L116.806 89.9325L116.331 90.6256L116.241 90.9012L115.401 91.728L115.06 91.9326L114.14 92.7813L113.985 92.8249L113.933 92.9232L113.259 93.4662L113.147 93.458L112.983 93.3106L112.893 93.3325L112.869 93.4307L112.942 93.5644L112.721 93.7418L112.618 93.9191L112.307 94.1456L111.832 94.3366L111.469 94.6886L111.062 94.8087L110.661 94.8005L109.482 95.8101L109.275 95.5918L109.12 95.5427L108.05 96.0502L107.755 96.2903L107.556 96.0448L107.409 96.0229L106.784 96.1566L106.675 96.263L106.17 97.0462L104.74 101.464L104.451 102.252L104.293 102.479L99.4955 103.851L98.857 104.097L98.0193 103.379L95.8255 101.21L94.7859 100.181L93.517 99.3437L90.862 98.6752L87.8605 99.1882L87.5658 99.019L87.2493 98.6233L87.3093 98.566L87.2356 98.4323L87.5303 98.1649L87.1456 97.7993L87.0337 97.7911L86.9873 97.8484L86.9518 97.7856L87.0856 97.6383L87.1319 97.4473L87.0583 96.0802L86.6135 95.2343L86.6217 94.8169L88.0979 93.9273L88.3189 93.4198L90.2781 92.2628L90.7884 92.2492L90.9876 92.1428L91.1213 92.05L91.3859 91.5834L92.2591 91.0458L97.8365 87.1165L98.2731 87.0538L98.5405 86.8983L100.21 85.3975L100.292 85.1273L100.153 84.8872L100.129 84.5543L100.017 84.6171L99.8612 84.6089L99.8994 84.2323L100.063 84.1887L100.101 84.2951L100.153 84.1805L100.352 84.1232L100.554 83.9404L100.939 83.0481L101.22 82.6797L102.533 82.6006L102.715 82.5215L104.178 81.1244L104.224 81.0534L104.047 80.8624L104.197 80.7124L104.353 80.8543L104.287 80.9034L104.339 80.947L105.561 79.6918L108.451 78.8541L108.858 78.4912H108.983L109.412 78.0656L108.047 75.8662L107.275 75.2987L107.259 75.2359L107.417 75.1786L107.215 74.9167L106.942 74.9658L107.016 67.6775L109.9 62.9842L110.167 62.8205L111.873 62.6076L111.998 62.5858L112.042 62.4958Z" fill="#E46EC3" stroke="white" stroke-width="0.5"/>
<path d="M105.884 62.9734L105.911 63.0662L105.821 63.0744L105.436 62.9243L105.496 62.8588H105.747L105.884 62.9734ZM104.118 62.6541L103.927 62.5695L103.974 62.5341L104.116 62.5832V62.6541H104.118ZM98.8684 54.1871L98.8084 54.1161L98.852 53.9742L98.9257 54.0588L98.8684 54.1871ZM98.4918 51.3247L98.41 51.0873L98.4455 51.0382L98.5273 51.281L98.4918 51.3247ZM97.2667 45.4008L97.3786 45.6081L97.5395 45.6736L97.7333 45.6245L97.9625 45.8619L98.058 46.2849L98.339 46.8306L97.5068 46.7733L97.4168 46.5141L97.133 46.1048L97.0375 45.4662L97.062 45.4089L97.2667 45.4008ZM95.7495 45.4444L95.8068 45.6518L95.7686 45.7446L95.6186 45.6955L95.4412 45.8019L95.3211 45.7664L94.2024 46.0884L90.6578 49.2127L90.636 49.3983L90.4341 49.562L90.3359 49.491L90.1858 49.6138L90.385 49.693L90.5405 49.5702L90.5705 49.6056L90.4068 49.7421L90.1394 49.6629L88.6059 50.9945L88.4285 50.7571L89.932 49.4392L89.9075 49.2809L90.1066 49.1745L89.9457 49.3109L89.9729 49.4037L94.0086 45.8428L94.1915 45.7418L95.2884 45.4417L95.3157 45.3926L95.4548 45.4772L95.6186 45.4335L95.6568 45.368L95.7495 45.4444ZM84.4283 28.6631L85.5716 28.8787L85.6316 28.9141L85.6835 29.2389L85.4843 29.3616L85.3506 29.5499L85.1568 29.4626L85.2387 29.6127L85.0586 29.5417L84.7175 29.5281L84.0736 29.7082L83.7407 30.0465L83.2086 30.4149L82.4909 30.7451L80.8974 31.3072L80.1252 31.6892L80.0488 31.8611L80.3298 32.5378L80.248 32.6388L80.0024 32.6824L79.9287 32.7752L79.9069 33.1572L80.0242 33.2063L79.9424 33.4737L78.8891 33.9049L78.3024 34.5379L78.0377 34.6662L77.4538 34.6171L77.0882 34.6826L76.2969 35.1137L76.0813 35.1273L75.9394 35.0127L75.7266 34.6089L75.732 34.4015L78.1769 32.8543L78.548 32.5242L79.4621 31.4518L80.1197 30.9197L82.6574 29.1897L83.244 29.0233L84.1036 28.6631H84.4283ZM87.4653 29.9183L87.3261 30.1202L87.146 30.1502L86.9168 30.4449L86.8186 30.4804L86.6249 30.3876L86.382 30.4313L86.3875 30.2867L86.543 30.273L86.6331 30.1639L86.5212 29.962L86.3356 29.9047L86.7449 29.5008L86.7886 29.3917L87.187 29.1024L87.438 28.7777L87.5854 28.6849L87.8446 28.6713L87.9728 28.9305L87.9428 29.1461L87.7054 29.6154L87.4653 29.9183ZM89.5364 22.4881L89.5091 22.4308L89.6073 22.3162L89.5364 22.4881ZM132.775 21.2602L131.768 22.7283L131.803 23.6451L132.024 24.2945L132.172 24.5264L132.483 24.7857L133.907 25.1759L134.093 25.2768L134.254 25.5224L134.374 25.9781L134.565 26.21L134.868 26.1746L135.373 25.8198L136.09 25.9917L136.881 26.3383L136.652 28.3357L136.669 28.4012L137.075 28.4939L137.187 28.6658L136.933 28.9605L136.557 29.097L136.423 29.3125L136.401 29.5636L136.273 29.7136L136.221 30.0165L136.156 30.0684L135.82 29.9674L135.501 30.1557L135.424 30.9852L135.572 31.4109L135.55 31.6619H135.43L135.326 31.7711L135.214 31.6264L135.132 31.6346L135.021 31.8638L134.835 32.0303L134.857 32.2322L134.783 32.3823L134.521 32.4832L134.647 32.6633L134.619 32.7725L134.426 32.9307L134.486 33.1327L134.469 33.4847L133.722 33.6075L133.842 34.0604L134.196 34.3415L134.265 34.688L134.45 34.939L134.382 35.261L134.243 35.4193L134.177 35.6867L133.975 36.0251L133.694 36.2543L133.539 36.4998L133.28 36.5299L133.151 36.6172L133.091 36.9992L132.808 37.2721L132.739 37.5013L132.185 38.5218L132.065 39.2776L131.997 41.0949L132.769 42.0581L133.312 42.5384L134.734 42.754L135.926 42.7048L136.557 43.0432L136.873 43.3515L137.127 43.7526L138.164 44.1674L137.815 45.1279L140.388 46.102L140.202 48.5387L143.026 52.9264L141.52 55.7779L138.963 57.6061L137.607 56.2145L135.834 56.0426L135.561 56.0644L135.244 56.2636L135.045 56.6483L134.497 57.0849L133.348 58.6839L131.533 59.8463L129.716 61.2516L129.184 61.7018L128.66 62.0375L128.428 62.0593L128.213 62.1793L128.049 62.3513L127.855 62.3867L127.293 62.3212L126.805 62.5204L126.946 63.2326L126.859 63.3881L126.207 63.7865L125.841 63.9366L125.648 63.5437L125.156 63.6092L124.799 63.7292L124.665 63.8438L124.523 63.852L124.338 63.8165L124.117 63.6174L123.953 63.5819L123.751 63.0334L123.5 62.6623L123.366 62.1139L122.782 62.2421L122.591 62.3704L122.54 62.4768L122.586 62.7469L122.185 62.5832L121.978 62.6678L121.527 62.7251L121.511 62.8752L121.334 62.9597L121.399 63.0798L121.347 63.1589L121.339 63.5164L120.952 63.7729L120.73 64.1085L120.354 64.3432L120.19 64.5997L119.287 65.0281L119.08 65.0062L118.681 64.7934L118.479 64.8016L118.324 64.7088L117.917 64.7225L117.685 64.6024L117.516 64.7579H117.412L117.317 64.466L116.79 64.1658L116.725 64.0594L115.693 64.7798L115.532 64.8725L115.265 63.8384L113.701 62.2558L112.836 61.9911L113.104 62.796L112.809 62.9161L112.468 62.5805L112.037 62.4959L112.067 62.1903L111.958 62.3103H111.876L111.802 62.2176L111.669 62.3458L111.565 62.2394L111.581 62.0265L111.478 61.942L110.913 61.8574L110.389 61.8847L110.476 61.6363L110.419 61.6145L110.323 61.901L110.176 61.9283L110.168 62.0784L110.029 61.9638L109.709 61.9993L109.685 61.9065L109.513 61.77L109.617 61.6855L109.595 61.1998L109.112 60.8423L108.831 60.9132L107.958 61.5136L107.355 61.429L106.582 61.6063L106.479 61.8001L106.389 62.2639L106.293 62.3649L105.78 62.6651L105.163 62.7933L104.951 62.766L103.993 62.3949L102.206 61.5681L101.109 61.2407L100.825 61.2189L100.691 61.2843L100.661 61.4481L100.246 61.4835L99.6297 61.6909L99.245 61.5545L98.4427 61.0906L97.7824 60.3784L97.2257 59.9719L97.0047 59.7154L97.0729 59.5789L97.0429 59.508L96.841 59.4725L96.5436 58.9813L96.7455 58.804L96.8737 58.5475L97.3021 58.0536L97.9161 57.7753L98.0935 57.5979L98.5382 57.4751L98.7756 57.1395L98.8193 56.4109L98.732 56.2609L98.5901 55.2813L98.3527 54.9948L98.5819 54.7956L98.7292 54.8392L98.8411 54.7601L98.8193 54.6946L98.661 54.7083L98.6774 54.6428L98.8466 54.6291L98.9121 54.7137L98.9721 54.6482L98.9666 54.1489L99.0048 54.0998L99.0922 54.1925L99.0867 54.1134L98.953 53.9142L98.9366 53.7368L98.7975 53.786L98.7292 53.7423L99.0485 53.6632L99.0922 53.333L98.8602 52.468L98.7702 52.3671L98.6883 52.0587L98.7101 51.9086L98.6228 51.8595L98.5628 51.4802L98.5792 50.779L98.4673 50.6507L98.8438 50.0149L98.7538 49.8731L98.8575 49.2782L98.7483 49.3137L98.4755 49.1718L98.5273 48.8498L98.4073 48.7789L98.4509 48.6997H98.6065L98.6365 48.3996L98.6938 48.5005L98.7538 48.4869L98.6201 48.094L98.6965 47.4145L98.5683 47.8948L98.5464 48.4541L98.3827 48.5687L98.2708 48.446L98.2545 48.2031L98.0907 47.8593L97.9707 47.6656L97.6678 47.3927L97.5996 46.9697L97.6596 46.9124H97.9325L97.9843 47.098L98.1562 47.1062V46.9206L98.339 46.907L98.4727 47.1226L98.6719 47.0953L98.47 46.615L98.3145 46.4349L98.189 46.1566L98.1071 45.8346L98.1671 45.5918L98.1071 45.3053L97.7142 44.4512L97.6405 44.4157L97.4795 44.4512L96.3962 45.469L96.0933 45.6136L96.0197 45.75L95.8914 45.7364L95.7714 45.3353L95.8287 45.2698L95.9187 45.3271L96.1697 45.248L96.3389 45.1334L97.545 43.9655L97.6269 43.8509L97.7469 43.2697L97.6569 43.1114L97.6814 43.0241L98.38 42.6011L98.7483 42.1209L98.9939 41.2368L99.114 39.6269L99.2477 39.0239L99.234 38.721L99.0021 38.5927L98.9448 38.4345L99.1003 38.2762L99.1522 38.1261L99.4633 37.9542L99.5151 37.7741L99.4496 37.7305L99.7962 36.6745L99.9981 36.3007L100.17 35.7822L100.609 35.0782L101.256 34.5025L102.107 33.5392L102.462 33.3946L102.972 32.999L103.491 32.7043L103.589 32.5815L104.056 32.3223L104.479 31.8038L105.259 31.0834L105.521 30.3494L106.722 29.1379L107.938 28.5103L108.473 28.3957L110.097 27.7817L110.498 27.7026L110.885 27.5089L111.175 27.4952L111.641 27.1569L114.34 25.577L115.339 25.1868L115.745 24.9494L115.928 24.9139L116.045 24.7911L116.676 24.6247L117.172 24.2781L118.106 23.7597L118.763 23.5441L119.009 23.2767L119.47 23.1457L119.664 23.0229L119.197 22.3517L119.227 22.2862L119.347 22.4527L119.443 22.3517L119.524 22.5318L119.464 22.6246L119.71 22.9711L120.059 23.0284L120.327 22.8756L120.952 22.9629L122.196 22.5945L122.709 22.3626L123.235 22.2917L123.301 22.1552L123.418 22.278L124.062 22.1634L125.211 21.795L126.373 21.7023L127.492 21.5003L128.188 21.6886L128.264 21.5003L128.352 21.6886L128.534 21.4076L128.622 21.5386L129.02 21.5522L130.431 21.806L132.145 20.9955L132.434 20.9737L132.775 21.2602ZM104.053 18.6844L103.551 18.728L103.504 18.8153L103.578 18.9027L104.73 18.7444L104.901 18.7662L105 18.9627L104.871 19.462L104.206 19.844L104.004 19.9014L103.701 19.9668L103.619 19.9314L103.657 19.8741L103.611 19.8386L103.537 19.8959L103.439 19.8659L102.934 20.2561L102.178 20.6463L101.777 20.589L101.548 20.3789L101.518 20.559L101.63 20.7554L101.624 20.9928L101.204 20.8919L100.858 20.6381L100.62 20.5944L100.59 20.6872L100.642 20.7445L101.174 21.1211L101.843 21.3748L101.761 21.4758L101.633 21.383L101.515 21.4185L101.42 21.5276L101.502 21.5986L101.382 21.6777L100.975 21.7705L99.1904 21.7132L98.6201 21.7487L97.9461 21.9233L97.5914 22.0816L96.7782 22.9111L96.2734 23.2494L95.9787 23.364L95.7632 23.3777L95.3757 23.6587L94.8654 23.4704L94.7618 23.6724L94.4862 23.8088H94.2706L94.1451 23.9834L94.1069 24.1553L93.7194 24.1117L93.3183 23.9589L92.8872 24.1117L92.5106 23.9971L91.8366 24.5892L91.8066 24.5183L91.6347 24.4391L90.9225 24.5264L90.7424 24.772L90.7643 25.1186L90.7042 25.1704L90.7697 25.2932L90.6196 25.315L90.4559 25.1841H90.2786L90.2103 25.2932L89.9975 25.4078L89.7519 25.7407L89.5282 25.8498L89.3372 26.0872L88.8269 25.9645L88.1611 25.5388L88.1011 25.4378L87.981 24.8375V24.5428L88.2239 24.2399L88.9115 23.6342L89.3399 22.9984L89.5091 22.5727H89.5609L89.5145 22.7883L89.5882 22.7801L89.6346 22.5045L89.8201 22.2889L89.7983 22.2371L89.6319 22.2562L89.7574 22.1689L94.3525 21.3093L95.182 21.1074L95.2993 21.2084L95.5231 21.1784L99.7252 19.8113L99.9271 19.6094L100.77 19.372L103.379 18.3242L104.23 18.1659L104.683 18.1741L104.896 18.2178L104.97 18.3105L104.962 18.4688L104.88 18.5698L104.053 18.6844ZM127.167 17.7675L127.241 18.346L127.132 18.1577L127.004 18.3242L126.679 18.4824L126.54 18.6625L126.302 18.5479L126.212 18.1441L126.463 17.7757L126.799 17.8057L127.135 17.7266L127.167 17.7675ZM112.555 17.7512L114.867 17.6584L117.781 17.3255L118.397 17.4346L121.465 17.2764L123.066 17.3419L123.361 17.3937L123.544 17.5738L123.456 17.7484L123.295 17.8357L122.859 17.9285L121.844 17.893L121.467 17.9504L120.553 17.8712L119.947 18.1523L119.745 18.3187L119.058 18.4934L118.924 18.4797L118.567 18.6543L117.372 18.9136L117.303 18.9872L116.108 19.3201L115.309 19.2765L114.886 19.3502L114.842 19.3147L114.817 19.5685L114.73 19.6612L114.635 19.6094L114.711 19.5521L114.725 19.1974L113.871 19.1455L113.068 18.9436L112.632 18.9736L112.474 19.0827L112.334 19.4156L111.731 19.8795L111.079 20.076L110.716 20.2724L110.173 20.3025L110.165 20.5399L110.04 20.6408L109.789 20.5671L109.164 20.1469L108.555 19.8659L108.236 19.503L107.848 18.8808L107.835 18.447L108.02 17.5356L108.206 17.2245L108.413 17.0581L108.673 16.9653L109.087 16.9571L110.007 17.3255L111.521 17.6802L112.555 17.7512ZM131.009 14.1902L131.397 14.2639L131.82 14.6623L132.406 14.7633L133.05 14.7933L136.21 14.3594L137.968 14.193L139.545 14.1275L139.624 14.2503L139.556 14.4304L138.868 14.7851L138.459 14.9597L138.006 15.0389L137.029 15.5082L136.502 15.6037L136.213 15.9666L135.132 16.4741L134.849 16.5396L133.995 16.5615L133.001 16.7852L133.222 17.0526L133.206 17.1263L132.993 16.9953L132.898 16.8207H131.743L131.749 17.1017L131.659 17.1099L131.615 16.8343L131.32 16.8916L131.239 17.0799L131.127 17.1318L131.239 17.2846L130.87 17.2327L130.753 17.3255L130.87 17.4919L130.788 17.5574L130.772 17.6802L130.911 17.8767L130.652 17.9285L130.264 17.7839L130.035 17.8057L129.73 18.2178L129.588 18.2396L129.416 18.1659L129.402 18.1086L129.511 17.7975L129.585 17.1972L129.727 16.7061L130.038 16.0976L130.425 15.5328L131.269 14.7796L131.484 14.6923L131.419 14.5914L129.795 14.2148L129.476 15.0252L129.285 15.0389L129.195 14.9816L129.225 14.7196L129.522 14.032H130.054L131.009 14.1902Z" fill="#E46EC3" stroke="white" stroke-width="0.5"/>
<path d="M118.62 85.0157L119.207 84.7974L119.878 85.3922L120.451 86.1071L120.754 86.6228L121.204 87.5779L121.341 88.0172L121.668 87.8671L121.837 88.0227L122.386 87.6134L122.64 87.5506L123.014 88.0881L124.894 86.1426L125.36 85.9789L125.543 85.8315L125.663 85.6187L125.93 85.766L126.1 85.7879L126.929 86.44L127.205 87.1113L127.426 87.4442L127.77 87.7252L128.422 88.0172L128.79 88.462L128.907 88.8085L128.959 89.578L128.916 90.2438L129.082 90.4621L129.423 90.7158L130.064 91.6627L130.31 92.3694L130.335 92.6314L130.094 93.5618L129.903 93.9439L129.89 94.6069L129.797 94.8034L129.682 94.9316L128.894 95.2345L128.037 95.3982L127.865 95.6356L127.857 95.8894L127.936 96.0531L128.034 96.1377L128.378 96.2141L128.515 96.3287L128.575 96.4761L128.337 96.6725L127.901 96.8062L127.791 96.9918L127.849 97.704L127.789 98.3943L127.718 98.8937L127.546 99.1065L127.54 99.2457L127.969 99.303L128.116 99.6277L128.141 100.394L128.43 100.487L128.88 100.493L128.97 100.656L129.093 101.049L129.317 101.366L129.352 102.048L129.764 102.556L129.887 103.09L130.127 103.303L129.879 103.661V103.936L130.37 104.048L130.613 104.223L131.148 104.174L131.17 104.316L131.096 104.561L130.793 104.758L130.703 104.99L130.82 105.44L131.112 105.653L131.481 105.743L131.595 105.947L131.584 106.171L131.677 106.256L131.756 106.171L131.764 106.046L131.609 105.863L131.527 105.631L131.696 105.702L131.729 105.636L131.639 105.568L131.74 105.385L131.936 105.595L131.977 105.181L132.037 104.935L132.097 104.905L132.291 104.927L132.468 104.85L132.749 104.935L133.224 104.913L133.855 105.385L134.52 105.475L134.818 105.587L135.115 105.582L135.232 105.672L135.803 105.623L136.22 105.743L136.242 105.538L136.526 105.636L136.627 105.497L137.126 105.363L137.162 105.475L137.293 105.503L137.323 105.623L137.456 105.743L138.349 105.751L138.695 105.653L139.074 105.636L139.099 105.039L139.386 104.85L139.557 104.82L139.645 104.632L140.461 104.583L140.941 104.378L141.186 104.498L141.743 104.463L142.447 104.547L142.433 104.899L142.736 105.328L142.914 105.835L143.784 106.747L144.139 107.464L144.395 107.563L144.679 107.576L144.766 107.661L144.786 108.048L145.023 108.583L145.168 108.771L145.585 108.976L145.727 109.115L145.874 109.164L146.698 108.87L148.415 109.151L149.967 108.834L149.997 108.763L150.128 108.842L150.142 108.954L150.409 109.066L150.494 109.235L150.685 109.369L150.546 109.656L150.576 109.77L150.939 110.106L151.302 109.833L151.484 109.77L151.558 109.544L151.662 109.459L151.891 109.53L152.101 109.825L152.314 109.454L152.494 109.467L153.384 109.937L153.504 110.048L153.583 110.28L153.575 110.45L153.435 110.654L153.556 110.717L153.547 111.102L153.605 111.298L153.547 111.748L153.089 112.485L153.725 112.78L154.666 112.955L155.406 113.298L157.351 113.285L157.166 114.736L157.015 114.974L156.977 114.875L156.868 114.835L156.617 115.072L156.655 115.255L156.86 115.451L156.868 115.648L156.333 116.313L154.497 116.622L154.592 116.805L154.568 117.015L154.295 117.582L154.148 117.645L154.131 117.918L154.197 117.994L154.191 118.813H155.37L157.048 119.618L157.468 119.989L157.61 120.278L157.905 120.396L159.373 121.599L159.376 121.858L159.455 121.948L160.235 122.068L160.374 122.516L160.331 123.004L160.473 123.564L160.391 123.866L160.265 124.087L159.692 124.109L159.479 124.311L159.026 124.472L158.906 125.367L158.915 125.962L158.462 126.423L158.56 126.535L157.875 127.373L157.084 127.7L157.075 127.946L156.988 128.036L156.35 128.26L156.142 128.642L155.736 128.838L155.021 128.273L154.882 128.12L154.852 127.848L154.745 127.902L154.658 127.867L154.505 127.49L154.29 127.485L154.082 127.359L153.872 127.422L152.153 128.238L151.877 128.524L151.725 128.538L151.509 128.462L149.512 129.13L148.993 129.488L148.674 129.793L148.548 129.801L148.357 129.542L148.03 129.676L147.711 130.017L147.282 130.295L146.791 130.5L146.385 130.784L146.259 130.904L146.251 131.106L146.068 131.365L145.192 131.599L144.821 131.818L144.589 131.733L144.153 131.147L143.961 130.986L143.73 131.177L143.197 131.441L143.061 131.329L142.982 130.939L142.515 130.784L142.403 130.617L141.691 130.554L141.47 130.352L141.375 130.393L141.41 130.576L141.241 131.051L141.271 131.147L141.934 131.679L142.253 131.76L142.275 131.872L141.945 132.334L141.942 132.598L142.136 133.002L142.114 133.051L141.95 133.007L142.092 133.49L142.054 133.602L141.915 133.649L141.189 133.168L140.518 133.149L140.245 133.024L140.305 132.836L140.141 132.424L139.83 132.145L138.542 131.976L137.746 132.052L137.525 131.056L137.413 130.986L137.465 130.778L137.001 130.554L136.785 130.527L136.635 130.38L136.308 130.331L136.117 130.407L135.928 130.658L135.582 130.765L134.88 130.751L134.692 130.688L133.901 130.784L133.694 130.735L133.159 130.421L132.556 129.801L132.526 129.523L132.856 129.46L132.749 129.335L132.763 129.187L131.838 128.483L131.781 128.614L131.268 128.292L130.283 128.462L129.991 128.685L129.671 128.434L129.516 128.74L129.377 128.658L129.289 128.74L129.309 128.923L129.093 129.097L129.762 129.111L130.22 129.438L130.52 129.578L130.757 130.241L130.785 130.625L131.625 131.302L131.609 131.72L131.704 132.68L130.779 132.347L130.133 132.208L129.39 132.235L128.834 132.11L128.479 131.935L127.8 131.329L127.308 131.021L127.071 131.46L126.79 131.58L126.891 131.81L126.85 131.962L126.337 132.249L125.974 132.585L125.832 132.437L125.322 132.625L125.101 133.065L124.593 133.321L123.966 133.392L123.562 133.239L123.232 133.212L122.874 132.988L122.176 133.853L122.749 134.298L122.61 134.478L122.547 134.429L122.487 134.492L122.386 134.415L122.334 134.459L122.266 134.396L122.187 134.486L122.214 134.626L122.948 135.021L123.106 135.302L123.551 135.649L123.57 135.747L123.415 135.845L123.513 135.949L123.349 136.268L123.488 136.555L123.758 136.547L123.955 136.68L124.083 136.637L124.13 136.708L123.846 136.994L123.799 137.362L124.097 137.704L124.075 137.905L122.757 138.885L122.61 138.929L122.52 139.046L122.517 139.393H122.353L122.31 139.526L122.214 139.575L121.717 139.608L121.54 139.423L121.532 139.297L121.349 139.136L121.043 138.983H120.858L120.716 138.203L119.9 137.161L119.627 137.111L118.732 137.229L118.716 137.39L118.951 138.247L118.708 138.503L118.061 138.386L116.113 138.601L115.068 138.871L114.437 138.866L114.14 138.803L113.785 138.629L113.531 138.413L113.305 138.05L113.354 138.009L113.237 137.807L112.909 137.474L112.716 137.362L111.886 137.223L111.679 137.021L111.37 136.492L111.043 136.178L110.235 136.039L109.774 135.747L109.477 135.308L109.22 134.549L108.936 134.235L108.715 134.173L108.175 134.186L107.929 134.088L107.206 133.616L106.658 133.482L106.134 133.589L105.37 133.643L105.176 133.81L104.857 134.339L104.579 134.424L103.681 134.2L103.018 133.54L102.75 133.4H102.589L102.169 133.581L102.014 133.881L101.951 134.276L101.765 134.541L101.528 134.71L100.988 134.841L100.707 134.882L100.106 134.828L99.6752 134.647L99.2768 134.083L99.1404 133.993L98.7857 133.998L98.652 134.11L98.4364 134.5L97.9261 135.155L97.1757 136.429L96.9083 137.319L96.8674 138.233L96.701 138.525L96.4827 138.683L95.1183 139.311L94.2506 139.908L94.0487 139.922L93.4702 139.715L92.99 139.671L92.6844 139.777L92.3515 140.056L92.0759 140.146L91.7593 140.026L91.3118 139.625L91.0008 139.491L90.7552 139.464L89.7401 139.685L88.8833 139.477L88.3239 139.499L86.7986 139.886L86.7822 139.379L87.2816 138.961L87.4726 138.678L87.2707 138.503L87.1915 138.323L87.2107 138.045L87.3389 137.676L87.3089 137.474L86.3238 136.994L85.8872 136.541L85.6717 136.429L85.4097 136.388L85.1587 136.497L84.7385 136.945L84.4329 136.986L84.2773 136.923L83.898 136.506L83.707 136.102L83.4915 135.954L83.4969 135.761L83.396 135.657L82.239 135.128L81.9061 134.836L81.6742 134.271L81.4204 134.088L82.0671 134.102L82.3482 132.743L81.4204 132.617L81.1612 132.186L81.254 131.801L81.0957 131.294L81.2076 131.177L81.6987 131.608L82.7929 131.58L83.2104 131.747L83.3523 131.586L83.8407 131.392L84.0017 131.239L83.7043 131.056L83.5952 130.819L83.6634 130.582L84.0181 130.407L84.542 130.402L84.8422 130.232L85.1287 129.807L85.1751 129.466L85.2979 129.367L85.5543 129.447L85.8354 129.376L86.2993 129.488L86.3975 129.299L86.4766 128.704L87.0742 127.597L87.2789 127.692L87.2516 127.253L87.8055 126.45L87.77 126.276L87.8955 126.249L89.1425 123.872L89.7347 124.257L90.2886 124.377L90.5205 124.319L90.8289 124.047L91.2081 123.313L91.3937 123.083L91.7211 122.999L92.0622 123.201L92.567 123.725L93.0473 123.984L93.5957 124.131L94.2943 124.221L94.9628 124.669L95.3312 124.69L95.8578 124.423L96.2862 123.872L96.6273 123.635L96.9929 123.577L97.6205 123.711L98.0326 123.684L99.3887 123.165L99.9563 122.685L100.24 122.529L101.419 122.761L102.18 122.677L102.428 122.74L103.018 123.097L103.302 123.356L104.696 123.872L105.007 124.369L105.318 124.614L105.654 124.759L106.772 125.045L107.504 125.536L107.938 125.152L108.186 125.291L108.167 124.933L108.423 124.871L108.426 124.453L108.238 123.997L108.23 123.809L108.341 123.635L108.388 123.34L107.951 122.824L107.856 122.251L107.67 121.962L107.4 121.907L107.054 121.585L106.876 121.397L106.838 120.949L106.764 120.829L106.631 120.682L106.527 120.794L106.104 120.333L106.341 120.327L106.399 119.102L105.577 118.794L105.635 118.311L105.304 118.169L105.457 117.757L105.564 116.726L105.517 116.63L105.643 116.112L105.572 115.563L105.452 115.558L105.31 115.388L105.274 114.884L105.111 114.772L105.193 114.575L105.119 114.174L104.827 114.218L104.849 114.352L104.756 114.371L104.644 114.24L104.259 114.338L104.289 114.518L104.42 114.562L104.423 114.66L104.532 114.75L104.412 115.031L104.644 115.094L104.622 115.277L104.592 115.416L104.243 115.312L104.104 115.558L104.39 115.675L103.976 116.117L103.615 116.041L103.233 116.068L103.122 116.447L102.614 116.453L102.248 116.581L101.506 116.139L101.479 116.005L101.307 115.964L101.225 115.871L101.692 115.277L102.314 114.884L102.257 114.155L102.633 113.789L102.655 113.656L102.352 113.459L103.244 113.552V113.454L103.064 113.356L103.072 113.115L102.862 113.047L102.663 112.802L102.761 112.821L102.821 112.428L103.293 112.36L103.504 111.953L102.922 111.664L102.892 111.56L102.974 111.151L102.529 111.137L102.18 110.984L102.24 110.512L102.117 110.471L102.145 110.324L101.864 110.204L101.842 110.098L100.194 109.874L99.506 109.628L99.5415 109.374L99.4706 108.954L99.3287 108.812L99.5142 108.665L99.8389 108.763L100.016 108.616L100.128 108.076L100.115 107.661L98.3491 106.22L98.8457 104.084L99.4842 103.838L104.281 102.465L104.442 102.239L104.731 101.45L106.161 97.0327L106.666 96.2496L106.772 96.1459L107.4 96.0095L107.547 96.0313L107.744 96.2796L108.039 96.0395L109.108 95.5319L109.264 95.5811L109.471 95.7994L110.65 94.7897L111.051 94.7979L111.458 94.6779L111.821 94.3231L112.295 94.1349L112.606 93.9084L112.71 93.731L112.931 93.5564L112.857 93.42L112.882 93.3217L112.975 93.2999L113.138 93.45L113.25 93.4554L113.924 92.9124L113.976 92.8142L114.132 92.7705L115.051 91.9246L115.392 91.72L116.233 90.8932L116.323 90.6176L116.8 89.9245L116.552 89.5643L116.566 89.4852L117.171 88.3337L117.291 88.2764L117.594 88.3774L117.676 88.2928L117.671 88.1564L117.944 87.4087L118.056 86.7293L118.323 86.3391L118.62 85.0157Z" fill="#E46EC3" stroke="white" stroke-width="0.5"/>
<path d="M158.633 17.9176L158.811 18.0322L159.013 18.0104L159.566 17.4974L159.708 17.4455L160.459 17.7484L160.549 18.0022L160.532 18.2041L160.442 18.3569L159.692 18.2041L159.662 18.3405L160.336 18.507L160.29 18.7034L159.94 18.638L159.897 18.7526L160.467 18.889L160.762 18.8535L161.086 18.9408L161.116 18.7962L160.767 18.7307L160.699 18.6516L160.882 17.9585L161.728 18.2259L162.683 19.1373L162.661 19.4784L162.32 20.4389L162.273 21.4512L162.516 21.6968L162.901 22.3544L162.784 22.5427L162.939 22.6082L162.996 22.7391L162.939 23.4977L163.185 24.2345L163.171 24.581L163.414 25.6561L163.504 25.8089H163.777L164.563 26.5074L164.746 26.7448L164.961 26.7748V26.8976L164.8 26.9331L164.705 27.2796L165.155 27.4243L165.272 27.5907L165.419 27.5689L165.946 27.7626L166.088 27.8718L166.325 27.8636L166.555 27.9345L167.242 28.2674L167.471 28.3193L167.769 28.5921L168.074 28.7722L168.781 29.0451L169.346 29.0233L169.622 29.116L169.725 29.2306L171.002 29.2006L171.182 28.9414L171.674 28.8486L171.835 28.6685H171.952L171.96 28.8568L171.843 28.8923L171.581 29.2443L171.327 29.438L171.237 30.0793L171.313 30.5895L170.967 31.5473L170.989 31.8202L171.144 31.8993L171.166 32.1012L171.292 32.2458L171.603 32.3959L171.712 32.5241L171.884 32.546L171.963 32.6961L172.519 32.7179L172.721 32.6469L172.727 32.7615L172.779 32.7752L173.455 32.8052L173.895 33.1299L174.405 33.2663L174.702 33.1517L175.104 33.4546L175.614 33.5474L175.731 33.6484L176.512 33.8421L176.58 33.9076L176.662 33.8366L176.602 33.6702L176.73 33.3537L176.877 34.3687L176.861 34.6934L177.041 35.2392L177.098 36.5271L177.033 36.7427L176.76 37.0592L176.692 37.2393L177.486 37.8205L177.499 37.9869L176.825 38.2898L176.468 38.3035L176.007 39.1794L175.993 39.3595L175.881 39.5832L175.865 40.2736L175.592 40.7756L175.442 40.8766L175.614 42.0745L176.391 42.6475L176.301 45.0351L176.864 49.7721L177.085 50.3369L176.735 50.7735L175.666 54.5145L175.6 54.9374L172.288 60.4302L171.57 61.3498L171.474 61.5572L171.69 62.3621L170.822 62.4058L170.86 61.9992L170.97 61.6636L170.923 61.6363L170.746 61.7373L170.629 61.7018L170.459 61.459L170.347 61.4153L169.709 60.4821L169.548 60.4957L169.414 59.9882L168.386 59.8818L169.611 56.9048L168.699 56.662L168.334 56.2827L168.282 56.2963L166.044 52.9155L164.814 51.221L162.759 49.1527L160.298 46.3449L159.616 45.7063L158.762 44.724L156.906 42.8167L156.69 42.5083L156.349 42.2791L154.557 42.1864L153.814 42.3883L152.03 43.1987L152.022 42.7048L151.836 42.612L151.738 42.2737L151.547 42.1236L151.258 41.3268L151.064 41.2559L150.848 40.9694L150.292 40.4809H149.934L149.801 39.957V39.6842L149.61 39.3622L149.506 39.3486L148.957 39.5859L148.646 38.7155L148.008 37.6022L147.844 37.594L147.86 37.4494L147.571 36.8873L147.268 36.8736L146.098 36.3634L145.735 36.4562L145.347 36.448L144.619 36.6854L143.89 36.83L143.866 37.081L143.486 37.4467L143.181 37.5258L143.134 37.6131L142.54 38.017L142.117 38.1971L142.043 38.3417L141.983 38.8956L141.789 39.0975L141.62 39.1548L141.325 39.6351L141.058 39.8997L140.984 40.3882L140.324 42.14L140.226 43.0595L139.906 43.1605L139.358 44.6012L138.174 44.1646L137.137 43.7499L136.883 43.3488L136.567 43.0404L135.936 42.7021L134.744 42.7512L133.322 42.5356L132.779 42.0554L132.007 41.0922L132.075 39.2749L132.195 38.519L132.749 37.4985L132.817 37.2693L133.101 36.9964L133.161 36.6144L133.289 36.5271L133.549 36.4971L133.704 36.2515L133.985 36.0223L134.187 35.6839L134.253 35.4165L134.392 35.2583L134.452 34.9336L134.266 34.6825L134.198 34.336L133.843 34.0549L133.723 33.602L134.471 33.4792L134.487 33.1272L134.427 32.9253L134.621 32.767L134.648 32.6579L134.523 32.4778L134.785 32.3768L134.858 32.2267L134.837 32.0248L135.022 31.8584L135.134 31.6291L135.216 31.621L135.328 31.7656L135.431 31.6564H135.551L135.573 31.4054L135.426 30.9797L135.502 30.1502L135.822 29.9619L136.157 30.0629L136.223 30.011L136.275 29.7082L136.403 29.5581L136.425 29.307L136.558 29.0915L136.935 28.955L137.189 28.6604L137.077 28.4884L136.67 28.3957L136.654 28.3302L136.883 26.3328L136.092 25.9863L135.374 25.8144L134.869 26.1691L134.566 26.2046L134.375 25.9726L134.255 25.5169L134.094 25.2713L133.909 25.1704L132.484 24.7802L132.173 24.521L132.026 24.289L131.805 23.6396L131.77 22.7228L132.776 21.2547L132.932 21.1674L133.156 21.1456L133.229 21.2165L133.148 21.3093L133.169 21.4185L133.341 21.4267L134.981 20.9437L135.401 20.9137L135.764 21.0228L137.18 21.8169L137.396 21.9615L137.759 22.5045H137.824L138.449 22.1143L138.94 21.6722L140.253 21.0719L141.475 20.6026L143.29 20.2997L148.657 19.6858L149.953 19.3092L150.717 19.0063L151.375 18.6434L152.592 18.1577L154.633 17.4919L156.576 17.2518H157.045L158.137 17.6065L158.633 17.9176ZM142.078 13.3443L142.28 13.3798L142.259 13.5599L141.672 13.4808L141.211 13.5108L141.151 13.3962L141.227 13.2734L141.47 13.2516L142.078 13.3443ZM149.787 12.9241H150.041L150.087 12.976L150.065 13.0551L149.918 13.1206L149.953 13.2652L149.907 13.317L149.312 13.0988L149.214 12.946L149.252 12.8313L149.541 12.7959L149.787 12.9241ZM151.069 11.6908L151.091 11.7781L151.039 11.8354L150.646 11.7044L150.431 11.7563L150.406 11.9091L150.66 12.1274L150.646 12.2856L149.762 11.8654L149.585 11.8299L149.064 11.9309L148.96 11.7945L148.977 11.6798L149.23 11.3742L149.506 11.2951L150.439 11.3961L151.069 11.6908ZM145.754 11.5161L146.147 11.5461L146.452 11.6771L147.192 12.2938L147.184 12.3948L147.036 12.4166L146.48 12.2365L146.308 12.2665L146.084 11.9909L146.032 11.9991L145.942 12.1219L146.024 12.4111L145.942 12.5639L145.511 12.5721L145.296 12.4875L145.064 12.6458L145.227 12.8341L145.197 12.9923L144.984 13.137L144.605 13.0278L144.411 12.8695L144.316 12.2965L143.806 11.9336L143.628 11.6662L143.601 11.1368L143.838 10.4492L144.002 10.471L144.188 11.1014L145.754 11.5161Z" fill="#E46EC3" stroke="white" stroke-width="0.5"/>
<path d="M118.707 138.503L118.95 138.246L118.715 137.39L118.732 137.229L119.627 137.111L119.9 137.16L120.715 138.203L120.857 138.983H121.043L121.349 139.136L121.531 139.297L121.54 139.423L121.717 139.608L122.214 139.575L122.309 139.526L122.353 139.392H122.516L122.593 139.783L124.238 139.824L124.721 140.178L125.646 140.577L125.897 140.833L126.034 141.161L126.121 141.223L126.216 141.139L126.424 141.3L126.446 141.409L126.367 141.611L126.025 141.57L125.927 141.611L125.712 141.745L125.66 141.944L125.736 142.405L125.905 142.604L125.935 142.82L125.949 143.063L125.742 143.314L125.845 143.737L125.815 144.023L125.919 144.28L126.263 144.501L126.855 144.667L127.87 145.071L127.93 145.196L128.189 145.106L128.288 145.183V145.3H128.664L129.554 145.521L129.545 145.947L129.412 146.162L129.316 146.209L129.065 147.216L128.989 147.229L128.738 147.999L128.574 147.922L128.577 148.43L128.457 149.019L129.125 149.491L129.753 150.032L130.023 150.55L130.49 151.063L131.191 151.68L131.458 152.007L131.868 153.03L132.209 153.704L132.645 153.994L133.134 154.43L133.75 155.511L133.742 156.954L133.958 157.44L134.181 158.305L133.98 159.77L133.993 160.038L133.819 160.054L133.767 160.136L133.75 161.386L133.426 163.285L134.282 163.244L134.277 163.367L133.772 164.196L134.282 165.956L132.749 167.37L132.733 167.465L132.855 167.776L131.81 168.003L131.799 168.243L131.562 168.513L131.423 168.81L131.406 169.127L131.207 169.443L131.185 169.705L130.711 170.428L130.11 171.192L129.867 171.763L129.837 171.992L128.197 173.801L127.624 174.153L128.236 175.457L128.181 175.561L127.695 175.534L127.472 175.643L127.458 175.741L127.581 176.489L127.731 178.257L128.116 179.005L128.391 179.095L128.85 179.114L128.975 178.991L129.139 178.964L129.423 178.778L129.835 178.344L131.682 177.452L131.958 177.61L132.4 178.009L130.623 178.833L130.571 178.915L132.059 179.842L132.091 179.951L131.562 180.317L131.54 180.604L131.371 180.598L131.254 180.666L130.902 180.631L130.2 180.893L130.064 180.825L129.867 180.934L129.742 181.119L129.139 181.428L128.481 181.545L128.315 182.012L128.214 182.066L128.241 182.279L128.14 182.298L128.017 182.148L127.968 182.41L127.821 182.47L127.685 182.642L127.188 182.8L127.011 182.923L126.953 183.272L126.418 183.892L125.919 184.274L125.439 184.418L125.248 184.301L125.182 184.467L124.989 184.495L124.817 184.754L124.306 185.147L124.047 185.665L123.646 185.81L123.717 186.031L123.488 186.394L123.25 186.598L123.272 186.776L123.171 186.961L123.231 187.111L123.155 187.251L123.163 187.709L122.888 187.886L122.68 187.933L122.762 188.318L122.598 188.372L122.475 188.249L122.126 188.241L121.799 188.358L121.731 187.996L121.31 187.406L121.029 186.489L120.8 186.222L119.84 187.111L118.699 187.27L118.775 187.695L119.291 188.326L119.22 188.667L119.073 188.68L119.048 188.803L119.324 189.502L119.58 189.824L120.036 190.037L120.025 190.44L120.426 190.618L120.323 191.098L120.366 191.589L119.921 192.083L120.123 192.479L120.434 192.498L121.13 192.22L121.69 191.775L122.541 191.584L122.606 191.597L122.688 191.78L123.016 192.007L123.119 192.192L123.384 192.129L123.482 192.026L123.747 191.925L125.619 191.862L125.676 191.993L125.188 193.259L125.092 193.415L124.759 193.682L125.256 193.99L125.24 194.296L125.382 195.248L126.358 195.527L126.522 195.658L126.754 195.576L126.942 195.753L126.893 196.089L127.455 196.149L127.649 196.012L127.775 196.026L128.154 196.149L128.389 196.408L128.5 196.198L128.642 196.13L128.582 196.403L128.318 196.58L128.263 196.79L128.086 196.962L127.791 198.081L127.865 198.463L128.184 198.921L128.391 199.426L128.279 199.584L128.211 199.925L128.099 199.98L128.058 200.108L127.873 200.321L127.745 201.241L127.54 201.213L127.041 200.886L126.953 200.599L125.75 201.208L125.461 201.309L125.365 201.29L125.335 202.236L125.482 202.46L125.603 202.515L125.597 202.646L125.774 203.055L125.624 203.183L125.545 203.178L125.619 203.388L125.218 203.778L124.986 204.152L124.885 204.212L124.678 204.267L124.514 204.117L124.222 203.98L124.044 203.784L123.87 203.756L123.662 203.915L123.444 204.253L123.409 204.662L123.963 204.826L124.298 205.08L124.476 205.473L125.676 206.209L125.684 206.319L125.395 206.883L125.248 207.006L125.433 207.448L125.231 207.44L124.585 207.59L123.72 207.563L123.564 207.503L123.529 207.244L123.349 207.039L122.888 206.93L121.638 207.331L121.286 207.631L120.964 207.735L120.939 207.462L120.844 207.435L120.473 207.476L120.282 207.707L119.755 207.325L119.76 206.938L119.597 206.482L118.568 207.012L118.115 207.481L118.039 207.462L117.853 206.802L117.283 207.17H116.86L116.582 207.317L116.281 207.38L115.577 206.387L115.261 206.564L115.201 206.542L114.835 205.576L114.401 205.65L113.52 206.665L113.288 207.094H112.797L112.434 206.842L112.205 207.129L111.725 207.211L111.479 207.44L111.195 207.394L111.048 207.271L110.835 207.265L110.87 207.006L111.419 206.256L111.626 205.609L111.607 205.432L111.233 204.662L111.242 204.52L111.525 204.117L111.517 203.988L111.272 203.601L110.693 203.552L110.625 203.279H110.379L110.27 203.164L110.025 203.192L109.675 203.028L109.618 202.938L109.675 202.842L109.64 202.714L109.468 202.515L109.364 202.556L109.446 202.196L109.143 201.814L109.217 201.704L109.078 201.636L109.07 201.418L108.971 201.276L109.009 201.058L109.086 200.976L109.009 200.73L109.113 200.553L109.07 200.231L109.108 200.157L109.026 200.04L109.337 199.775L109.173 199.571L109.285 199.42L109.498 199.385L110.262 198.902H110.625L110.78 198.444L111.168 198.094L111.31 197.884L111.405 197.098L111.539 196.899L111.866 196.831L112.317 197.09L112.54 196.976L112.674 196.722V196.217L112.8 195.84L113.318 195.186L113.561 194.422L114.03 194.187L114.019 193.9L113.902 193.655L113.76 193.524L113.457 193.469L113.111 193.772L112.783 193.854L112.489 193.696L112.45 193.346L113.021 192.67L113.171 192.288L113.637 192.026L114.052 191.33L114.306 191.103L114.407 190.918L114.45 190.749L114.41 190.091L114.808 189.352L114.835 189.18L114.661 188.88L114.104 188.648L114.052 188.449L114.341 187.976L114.631 187.278L114.666 186.604L114.732 186.495H114.972L115.49 186.77L115.749 186.716L115.858 186.577L115.869 186.394L115.714 185.804L115.818 185.624L116.044 185.447L116.074 185.324L115.965 185.062L115.689 184.721L115.673 184.514L115.918 184.274L116.254 184.186L116.89 184.44L117.179 184.186L117.231 184.069L117.291 183.679L117.114 183.417L116.942 183.343L116.47 183.335L116.26 183.212L116.2 182.945L116.268 182.696L116.882 181.943L117.037 181.867L117.602 181.799L117.801 181.174L118.224 180.879L117.419 180.254L117.477 180.014L117.294 179.861L117.269 179.643L117.07 179.493L116.914 179.245L116.562 179.575L116.478 179.842H116.374L116.142 179.616L116.06 179.608L115.891 179.85L115.689 179.965L115.496 179.979L115.127 180.29L114.895 180.35L114.792 180.096L114.835 179.946L114.963 179.807V179.602L114.835 179.575L114.822 179.417L114.622 179.458L114.576 179.253L114.579 179.136L114.86 179.054L114.895 178.983L114.682 178.936L114.792 178.565L114.39 178.153L113.85 178.05L113.474 177.823L113.302 177.959L113.263 178.063L113.102 177.981L112.922 178.09L112.74 178.022L112.68 178.104L112.317 178.112L111.981 178.372L111.64 178.249L111.569 178.167L111.405 178.145L111.367 178.227L111.258 178.221L111.113 178.071L110.581 178.227L110.513 178.099L110.357 178.022L110.016 177.995L109.779 178.055L109.506 177.616L109.492 177.501L109.596 177.425L109.498 177.185L108.993 176.923L105.705 175.583L106.966 175.198L106.958 175.348L108.054 174.797L108.254 173.615L108.319 171.929L110.24 169.195L119.01 166.458L121.545 164.286L118.928 159.825L118.421 156.941L118.091 156.097L117.455 151.715L119.747 152.165L120.473 152.741L121.894 152.594L123.22 152.165L124.735 151.543L125.261 151.963L125.796 152.629L126.047 152.386L126.129 152.373L126.255 152.476L126.38 152.359L126.492 152.345L126.508 152.269L126.309 152.04L126.181 151.751L126.176 150.585L125.723 149.92L125.594 149.6L125.534 149.131L125.559 148.484L125.422 148.012L124.336 146.951L123.387 146.37L123.261 146.231L123.193 145.884L123.521 145.224L123.529 144.904L123.253 144.779H122.784L122.628 144.621L122.609 144.383L122.95 143.857L122.65 142.661L122.557 141.821L122.391 141.668L121.769 141.404L120.574 141.243L120.314 141.18L119.85 140.951L119.55 140.569L119.458 139.845L119.258 139.024L118.707 138.503Z" fill="#E46EC3" stroke="white" stroke-width="0.5"/>
<path d="M81.4212 134.088L81.6749 134.268L81.9069 134.833L82.2398 135.125L83.3967 135.654L83.495 135.758L83.4895 135.952L83.7051 136.099L83.8961 136.503L84.2753 136.92L84.4309 136.983L84.7365 136.942L85.1567 136.497L85.4077 136.386L85.6724 136.426L85.888 136.538L86.3246 136.991L87.3096 137.472L87.3396 137.673L87.2114 138.042L87.195 138.32L87.2742 138.5L87.4761 138.675L87.2851 138.959L86.783 139.376L86.7994 139.884L88.3247 139.493L88.8868 139.472L89.7409 139.679L90.7559 139.455L91.0015 139.483L91.3126 139.614L91.7628 140.017L92.0793 140.135L92.3549 140.045L92.6878 139.766L92.9935 139.663L93.4737 139.704L94.0522 139.911L94.2541 139.897L95.1218 139.3L96.4861 138.675L96.7017 138.514L96.8709 138.222L96.9091 137.311L97.1765 136.421L97.9269 135.147L98.4371 134.492L98.6527 134.102L98.7864 133.99L99.1411 133.982L99.2803 134.072L99.6787 134.636L100.11 134.817L100.71 134.871L100.991 134.83L101.531 134.696L101.769 134.53L101.954 134.265L102.02 133.867L102.175 133.567L102.596 133.387H102.757L103.024 133.526L103.69 134.189L104.588 134.413L104.863 134.328L105.182 133.799L105.376 133.632L106.14 133.578L106.664 133.474L107.213 133.605L107.938 134.08L108.184 134.178L108.724 134.164L108.945 134.227L109.229 134.541L109.483 135.3L109.78 135.739L110.241 136.031L111.049 136.17L111.376 136.484L111.682 137.013L111.889 137.215L112.719 137.354L112.913 137.466L113.24 137.799L113.358 138.001L113.311 138.042L113.535 138.405L113.789 138.62L114.143 138.795L114.441 138.858L115.071 138.866L116.116 138.593L118.064 138.377L118.711 138.495L119.265 139.016L119.464 139.837L119.554 140.56L119.857 140.942L120.318 141.172L120.578 141.234L121.773 141.395L122.395 141.66L122.564 141.813L122.654 142.653L122.957 143.848L122.616 144.375L122.632 144.612L122.788 144.771H123.257L123.533 144.896L123.525 145.215L123.197 145.876L123.265 146.222L123.391 146.362L124.34 146.945L125.424 148.007L125.563 148.479L125.538 149.123L125.598 149.595L125.729 149.914L126.182 150.58L126.188 151.745L126.316 152.037L126.515 152.266L126.499 152.343L126.387 152.356L126.261 152.474L126.136 152.37L126.054 152.384L125.803 152.627L125.268 151.961L124.742 151.538L123.227 152.163L121.901 152.591L120.479 152.736L119.754 152.16L117.461 151.71L118.097 156.092L118.43 156.935L118.935 159.819L121.552 164.281L119.017 166.453L110.247 169.19L108.326 171.924L108.26 173.61L108.061 174.794L106.964 175.345L106.972 175.195L105.712 175.58L105.548 175.436L105.354 174.093L105.414 173.555L105.357 173.294L105.417 173.217L105.395 173.032L105.455 172.851L105.39 172.513L104.885 172.156L104.129 171.337L103.81 170.898L103.652 170.499L102.547 170.188L102.287 170.166L102.265 170.256L102.072 170.437L101.954 170.789L101.504 171.201L100.454 171.4L100.32 171.806L100.077 171.834L99.3676 172.778L97.875 172.42L96.2815 171.954L96.2215 172.008L96.2296 172.207L96.0741 172.606L95.8531 172.791L94.8953 172.778L94.0194 172.887L92.7151 172.557L91.6837 172.909L91.5118 172.832L91.1189 172.453L91.7628 170.03L91.7028 169.858L90.0137 168.764L88.8868 169.135L88.4038 169.514L87.1868 169.143L87.075 166.889L86.7584 166.619L86.5729 166.371L86.431 165.978L86.2591 165.738L84.4745 163.743L85.3887 161.893L85.8798 161.058L84.7474 158.376L83.5332 158.34L83.3203 158.286L83.0147 157.759L83.0365 157.303L82.8428 157.222L82.7173 157.257L82.2288 157.658L82.0215 158.038L81.7541 158.272L81.5985 158.701L81.7104 159.495L81.4812 159.833L81.5085 160.152L79.8112 161.59L79.5438 161.86L78.2968 163.498L78.2805 163.263L78.1522 163.271L78.1222 163.416L78.2341 163.541L77.9585 163.667L77.6474 163.577L78.084 163.459L77.9858 163.334L77.8221 163.383L77.7702 163.252L77.5028 163.058L77.4373 162.761L77.1617 162.499L77.0744 162.286L76.9352 162.278L76.8179 162.436L76.7224 162.251L76.4686 162.201L76.5205 162.035L76.3868 162.07L76.3568 162.166L75.9802 162.07L75.9502 162.166L75.6391 162.428V162.594L75.5955 162.603L75.2926 162.499L75.298 162.305L75.0388 162.283L74.9078 162.193L74.6868 162.379L74.3676 162.234L72.3292 162.641L71.8763 162.447L71.5734 162.226L71.4561 161.929L71.4643 161.631L71.3878 161.312L71.4997 161.099L71.6416 161.058L72.1109 161.017L72.2228 161.238L72.4438 161.328L72.8832 161.377L73.4016 161.571L73.6335 161.729L73.9392 161.792L74.2721 161.964L74.2775 162.095L74.6268 162.087L74.6186 162.005L74.4903 161.937L74.7632 161.702L74.725 161.667L74.4358 161.784L74.0592 161.757L74.0237 161.702L73.8327 160.9L73.8546 160.602L73.7427 160.07L73.7481 159.967L73.9392 159.822L74.1629 159.484L74.2011 159.276L74.2775 159.407L74.4276 159.456L74.665 159.241L74.2366 158.916L74.4003 158.316L74.4685 157.686L74.3075 157.595L73.609 157.478L73.5299 157.298L73.4835 156.848L73.3743 156.695L72.5939 156.376L72.261 156.411L72.01 156.357L71.8463 156.108L71.4888 156.067L70.9676 156.185L70.8639 156.357L70.6266 156.392L70.4656 156.608L70.471 156.788L70.3209 157.085L69.6251 157.451L69.284 158.136L69.0466 158.302L69.0303 158.501L68.5036 158.627L68.3181 159.2L68.0589 159.677L67.6823 159.759L66.9401 160.188L67.0438 161.396L66.599 161.541L66.2798 161.424L65.7613 161.694L65.2865 161.451L62.989 161.023L61.2672 161.664L61.0353 159.868L61.7775 158.245L61.3191 157.574L59.1607 157.912L58.806 157.857L58.5631 157.898L58.132 158.349L57.1988 158.515L54.8248 159.828L54.6693 159.855L54.4701 160.103L54.702 160.185L55.0868 160.177L55.2778 160.48L55.2314 160.791L55.3596 160.908L55.2832 161.061H55.1113L55.2068 161.391H55.0513L54.9995 161.549L54.7266 161.852L55.095 162.755L56.7867 164.985L56.5493 165.268L56.7731 165.738L56.3802 165.661L55.1877 166.262L54.6911 166.352L54.4483 166.33L53.7361 166.15L52.9339 166.123L52.6965 164.977L52.601 164.824L50.0933 164.9L49.946 164.466L49.6731 164.431L49.5312 164.12L49.6185 164.038L49.6022 163.631L49.714 163.5L49.7004 163.14L49.493 162.147L49.6622 161.809L50.0115 161.492L49.7986 161.145L48.1614 157.268L47.5966 156.078L47.5884 155.546L47.8694 154.703L47.8394 154.635L48.3197 153.347L48.3715 153.05L48.3442 152.654L48.2979 152.468L47.9622 151.893L46.5379 150.146L46.366 149.71L46.3359 149.439L46.3932 148.815L46.7043 148.141L47.1955 147.655L48.3824 147.134L48.8409 146.274L50.0115 146.413L51.0484 146.171L51.6405 145.906L52.4918 145.726L53.3895 145.308L53.7688 145.087L54.1481 144.692L54.4428 144.206L54.5465 143.756L55.0868 143.221L55.2123 142.943L55.4551 142.934L55.5752 142.621L55.859 142.44L56.4511 141.884L59.6928 142.967L60.6423 143.065L63.8813 142.176L64.5634 141.627L67.2839 140.85L68.591 139.925L69.546 139.076L70.0945 138.47L70.2882 138.165L70.7057 136.904L71.3742 136.11L72.0209 135.761L72.6212 135.567L73.2051 135.531L74.3075 135.698L74.7823 135.594L75.0361 135.491L75.7046 135.01L76.485 134.203L77.5028 133.695L77.9858 133.583H78.6979L79.9531 133.862L81.4212 134.088ZM78.1931 159.757L78.1986 159.888L78.4142 159.874L78.3378 159.928L78.3814 160.005L78.5451 159.991L78.3651 160.267L78.245 160.302L78.2696 160.488L78.1795 160.529L78.1058 160.286L78.1631 160.21L78.1413 160.079L78.0021 160.196L77.9639 160.119L78.0322 160.043L78.0021 159.939L77.7647 160.084L77.9257 160.278L77.8302 160.431L77.8821 160.499L77.8521 160.698L77.7647 160.684L77.6038 160.823L78.1058 160.927L78.2177 161.189L78.4715 161.126L78.5833 161.252L78.7334 161.039V160.859L78.6297 160.864L78.7252 160.72L78.8044 160.761L78.8999 160.679L78.8098 160.652L78.848 160.556L78.6761 160.521L78.6816 160.611L78.5997 160.624L78.5642 160.529L78.5124 160.578L78.4606 160.357L78.7252 160.384L78.7089 160.199L78.6325 160.158L78.5424 160.207L78.5588 160.081L78.6352 160.032L78.7089 160.095L78.8726 159.901L78.9681 159.874L79.0281 160.019L79.0636 159.923L79.2491 159.868L79.2246 159.765L79.2983 159.702L79.2028 159.544L79.1564 159.669L79.0008 159.746L78.4524 159.814L78.1931 159.757ZM78.919 160.171L78.9353 160.248L79.2246 160.212L79.0308 160.054L79.009 160.136L78.919 160.171ZM76.7579 161.648L76.7961 161.593L76.7497 161.53L76.6405 161.675L76.7579 161.648ZM75.6173 162.352L75.6227 162.27L75.5409 162.283L75.5491 162.36L75.6173 162.352ZM78.627 162.892L78.5833 162.54L78.376 162.643L78.1468 162.665L78.3078 162.824L78.1277 162.976L78.627 162.892Z" fill="#E46EC3" stroke="white" stroke-width="0.5"/>
<path d="M85.9801 97.4145L85.7154 97.2235L85.6799 97.1308L85.9555 97.2727L86.0237 97.3709L85.9801 97.4145ZM82.6156 96.9834L82.5692 96.9479L82.6293 96.8497L82.7848 96.8579L82.6156 96.9834ZM84.321 95.9602L84.261 95.9465L84.2555 95.8619L84.3319 95.8701L84.321 95.9602ZM81.9471 95.4608L81.8816 95.4745L81.8761 95.3899L81.9935 95.3544L81.9471 95.4608ZM84.0454 76.8513L83.9991 76.8377L84.0263 76.6958L84.0454 76.8513ZM94.3735 72.7255L96.7256 73.7706L98.6602 75.8171L98.562 75.8881L96.6492 73.8634L94.4035 72.8838L93.8386 72.9411L93.6449 72.8838L93.7186 72.7856L94.3735 72.7255ZM68.6175 52.9127L68.4538 52.9973L67.6898 52.9318L67.2805 52.9673L66.3691 53.1883L65.908 53.4393L65.9134 53.5403L66.129 53.6631L65.9789 53.8131L65.5996 53.7859L65.4059 53.6358L65.3622 53.4202L65.4086 53.1692L65.6078 52.9618L66.0362 52.7244L66.4373 52.3669L66.7348 52.296H67.0458L67.6543 52.4242L68.5875 52.7599L68.6175 52.9127ZM83.7371 55.2375L83.6934 55.3876L83.5816 55.3658L83.1532 55.7096L83.074 55.8869L83.0495 56.3863L83.4506 56.3153L84.5639 58.4355L84.673 58.4928L84.834 59.0058L86.2775 61.8382L85.8627 66.8262L86.1956 66.848L86.3785 67.1672L86.6159 68.1578L87.2544 68.7417L87.4017 68.9682L87.8246 69.3884L88.1439 69.4948L88.6269 69.503L89.0116 69.2465L89.1672 69.1101L89.6992 68.2342L90.2613 68.2205L90.919 68.3051L91.1045 68.4115L91.3774 68.4606L91.5275 68.638L91.8413 68.7881L92.0841 68.7963L92.1933 68.7035L92.2915 68.7526L92.8099 68.5971L92.9273 68.7335L92.518 68.8263L92.5043 68.8836L93.091 68.8481L93.3802 69.0964L93.5958 69.181L93.765 69.7868L93.6394 69.9505L93.7349 70.1497L93.6449 70.3407L93.7049 70.7609L93.8141 70.8318L93.7841 71.1293L94.3407 71.5549L94.6027 71.5768L94.63 71.6477L94.5781 71.7187L94.3025 71.6204L94.207 71.7132L94.2425 71.997L94.0215 72.1252L93.9232 72.2808L93.6176 72.2944L93.5794 72.3381L93.6613 72.409L93.4402 72.4527L93.4266 72.5236L93.6422 72.701L93.5767 72.8074L93.5085 72.7446L93.3884 72.7528L93.0692 73.0312L92.4961 73.1239L92.417 73.1867L92.2997 73.143L91.9968 73.214L91.8876 73.5114L91.8576 74.079L91.5466 75.2086L91.331 75.5279L90.3241 76.09L90.0485 76.3601L89.9148 76.6794L89.5519 76.6876L89.1535 76.7803L88.8424 76.9577L88.2067 77.6317L87.5709 77.6944L86.8287 77.8718L86.6868 77.6508L86.7687 77.3534L86.5094 76.9632L85.9228 77.0068L85.4343 76.5675L85.2051 76.2483L84.6048 76.4256L84.2856 76.7531L84.1737 76.6603L84.231 76.5675L84.1055 76.6466L83.8599 76.6248L83.8244 76.794L83.8899 76.8868L83.7562 76.8431L83.7944 76.5948L83.5952 76.3547L83.3414 76.3629L83.0249 76.7039L82.7193 76.7531L82.5638 76.9031L82.2745 77.045L82.1545 77.3206L82.1326 77.7599L82.2882 78.6331L82.2527 78.8378L82.3346 78.9524L82.2964 79.1024L82.3755 79.288L82.2582 79.5636L82.3782 79.9101L82.5856 80.2567L82.5638 80.3986L82.7848 81.0289L82.7166 81.4818L83.2378 81.9703L83.2841 82.2813L83.7589 83.1327L83.7289 83.5502L83.9281 83.763L84.1873 84.3142L84.2255 84.6335L84.4111 84.9582L84.6021 84.9664L84.5557 85.242L84.8504 85.4821L85.0305 86.0824L84.5994 86.8246L84.4657 86.9037L84.392 87.0456L84.2446 87.0893L84.0891 87.0265L83.9609 87.1957L83.9308 87.5859L83.9827 87.9406L84.2992 88.309L84.3292 88.4154L84.2719 88.6146L83.8272 88.6637L83.5297 88.5791L83.0086 88.8411L82.8175 88.7292L82.9676 89.0894L83.1286 89.1521L83.1068 89.2449L83.175 89.294L83.3906 89.0048L83.5707 88.9966L83.6825 89.0757L83.4615 89.5287L83.4369 89.9598L83.5406 90.2436L83.467 90.5328L83.5406 90.6256H83.8026L83.9881 90.7102L84.2692 90.6529L84.7713 90.7812L85.1505 90.7593L85.2188 90.6665L85.3006 89.777L85.3961 89.5505L85.5653 89.3677L85.6635 89.3459L85.699 89.2531L85.6335 88.8847L85.699 88.7292L85.3006 87.2148L85.3525 87.1438L85.4343 87.152L85.8491 88.5818L86.1847 88.8929L86.2202 89.0348L86.7305 89.0484L87.0252 88.9911L87.2107 89.0266L87.2462 89.1112L86.815 89.2749L86.5913 89.5014L86.2229 89.5505L85.9255 89.8616H85.6062L85.478 90.7375L85.1833 91.1904L85.1151 91.2832H84.995L84.9705 91.1904L85.0305 91.0704L84.9732 91.0349L84.8477 91.2177L84.6567 91.316L84.5475 91.5998L84.4902 92.009L84.3347 92.2055L84.2446 92.5029L83.8244 92.4184L83.6771 92.4757L83.5788 92.5384L83.3469 92.9614L82.9758 93.1087L82.7466 93.3625L82.4137 94.2929L82.2145 94.3639L82.1026 94.5331H81.8816L81.8298 94.604L81.9471 94.7868L81.8734 94.9778L81.8952 95.0897L81.7752 95.2944L81.677 95.3298L81.4177 95.1688L81.2786 94.9506L80.973 95.0079L80.5064 95.2753L80.1271 94.8523L80.0316 94.8742L79.786 94.6286L79.5923 94.855L79.7205 95.1934L80.0316 95.2371L80.4163 95.5536L80.3699 95.6245L80.1898 95.6464L80.228 95.7883L80.0861 95.9356L80.0807 95.6928L79.9552 95.6436H79.8269L79.7232 95.8401L79.9142 96.0311L80.2035 96.1157L80.3645 96.3476L80.6237 96.4186L80.6974 96.6232L80.9293 96.7706L81.0575 96.9971L81.2813 97.2153L81.5242 97.3136L81.9225 97.3409L82.1654 97.1007L82.5201 97.0571L82.8257 97.3545L82.7875 97.6083L82.5583 97.7283V97.8702L82.6784 97.9903L82.8803 97.9685L82.8012 97.8075L82.8366 97.7802L83.2241 97.9275L83.8763 97.7938L84.321 97.8702L84.6703 97.6165L85.2924 97.7092L85.729 97.9848L86.1083 98.3232L86.5695 98.3941L86.8942 98.5551L87.1016 98.4978L87.2407 98.6097L87.5572 99.0054L87.8519 99.1745L90.8535 98.6615L93.5085 99.3301L94.7773 100.168L95.8169 101.196L94.5263 102.119L93.2656 101.892L92.8563 102.266L92.6026 102.154L91.9122 103.576L90.9654 104.419L90.9381 106.023L90.8289 106.586L90.4878 107.388L89.6365 108.968H88.8752L86.6813 108.807L86.6049 108.498L87.0934 108.245L87.4044 107.964L87.6336 107.557L87.0906 106.474L86.5722 106.184L86.4385 106.444L84.5857 106.493L84.0318 106.337L83.1559 105.909L83.1614 105.508L82.984 105.311L83.8872 104.905L83.2923 104.321L83.306 104.075L83.1368 103.54L82.9076 103.745L82.7657 103.696L82.6975 103.549L82.7111 103.246L82.561 103.09L82.5556 102.831L82.3564 102.416H82.662L82.8012 102.225L83.1286 102.091L83.4615 102.083L83.5079 101.772L83.8572 101.589L83.9827 101.562L84.0427 101.619V101.775L84.1846 101.846L84.1273 101.516L83.9772 101.306L83.8217 101.292L83.6143 101.439L83.5188 101.341L83.1832 101.742L82.7739 101.398L82.5801 101.456L82.4601 101.78L82.3209 101.66L82.2118 101.963L82.0508 102.004L81.9935 102.187H81.8025L81.4314 101.314L81.164 101.202L80.7137 101.188L80.4927 101.251L80.1462 101.497L79.9033 101.898L79.7751 101.969L79.0711 101.857L78.9074 101.906L78.5608 101.715L78.2334 101.857L78.2907 102.468L78.0751 102.544L77.9332 102.67L77.8814 102.875L77.6576 102.932L77.5185 103.186L77.5239 103.39L77.3384 103.546L76.1841 103.489L76.0368 103.551L75.4883 103.579L75.311 103.65L74.9781 103.925L74.8689 104.032L74.6615 104.468L73.9739 105.017L73.1608 105.39L72.9452 105.35L72.4868 105.39L72.0366 105.292L71.6136 105.475L71.3626 105.841L70.986 106.135L70.5876 106.225L70.061 106.564L69.7254 106.987L69.4743 106.796L69.5262 106.67L69.5044 106.416L69.3488 106.073L69.4089 105.27L68.5657 105.137L68.1564 105.306L67.8399 105.636L67.7826 105.595L67.6734 105.666L66.8521 105.715L65.4523 106.531L64.5682 106.594L63.9542 106.517L63.3103 106.264L62.8519 106.419L62.2161 106.272L61.9214 106.032L61.8777 105.674L61.9023 105.541L62.257 105.098L62.5981 103.311L62.519 102.755L63.373 101.89L63.7742 101.016L63.7796 100.839L64.0634 100.091L64.4127 99.5838L63.3539 99.1336L63.2366 99.1418L62.6527 99.3028L62.3798 99.8103L59.4492 98.4869L61.845 92.4129L62.3334 90.994L62.5053 90.2518L62.5654 89.3459L62.7864 89.043L62.6227 88.5764L62.9637 87.8424L63.4604 86.4562L63.987 83.8803L64.5655 80.2949L64.8383 77.5798L65.174 75.3642L65.1903 74.8539L65.4277 73.2495L65.8343 69.6312L66.2218 67.803L66.4728 67.1481L66.8439 66.4278L67.5725 63.9556L68.5739 59.9554L68.7976 58.9212L68.9886 55.0629L69.136 54.4407L69.4471 53.8404L69.6845 53.5485L69.8345 53.483L70.4594 53.3684L70.7023 53.4393L71.0379 53.2756L71.7364 53.3111L71.7009 53.4693L71.8565 53.3847L71.9738 53.4557L71.9438 53.5348L71.8456 53.4775L71.7582 53.6358L71.8046 53.835L71.9138 53.9578L72.0038 53.9659L72.0338 54.1379H72.0802L72.3968 54.0533L72.3613 53.8459L72.5468 53.704L72.4895 53.5812L72.3586 53.674L72.2821 53.4666L72.7024 53.382L72.8279 53.6685L72.8115 53.9414L72.3913 54.8419L72.2712 55.434L72.3395 55.4995L72.3558 55.6632H72.4677L72.4977 55.8706L72.978 56.9484L73.098 57.1121L75.9222 58.7329L77.3247 58.3618L77.8132 58.0399L78.6809 57.6769L78.6372 57.5487L78.7928 57.535L79.3412 56.842L79.4585 56.5855L79.5268 56.2062L79.9361 55.8405L80.49 55.7041L80.7738 55.7123L81.4177 55.4121L81.9198 55.554L82.2827 55.4831L82.5938 55.333L82.7057 55.4394L82.7821 55.4121L82.954 55.5895L83.4424 55.2239L83.3851 55.1393L83.4506 55.0547L88.3868 50.7789L88.5641 51.0163L83.7371 55.2375ZM76.2032 39.6323L76.4024 39.5668L76.5525 39.7032L76.8854 40.1616L77.382 41.1248L77.3438 41.3759L77.2238 41.3895L77.1637 41.5832L77.0764 41.3459L76.9645 43.5861L77.0519 44.2464L77.0437 44.7485L76.8745 45.2642L76.6835 45.3352L76.165 45.7718L76.1077 46.0146L75.824 46.1865L75.7858 46.926L75.4447 47.3926L75.3246 47.7582L75.1745 47.9001L75.109 47.7937L74.8662 47.9929L74.8935 48.1211L74.7025 48.3995L74.5169 48.5059L74.1813 48.6423L73.5728 48.6696L73.4609 48.7624L72.2985 50.2741L72.304 50.4023L72.495 50.5169L72.3695 50.697H72.0229L71.881 50.5333L71.7637 50.6179L71.4745 50.4378H71.2453L70.6067 50.1376L70.4949 50.2304L70.6122 50.2877L70.6586 50.5033L71.1607 50.7025L71.2262 50.8525L71.5099 51.0326L71.5536 51.1254L71.4281 51.1336L71.1388 50.9972L71.177 51.0545L70.6722 51.27L70.6777 51.3492L70.8032 51.371L70.7896 51.4283L70.3584 51.5702L70.001 51.5129L69.7363 51.663L69.84 51.6984L69.7199 51.8349L69.5589 51.813L69.2042 51.4829L68.8249 50.7161L68.6748 49.9357L68.7431 48.6041L69.0187 47.1934L69.2397 46.4485L69.649 45.4443L70.473 43.8944L71.7501 41.8507L72.2112 41.234L73.6137 38.9419L74.2004 38.2243L74.7216 37.7631L75.12 37.613H75.2291L75.3928 37.7276L75.6657 38.1942L75.8512 38.317L76.0723 38.7973L76.0504 39.1984L76.0968 39.4576L76.2032 39.6323Z" fill="#E46EC3" stroke="white" stroke-width="0.5"/>
<path d="M129.713 61.2488L130.043 61.6772L130.138 61.9555L130.354 62.2393L131.885 64.0211L132.193 64.193L133.012 65.32L133.293 65.6037L131.885 67.1618L131.833 67.5056L130.995 67.9258L130.002 68.166L129.909 68.2314L129.713 68.5725L130.586 70.8209L131.074 71.8879L131.295 72.6546L131.563 73.0093L131.71 73.1021L131.765 73.0666L131.907 73.2003L132.114 73.6287L132.447 73.4923L132.551 73.6124L133.105 73.6779L133.336 73.3586L133.568 73.3504L133.912 73.2222L133.959 73.4077L134.346 73.6287L134.469 73.5851L134.515 73.6833L134.843 73.847L135.08 73.8252L135.309 74.21L135.563 74.401L135.871 74.4228L136.019 74.622L136.237 74.7639L136.354 74.742L136.545 74.5019L136.704 74.5238L136.968 74.8839L137.094 74.9549L137.238 74.9358L137.394 74.7066L137.724 74.6847L138.259 74.431L138.518 74.4173L138.666 74.6711L138.548 74.813L138.562 75.1322L138.881 75.4188L139.217 75.5388L139.326 75.6807L139.719 75.9154L139.743 76.0627L139.831 76.1555L139.964 76.1419L140.155 76.2837L140.112 76.3765L140.385 76.7176L140.456 77.0641L140.641 77.3261L140.6 77.6181L140.728 77.8364L140.75 78.0656L140.909 78.2784H141.018L141.056 78.4749L141.116 78.4912L141.506 78.2839L141.612 78.101L142.025 78.1147L142.161 77.8664L142.551 78.0656L142.677 77.9646L142.707 77.8009L142.966 77.6099L143.086 77.3916L143.132 77.5526L143.25 77.6672L143.236 77.9428L143.381 78.1283L143.64 78.292L143.894 78.333L144.368 78.1911L144.508 78.0437L144.674 77.5171L144.865 77.6181L144.857 77.7954L145.037 77.8664L145.086 77.9782L145.414 78.0137L145.504 77.9373L145.779 77.951L146.038 78.0656H146.311L146.429 78.2839L146.622 78.2975L146.696 78.4749L146.794 78.483L146.816 78.6331H146.917L146.98 78.5103L146.86 77.3206L146.726 76.9223L146.631 76.0982L146.661 75.9645L147.951 74.9003L148.306 74.7011L151.062 74.0817L153.69 75.3314L155.163 75.8444L154.942 76.3465L155.032 76.3765L155.095 76.5184L154.817 76.824L154.904 76.9714L154.748 77.4107L155.245 77.4407L155.324 77.4543L155.504 77.7463L155.621 77.8091L155.845 78.2429L155.728 79.0724L155.578 79.5827L155.551 80.1421L157.597 81.9485L157.008 82.1695L156.759 82.1831L156.467 82.0631L156.23 82.0767L155.81 81.9703L155.591 82.7016L155.37 82.8789L155.354 82.9854L153.851 82.6797L154.926 84.9254L154.62 87.3649L155.313 87.897L155.578 88.0525L155.837 88.1016L156.978 88.9775L157.335 89.1249L158.047 89.3377L160.596 89.2449L161.087 89.3595L161.349 89.3322L161.346 89.9953L161.791 89.9025L163.698 90.4537L165.164 90.9995L165.456 90.893L166.064 90.2982L166.225 90.0526L166.7 88.9557L167.18 88.6173L167.396 88.8929L167.42 89.0757L167.775 89.9244L168.13 91.4006L168.613 91.8399L169.235 93.2506L169.221 93.3788L169.467 93.3652L169.909 93.5398L170.086 93.4362L170.212 93.4907L170.214 93.709L170.435 94.0501L170.858 95.3326L170.828 96.8361L170.103 97.8511L170.026 98.3314L169.718 98.7871L169.748 99.1336L169.644 99.4774L169.33 100.105L169.191 100.233L168.845 101.008L168.815 101.218L168.828 101.535L168.924 101.838L168.916 102.015L168.858 102.056L168.88 102.373L169.126 102.634L169.57 103.652L170.435 104.618L170.244 105.06L169.308 105.666L168.588 105.715L168.457 105.819L168.345 105.707L167.805 105.56L167.426 105.644L167.317 105.601L167.019 105.751L166.986 105.903L166.779 106.081L166.809 106.536L166.61 107.058L166.375 107.366L165.993 108.187L165.551 108.864L165.467 108.927L164.722 109.074L163.677 109.227L163.592 109.361L163.554 109.691L162.585 110.591L162.176 112.422L161.45 113.124L159.9 113.284H157.351L155.406 113.298L154.666 112.954L153.725 112.78L153.089 112.485L153.548 111.748L153.605 111.298L153.548 111.102L153.556 110.717L153.436 110.654L153.575 110.449L153.583 110.28L153.504 110.048L153.384 109.936L152.494 109.467L152.314 109.453L152.101 109.825L151.891 109.53L151.662 109.459L151.558 109.543L151.485 109.77L151.302 109.833L150.939 110.106L150.576 109.77L150.546 109.655L150.685 109.369L150.494 109.235L150.41 109.066L150.142 108.954L150.129 108.842L149.998 108.763L149.968 108.834L148.415 109.151L146.699 108.87L145.875 109.164L145.727 109.115L145.585 108.976L145.168 108.771L145.023 108.583L144.786 108.048L144.767 107.661L144.68 107.576L144.396 107.562L144.139 107.464L143.785 106.747L142.914 105.835L142.737 105.328L142.434 104.899L142.447 104.547L141.743 104.463L141.187 104.498L140.941 104.378L140.461 104.583L139.645 104.632L139.558 104.82L139.386 104.85L139.099 105.038L139.075 105.636L138.696 105.652L138.349 105.751L137.457 105.742L137.323 105.622L137.293 105.502L137.162 105.475L137.127 105.363L136.627 105.497L136.526 105.636L136.242 105.538L136.221 105.742L135.803 105.622L135.233 105.672L135.116 105.581L134.818 105.587L134.521 105.475L133.855 105.385L133.225 104.913L132.75 104.935L132.469 104.85L132.291 104.927L132.098 104.905L132.038 104.935L131.978 105.18L131.937 105.595L131.74 105.385L131.639 105.568L131.729 105.636L131.697 105.702L131.527 105.631L131.609 105.863L131.765 106.045L131.757 106.171L131.677 106.255L131.585 106.171L131.596 105.947L131.481 105.742L131.113 105.652L130.821 105.44L130.703 104.989L130.793 104.757L131.096 104.561L131.17 104.315L131.148 104.173L130.613 104.223L130.37 104.048L129.879 103.936V103.66L130.128 103.303L129.887 103.09L129.765 102.555L129.353 102.048L129.317 101.366L129.093 101.049L128.971 100.656L128.881 100.492L128.43 100.487L128.141 100.394L128.116 99.6275L127.969 99.3028L127.541 99.2455L127.546 99.1063L127.718 98.8935L127.789 98.3941L127.849 97.7038L127.792 96.9916L127.901 96.8061L128.338 96.6724L128.575 96.4759L128.515 96.3285L128.378 96.2139L128.035 96.1375L127.936 96.053L127.857 95.8892L127.865 95.6355L128.037 95.3981L128.894 95.2343L129.683 94.9315L129.797 94.8032L129.89 94.6068L129.904 93.9437L130.095 93.5617L130.335 92.6312L130.31 92.3692L130.065 91.6625L129.424 90.7157L129.082 90.4619L128.916 90.2436L128.96 89.5778L128.908 88.8083L128.79 88.4618L128.422 88.017L127.77 87.725L127.426 87.444L127.205 87.1111L126.93 86.4398L126.1 85.7877L125.931 85.7659L125.663 85.6185L125.543 85.8314L125.361 85.9787L124.894 86.1424L123.014 88.088L122.64 87.5504L122.386 87.6132L121.838 88.0225L121.669 87.8669L121.341 88.017L121.205 87.5777L120.755 86.6227L120.452 86.1069L119.879 85.392L119.207 84.7972L118.621 85.0155L118.28 83.0699L118.146 82.6661L116.307 80.7015L115.911 80.6305L114.891 80.6469L114.907 78.775L117.469 78.7805L117.587 78.5895L117.81 78.4967L120.353 77.9373L120.697 78.071L120.916 78.3057L121.554 78.2266L122.547 77.6672L122.61 77.5116L124.04 77.1978L125.011 76.5539L125.238 76.2919L125.227 76.1828L125.12 76.0054L124.605 75.4952L123.903 75.3042L123.216 74.7011L122.796 74.5592L122.498 74.5374L121.925 74.3109L121.92 74.4091L121.734 74.3873L121.63 74.2673L121.614 74.0244L122.103 73.4705L122.504 73.1949L122.749 72.9029L122.888 72.8811L123 72.6955L122.992 72.4472L122.807 72.0352L122.662 71.9233L122.577 71.9288V71.6805L122.43 71.424L122.127 71.2685L121.69 69.7595L121.385 68.9709L121.229 68.7281L120.397 67.9395L120.242 67.9313L119.982 67.7676L119.54 67.391L119.287 67.0336L118.441 66.4496L118.061 66.2668L117.551 66.174L117.461 66.1085H116.67L116.662 65.9748L116.078 65.4618L115.693 64.7769L116.727 64.0566L116.79 64.1657L117.316 64.4632L117.412 64.7551H117.516L117.685 64.5996L117.917 64.7196L118.323 64.706L118.479 64.7988L118.681 64.7906L119.079 65.0062L119.287 65.0253L120.19 64.5996L120.353 64.3431L120.727 64.1084L120.948 63.7728L121.338 63.5163L121.347 63.1588L121.399 63.0797L121.333 62.9597L121.51 62.8751L121.527 62.725L121.977 62.6677L122.184 62.5831L122.585 62.7468L122.536 62.4739L122.591 62.3675L122.779 62.2393L123.363 62.111L123.497 62.6595L123.748 63.0306L123.95 63.5791L124.114 63.6145L124.335 63.8165L124.52 63.8519L124.662 63.8437L124.796 63.7291L125.153 63.6091L125.647 63.5436L125.841 63.9365L126.206 63.7864L126.859 63.3881L126.946 63.2298L126.804 62.5176L127.292 62.3184L127.852 62.3812L128.048 62.3457L128.212 62.1765L128.428 62.0537L128.66 62.0319L129.183 61.699L129.713 61.2488Z" fill="#E46EC3" stroke="white" stroke-width="0.5"/>
<path d="M72.4954 105.385L72.9538 105.341L73.1693 105.385L73.9798 105.011L74.6674 104.463L74.8748 104.026L74.9812 103.92L75.3141 103.647L75.4914 103.576L76.0399 103.549L76.1872 103.486L77.3387 103.54L77.5243 103.385L77.5216 103.183L77.658 102.929L77.8845 102.872L77.9363 102.667L78.0782 102.542L78.2938 102.465L78.2365 101.851L78.5666 101.712L78.9105 101.901L79.0742 101.851L79.7782 101.963L79.9092 101.895L80.1493 101.494L80.4958 101.246L80.7168 101.183L81.1643 101.197L81.4318 101.311L81.8028 102.182H81.9939L82.0512 101.999L82.2094 101.958L82.3186 101.655L82.455 101.775L82.5778 101.45L82.7715 101.396L83.1808 101.74L83.5192 101.338L83.612 101.437L83.8193 101.289L83.9749 101.303L84.1277 101.513L84.1822 101.846L84.0404 101.775V101.619L83.9803 101.562L83.8548 101.592L83.5055 101.775L83.4564 102.083L83.1263 102.092L82.7961 102.225L82.6597 102.416H82.3513L82.5505 102.831L82.556 103.09L82.706 103.246L82.6924 103.549L82.7633 103.696L82.9052 103.745L83.1344 103.54L83.3009 104.075L83.29 104.321L83.8848 104.905L82.9816 105.314L83.159 105.511L83.1563 105.912L84.0322 106.34L84.5834 106.496L86.4361 106.446L86.5698 106.185L87.0883 106.474L87.634 107.557L87.4048 107.964L87.0937 108.245L86.6053 108.498L86.6817 108.807L88.8756 108.968H89.6369L90.4882 107.388L90.8293 106.586L90.9357 106.024L90.963 104.419L91.9071 103.576L92.5975 102.154L92.854 102.266L93.2633 101.895L94.5239 102.119L95.8146 101.197L98.0084 103.366L98.8461 104.083L98.3495 106.22L100.115 107.661L100.129 108.075L100.017 108.616L99.8393 108.763L99.5146 108.665L99.3291 108.812L99.471 108.954L99.5419 109.374L99.5065 109.628L100.194 109.874L101.842 110.097L101.864 110.204L102.145 110.324L102.118 110.471L102.241 110.512L102.181 110.984L102.53 111.137L102.975 111.151L102.893 111.56L102.923 111.664L103.504 111.953L103.294 112.359L102.822 112.428L102.762 112.821L102.664 112.802L102.863 113.047L103.073 113.115L103.065 113.355L103.245 113.454V113.552L102.352 113.459L102.655 113.656L102.634 113.789L102.257 114.155L102.314 114.884L101.692 115.276L101.226 115.871L101.307 115.964L101.479 116.005L101.507 116.139L102.249 116.581L102.614 116.452L103.122 116.447L103.234 116.068L103.616 116.04L103.976 116.117L104.391 115.675L104.104 115.557L104.243 115.312L104.593 115.416L104.623 115.276L104.645 115.094L104.413 115.031L104.533 114.75L104.424 114.66L104.421 114.562L104.29 114.518L104.26 114.338L104.645 114.24L104.756 114.371L104.849 114.351L104.827 114.218L105.119 114.174L105.193 114.575L105.111 114.772L105.275 114.884L105.31 115.388L105.452 115.557L105.572 115.563L105.643 116.111L105.518 116.63L105.564 116.725L105.458 117.757L105.305 118.169L105.635 118.311L105.578 118.794L106.399 119.102L106.342 120.327L106.104 120.333L106.527 120.794L106.631 120.682L106.765 120.829L106.838 120.949L106.877 121.397L107.054 121.585L107.4 121.907L107.671 121.962L107.856 122.251L107.952 122.824L108.388 123.34L108.342 123.634L108.23 123.809L108.238 123.997L108.426 124.453L108.424 124.87L108.167 124.933L108.186 125.291L107.938 125.151L107.504 125.536L106.773 125.045L105.654 124.759L105.319 124.614L105.007 124.368L104.696 123.872L103.302 123.356L103.018 123.097L102.429 122.739L102.181 122.677L101.419 122.761L100.24 122.529L99.9567 122.685L99.3891 123.165L98.033 123.683L97.6209 123.711L96.9933 123.577L96.6277 123.634L96.2866 123.872L95.8582 124.423L95.3316 124.69L94.9632 124.669L94.2947 124.221L93.5962 124.131L93.0477 123.984L92.5674 123.724L92.0626 123.2L91.7216 122.999L91.3941 123.083L91.2086 123.312L90.8293 124.046L90.5209 124.319L90.289 124.377L89.7351 124.256L89.143 123.872L88.8646 123.689L88.0952 123.558L87.7841 123.375L87.5685 122.922L87.473 122.202L87.3611 121.992L86.799 121.662L86.3679 121.501L86.0405 121.397L85.5466 121.37L85.0909 121.501L84.2641 121.907L84.114 122.131L83.35 122.731L83.069 123.039L82.9571 123.375L82.7333 123.683L82.2967 123.733L81.6309 123.209L81.3035 123.146L81.1316 123.179L80.7387 123.411L80.1766 124.207L79.931 124.377L79.6008 124.355L78.9487 124.095H78.7085L78.4138 124.404L78.1246 125.094L77.7972 125.506L76.954 125.725L76.5529 125.76L76.1054 125.913L75.7534 124.535L75.4532 124.292L75.3441 123.913L75.0194 123.711L74.5118 123.13L74.0616 122.494L74.2308 122.417L73.9552 122.041L73.625 121.929L73.243 121.419L74.973 120.99L75.0112 120.9L74.6592 120.221L74.3809 120.368L73.666 120.341L73.4013 120.529L72.9183 120.578L72.7982 120.185V119.934L73.1775 119.661L73.1039 119.135L73.4149 118.906L73.9716 118.038L74.6838 117.498L75.5869 117.167L75.8052 116.72L74.4627 116.734L74.0371 116.84L74.0534 116.466L73.8106 116.174L73.7342 115.83L73.6605 114.763L73.6851 114.128L72.2088 113.066L72.2798 112.78L72.8092 112.542L72.8965 111.98L73.1421 111.623L73.4886 111.475L73.8924 111.396L74.1435 111.265L74.2444 111.677L74.4846 111.868L75.3277 111.98L75.6388 111.931L75.6606 111.855L75.8543 111.762L75.6934 110.66L76.5802 110.316L76.5911 110.217L75.1449 109.213L74.4927 108.981L73.2594 107.62L73.1721 107.401L72.8801 107.415L72.8092 107.044L72.8173 106.354L72.5117 105.849L72.4954 105.385Z" fill="#E46EC3" stroke="white" stroke-width="0.5"/>
<path d="M44.0244 165.844L44.1418 165.852L44.1499 165.749L44.1936 165.776L44.3928 166.204L44.3164 166.259L43.8935 166.3L43.3614 166.065L43.2277 165.912L43.5524 165.699L43.9398 165.754L44.0244 165.844ZM18.5878 163.126L19.39 163.383L19.3327 163.549L19.3845 163.585L19.4937 163.536L19.5374 163.59L19.7884 163.598L20.2168 164.103L20.476 164.193L20.9262 164.207L21.1718 164.275L21.24 164.406L21.4993 164.474L21.5566 164.605L22.6317 164.916L24.5881 165.227L24.801 165.476L24.831 165.601L24.9292 165.642L24.9592 165.768L25.655 166.223L25.9879 166.693L26.4027 166.734L26.7383 166.624L27.797 166.837L27.8407 166.974L27.6688 167.113L27.6442 167.367L28.0972 167.607L28.2609 167.615L28.2773 167.539L28.1954 166.794L28.2309 166.698L29.0631 166.72L29.2187 166.914L29.5352 167.086L29.95 167.148L29.8244 167.285L29.8162 167.41L30.1328 168.024L30.2228 167.975L30.1028 167.582L30.2501 167.519L30.1464 167.181L30.2747 167.195L30.2365 167.29L30.3101 167.517L30.4384 167.449L30.5339 167.195L30.6294 167.203L30.5639 167.298L30.6458 167.394L30.9787 167.443L31.3116 167.65L32.4139 167.623L32.7032 167.258L32.7987 166.996L33.4426 166.802L33.6282 166.562L34.4004 166.03L34.867 165.83L35.5765 165.678L35.601 165.615L35.9257 165.511L36.0676 165.533L36.1577 165.451L36.3705 165.618L36.4278 165.334L36.3814 165.225L36.5288 164.935L36.5588 164.515L36.7962 164.259L36.6952 164.024L36.6516 163.416L37.1018 162.78L37.8058 162.843L37.9095 162.987L38.9846 163.154L38.8973 163.298L39.0009 163.402L39.1128 163.353L39.282 163.637L39.4321 163.691L39.6094 164.327L39.5358 164.376L39.5876 164.548H39.765L40.0924 165.252L40.3462 165.563L41.5714 165.639L42.1362 165.735L43.1458 166.616L43.9016 167.514L44.3464 167.768L43.8716 167.148L43.6424 166.646L44.109 166.466L44.3819 166.453L44.5156 166.548L44.6493 166.824H44.8949L45.0859 166.96L45.3178 167.29L45.296 167.421L45.3778 167.435L45.4897 167.263L45.2987 167.097L45.2087 166.889L45.8854 166.925L45.7817 166.815L45.1868 166.706L45.0832 166.603L46.06 166.554L46.3929 166.63L46.2128 166.45L45.3806 166.444L45.004 166.327L44.6466 165.713L44.6684 165.397L44.9522 165.307L45.1295 165.369L45.3969 165.143L45.5579 165.107L45.6753 165.948L46.2974 166.313L46.603 166.368L46.1119 166.111L45.8472 165.877L45.7653 165.683L45.7735 165.331L45.8554 165.255L45.9727 165.345L46.0191 165.634L46.0655 165.042L46.2374 164.848H46.6003L46.895 164.974L47.0205 164.965L47.3261 165.2L47.5035 165.787L47.7682 166.229L48.2293 166.739L47.6126 167.678L45.4051 170.529L42.4745 172.745L41.6805 173.261L41.5086 173.433L40.9519 173.722L40.8046 173.984L40.0106 174.169L39.8905 174.115L39.7513 173.88L39.574 174.025L39.2493 174.156L39.0937 173.894L38.8099 173.902L38.2669 174.205L38.065 174.431L37.8576 174.513L37.6448 174.712L37.5629 174.609L37.1782 175.247L36.5615 175.356L36.5451 175.555L36.3678 175.886L35.8957 175.921L35.6802 175.989L35.6747 176.079L35.3855 176.169L35.2572 175.866L35.0498 175.632L34.9189 175.853L34.6678 175.866L34.5341 176.093L34.5914 176.396L34.4632 176.418L34.3022 176.639L33.8328 176.852L33.59 176.761L33.5027 176.871L33.2735 176.988L33.1862 176.775L32.9351 176.486L33.4372 176.101L33.5627 175.853L33.3089 175.427L32.9324 175.621L32.0565 176.246L31.7536 176.06L31.6445 176.142L31.549 176.101L31.347 176.21L31.096 176.107L30.7931 176.341L30.4984 176.409L29.9445 176.161L29.7235 176.126L29.6771 176.18L29.7371 176.407L29.6989 176.442L29.4834 176.262L29.396 176.077L29.1505 176.014L29.085 175.883L29.0386 175.105L29.0822 173.943L29.3469 173.214L29.2869 173.119L28.9622 173.037L28.5638 172.679L28.3701 172.598L28.2964 172.756L28.1108 172.851L27.8953 172.707L27.6579 172.246L27.4887 172.142L27.3195 172.232L26.2499 171.978L25.9743 172.087L25.0192 171.812L24.9156 171.749L24.7655 171.454L24.3071 171.446L24.1952 171.26L23.3957 170.791H22.8472L22.648 170.928L22.0314 170.562L21.8322 170.584L21.7066 170.371L20.5115 169.738L20.0831 170.248L20.2905 170.619L20.1267 170.737L20.2004 170.922L20.124 171.053L19.9903 170.922L19.8484 170.958L19.6547 170.791L19.641 170.696L19.2699 170.51L19.1281 170.565L19.0707 170.745L18.937 170.84L18.4486 170.778L18.2276 171.247L17.9902 171.282L17.6655 170.958L17.2425 171.039L17.7664 173.869L15.8073 174.104L14.5111 174.194L14.2519 174.167L13.6352 173.932L13.4633 173.946L13.3433 173.307L13.2696 173.211L12.9585 172.917L12.6475 173.116L12.4701 172.75L12.0117 172.461L11.7606 171.964L11.3814 171.869L11.2258 171.675L11.485 171.462L11.4769 171.069L11.4005 170.947L11.0212 170.685L10.852 170.256L11.2395 170.049L10.5109 169.187L10.5 169.064L11.5887 167.831L11.5096 167.211L11.1385 166.728L11.103 166.515L11.1631 166.005L10.8056 165.315L11.0212 165.004L11.3923 164.742L11.3977 164.851L11.4741 164.843L11.4987 164.703L12.2791 164.42L13.2805 163.915L13.638 163.86L13.6898 164.073L13.8835 164.136L13.9218 163.997L14.4566 163.83L14.6639 163.664L15.2997 163.574L15.9301 163.366L16.1811 163.249L16.2166 163.132L16.454 163.118L16.8851 162.739L17.3681 162.69L17.5618 162.772L18.2822 162.84L18.555 162.935L18.5878 163.126ZM25.434 155.377L25.4804 155.431L25.3194 155.391L25.2375 155.292H25.3631L25.434 155.377ZM24.9265 154.7L24.8446 154.673L24.9401 154.646L24.9265 154.7ZM24.8337 154.403L24.7982 154.444L24.7628 154.375L24.8091 154.245L24.8337 154.403ZM26.0316 154.395L26.0098 154.457L25.9634 154.43L25.9279 154.326L26.0671 154.064L26.0316 154.395ZM26.2035 154.084V154.182L26.1435 153.966L26.2417 153.854L26.2853 153.931L26.2035 154.084ZM24.8091 153.898H24.7491L24.861 153.83L24.9565 153.622L24.9947 153.802L24.8091 153.898ZM27.9089 153.191L28.1163 153.213L28.1927 153.158L28.4055 153.303L28.0726 153.38L27.3768 153.366L27.3823 153.194L27.4505 153.104L27.6006 153.09L27.9089 153.191ZM32.7741 153.025L32.6759 153.017V152.967L32.8096 152.828L32.8778 152.927L32.7741 153.025ZM28.5474 153.03L28.2718 152.877L28.2936 152.842L28.411 152.815L28.6102 152.897L28.5474 153.03ZM28.1736 152.837L28.22 153.066L27.7479 153.017L27.6306 152.899L28.0235 152.782H28.1354L28.1736 152.837ZM24.5254 152.774L24.7109 152.856L24.8801 153.022L24.9674 153.216L24.9838 153.478L24.8637 153.442L24.7518 153.789L24.67 153.726L24.5908 153.339L24.4108 152.937L24.4189 152.73L24.5254 152.774ZM24.1106 152.566L24.0751 152.607L23.9714 152.359L24.1215 152.381L24.1106 152.566ZM23.8896 152.097L23.9769 152.111L24.0042 152.242L23.8923 152.173L23.7313 152.195L23.7477 152.113L23.8896 152.097ZM45.3315 148.935L45.1814 148.894L45.2769 148.858L45.3315 148.935ZM31.1206 138.467L31.478 138.817L32.7141 139.207L33.1534 139.122L34.0293 138.009L34.6951 137.613L35.5246 137.398L36.3241 137.51L36.9381 138.066L38.5862 138.435L38.7063 138.615L38.8782 139.36L39.5903 140.369L39.6558 141.717L39.795 142.266L40.1743 142.931L40.4853 143.057L42.3845 143.21L43.2004 143.502L44.0135 143.48L44.6493 143.548L46.6276 145.049L48.0356 146.02L48.8433 146.285L48.3848 147.145L47.1979 147.666L46.7067 148.151L46.3956 148.825L46.3383 149.45L46.3684 149.72L46.5403 150.157L47.9646 151.903L48.3003 152.479L48.3466 152.665L48.3739 153.06L48.3221 153.358L47.8418 154.646L47.8719 154.714L47.5908 155.557L47.599 156.089L48.1638 157.279L49.801 161.156L50.0139 161.503L49.6646 161.819L49.4954 162.158L49.7028 163.151L49.7164 163.511L49.6046 163.642L49.6209 164.049L49.5336 164.13L49.6755 164.442L49.9484 164.477L50.0957 164.911L48.5404 164.979L48.6277 164.826L48.6495 164.452L48.1174 163.568L47.3316 163.208L47.0478 163.263L46.9523 162.993L46.7667 162.821L46.3793 162.862L46.03 163.088L45.7872 163.178H45.588L44.9222 163.585H44.6384L44.1472 163.489L43.7979 163.282L42.7583 163.096L41.7214 162.709L41.6123 162.682L41.555 162.731L41.2958 162.433L40.8237 162.294L40.3735 161.838L40.3817 161.735L40.1606 161.424L40.3107 161.189L39.6149 160.973L39.5712 160.676L39.503 160.649L39.4239 160.771L38.7881 160.469L38.5753 160.234L38.3379 160.226L38.2642 160.095L38.1087 160.018L38.0432 159.866L37.5902 159.554L37.3446 159.14L37.0991 158.987L36.537 159.38L36.0349 159.421L35.3254 159.912L34.9843 159.746L34.9243 159.781L34.9707 160.133L34.777 160.174L34.9571 160.602L34.9652 160.845L34.7197 161.301L34.616 161.757L34.5123 161.877L34.4959 162.076L34.384 162.188L33.8929 163.568L33.59 163.713L32.6268 163.424L32.2584 163.617L32.0428 163.844L31.7181 163.822L31.5108 164.002L31.1615 164.051L30.9486 164.163L30.2146 164.212L30.1792 164.294L29.9936 164.231L29.5352 163.672L29.1068 163.375L29.0549 163.265L28.4301 162.859L28.5038 162.561L27.9717 162.526L27.5051 162.223L27.0985 162.45H26.681L26.5528 162.387L26.3017 162.179L26.0725 161.377L25.8569 161.399L25.6578 160.971L25.2048 160.52L24.5445 159.988L24.2388 159.822L22.9127 159.767L22.6699 159.997L22.648 160.204L22.3888 160.357L22.2715 160.406L21.9959 160.365L21.7967 160.441L21.5757 160.387L21.2482 160.469L20.929 160.212L20.9071 159.68L20.7571 159.702L20.7298 160.275L20.5142 160.212V159.986L20.4242 160.171L20.3723 160.149L20.3969 159.95L20.3314 159.928L20.2741 160.1L20.2604 160.155L20.7189 160.376V160.43L20.3396 160.34L20.0858 160.395L20.0722 160.512L19.9767 160.45L19.7693 160.561L19.5455 160.45L19.4364 160.193L19.0571 159.827L18.8033 159.849L18.7297 159.724L18.113 159.295L17.7119 158.916L17.51 158.654L16.8933 157.478L16.4785 156.883L16.0392 156.46L15.7718 156.392L14.6094 155.541L14.1564 154.932L13.9436 154.815L13.8672 154.594L13.698 154.496L13.758 153.936L13.9518 153.404L14.8795 152.864L15.8073 152.122L16.4976 151.677L17.5645 151.038L17.9111 150.921L18.4814 150.484L19.6547 149.881L20.0558 149.805L20.5661 149.922L20.9508 149.895L21.4201 149.993L21.9113 150.326L22.0968 150.318L23.4257 149.813L24.0124 149.682L24.2143 149.557L24.378 148.711L24.4026 148.19L24.4762 148.149L24.4326 147.99L24.3289 147.969L24.2416 147.865L24.5526 147.81L24.7164 147.554L25.5841 146.659L25.5186 146.528L25.7314 146.473L25.9934 145.898L25.8542 145.723L25.8979 145.668L26.0671 145.66L26.0752 144.874L25.4367 144.672L24.9401 144.263L24.4735 143.54L24.3344 143.117L24.2689 142.694L24.2852 142.222L24.6181 141.444L24.9756 140.806L25.2212 140.536L25.4749 140.424L26.3372 140.14L26.8038 140.113L28.1599 139.556L29.2732 139.548L30.4138 139.777L30.5994 138.915L30.7849 138.65L31.1206 138.467ZM29.6116 142.931L29.7589 142.967V143.035L29.5379 142.972L29.4915 142.765L29.2923 142.8L29.0986 142.94L28.9431 143.3L29.0086 143.417L27.7315 144.285L27.4778 144.438L26.2308 144.874L26.2171 145.644L26.4327 145.671L26.3508 145.963L26.1134 145.971L25.756 146.839L25.8433 146.861L25.9852 146.694L26.0016 146.793L25.6086 147.224L26.007 147.431L25.947 147.472L25.5759 147.306L25.4367 147.431L25.505 147.728L25.4067 147.909L25.3685 147.84L25.4149 147.701L25.1639 147.494L24.7655 147.84L24.7573 147.895L24.831 147.93L24.7327 147.985L24.7027 148.187L24.6345 148.222L24.6427 148.321L24.5526 148.465L24.4353 149.491L24.5254 149.464L24.4981 149.622L24.7273 149.456L24.7355 149.595L25.1639 149.505L25.6523 149.838H25.7805L25.8842 150.026L26.3863 150.034L26.7847 149.786L27.0958 149.835L27.2868 149.669L27.7998 149.655L27.9171 149.51L28.4355 149.622L28.7111 149.36L29.5188 149.284L29.6907 149.126L30.0318 149.117L30.4902 149.276L30.9923 149.109H31.1942L31.3634 149.325L32.1956 149.478L32.6568 149.969L33.369 151.21L33.5109 151.085L33.5354 151.216L33.3744 151.278L33.4044 151.377H33.4863L33.5463 151.625L33.7237 151.95L33.8219 151.977L33.7701 152.193L33.4863 152.373L32.7468 152.58L32.2639 153.232L31.9173 153.344L31.7563 153.276L31.4398 152.943L31.3743 152.749L30.9677 152.474L30.2174 152.645L29.7071 153.06L28.9949 152.894L28.9567 152.935L28.3782 152.596L27.9389 152.542L27.8707 152.61L27.8107 152.561L26.6564 153.232L26.3918 153.551L25.7614 153.98L25.4667 154.485L25.333 154.566L25.1175 154.081L25.2375 153.666L25.3631 153.729L25.5104 154.184L25.5541 154.171L25.5241 153.999L25.4204 153.854L25.4122 153.696L25.2867 153.606L25.1311 153.074L24.7164 152.493L25.2348 151.813L25.1912 151.786L25.0875 151.912L24.7546 152.397L24.5772 152.438L24.2661 152.244L23.9769 151.912L23.554 151.704L23.4939 151.565L23.3466 151.628L23.1556 151.51L22.8145 150.645L22.7845 150.443L22.8581 150.408L22.8936 150.282L22.5607 150.364L22.0641 150.626L22.1405 151.27L22.2278 151.429L22.6044 151.789L22.5825 151.928L22.8281 152.171L22.8581 152.296L23.2265 152.455L23.7231 152.856L23.8787 152.897L24.2634 153.699L24.5226 154.468L25.1011 155.32L25.2703 155.464V155.622L25.3385 155.497L25.4859 155.767L25.3903 155.519L25.5295 155.601L25.4995 155.524L26.0834 155.407L25.9579 155.352L25.5732 155.393L25.4476 155.227L25.8488 155.055L26.0862 154.807L26.4218 154.738L26.4436 154.689L26.3045 154.586L26.2744 154.455L26.55 153.942L26.6019 153.622L27.0849 153.311L27.2922 153.325L27.1749 153.603L27.3086 153.595L27.3604 153.401L28.3973 153.38L29.2787 153.497L29.628 153.38L29.7262 153.213L29.8381 153.164L30.2446 153.101L30.3129 153.011L30.8313 152.989L31.0605 153.03L31.377 153.21L31.4671 153.35L31.4534 153.453L31.6035 153.584L32.1165 153.688L32.2502 153.625L32.212 153.431L32.373 153.333L32.4549 153.341L32.534 153.562L33.2162 153.374L33.6009 153.505L33.6991 153.407L33.8192 153.489L33.8874 153.322L34.1248 153.314L34.3404 153.175L34.6051 153.292L34.9543 153.279L35.0799 153.45L35.1262 153.797L35.2217 153.999L35.601 154.545L36.2696 154.253L36.7716 154.343L37.7348 154.689L38.1632 154.905L38.2506 154.878L38.2233 155.189L38.2915 155.437H38.4252L38.3788 154.883L38.6899 155.077L38.9136 155.104L39.0937 155.47L39.2356 155.492L39.2656 155.573L39.7923 155.939L40.0297 156.187L40.3489 156.089L40.4963 156.318L40.4089 156.608L40.5072 156.927L40.5972 156.981L40.7009 157.189V157.301L40.5727 157.522L40.6109 157.563L40.5372 157.653L40.6327 157.748L40.7227 158.037L40.8346 158.092L41.1375 158.529L41.203 158.507L41.2548 158.589L41.203 158.624L41.5577 159.178L41.7815 159.186L42.1689 160.029L42.5782 160.125L43.5933 160.766L43.6151 160.717L43.7052 160.739L43.8662 160.987L44.1117 161.023L44.7721 160.911L44.9931 160.703L45.6916 160.338L45.899 160.324L45.9945 160.198L46.8268 160.343L46.955 160.411L47.0369 160.542L47.2497 160.605L47.7245 160.57L47.5935 159.235L47.6918 158.902L47.4407 157.014L45.5852 156.176L45.4297 155.914L45.4133 155.748L45.6562 155.249L45.3233 154.973L45.2414 154.771L44.7448 154.736L44.5893 154.659L44.4692 154.812L44.27 154.861L44.2018 154.853L43.9344 154.556L43.5715 154.695L42.5264 154.654L42.48 154.591L42.1007 154.613L42.0652 154.487L41.323 154.433L41.1975 154.288L41.2739 154.171L41.1539 154.135L41.1839 154.081L41.1184 154.013L40.9547 154.026L40.7337 153.437L40.7991 153.325L40.5263 153.082L40.4226 153.123L40.3489 153.041L40.3244 152.716L39.604 152.585L39.3202 152.427L39.4375 152.102L39.1619 151.693L38.7035 151.499L38.5316 151.278L38.2642 151.126L37.6721 151.036L37.4347 150.716L37.4511 150.356L37.7267 149.933L38.2478 149.879L38.2424 149.824L38.5316 149.712L38.6708 149.775L38.9464 149.595L39.1265 149.663L39.8004 149.164L40.1361 149.142L40.4471 148.809L40.6845 148.746L40.7937 148.787L40.8373 148.689L41.3994 148.514L41.7405 148.626L41.9697 148.591L42.5046 148.703L42.6383 148.847L42.772 149.216L42.8838 149.161L42.9712 149.202L43.244 149.48L43.1867 149.287L43.6533 149.295L44.4037 149.142L44.5511 149.259L44.9085 149.232L44.9604 149.281L45.034 149.079L45.5361 149.003L45.5579 148.85H45.3587L45.3533 148.795L45.6371 148.637L45.6207 148.386L45.4188 148.372L45.2169 148.503L45.0832 148.427L44.8621 148.572L43.5851 148.536L43.1676 147.696L42.8047 147.404L42.6546 147.396L42.4909 147.265L42.4554 146.544L42.5155 146.441L42.7065 146.517V146.296L43.3532 145.726L43.7925 145.739L44.5783 145.968L44.884 146.121L45.105 146.315L45.708 146.58L46.4475 147.03L46.4175 146.67L46.2319 146.342L45.7708 146.072L45.7353 146.157L45.6071 146.192L44.9167 145.761L44.8567 145.671L44.9849 145.428L44.9604 145.379L44.8649 145.371L44.6657 145.649L44.0872 145.447L44.1254 145.363L44.0381 145.294L44.0544 145.245L44.1718 145.322L44.9522 145.267L44.9685 145.128L44.8212 145.106L44.8294 145.038L44.7393 144.983L44.2782 145.033L44.0544 145.163L44.0272 145.123L44.2263 145.005L44.6493 144.964L44.7011 144.852H44.7584L44.7666 144.937L44.8949 144.951L44.9249 144.839L45.0231 144.776L44.8294 144.263L44.7011 144.165L44.6111 143.99L44.3464 144.157L42.832 144.386L42.2399 144.795L42.2917 144.934L42.7065 145.357L42.6328 145.565H42.4309L42.3327 145.78L42.45 145.835L42.4445 145.917L42.3763 146.001L42.2863 145.993L42.2699 146.195L41.6778 146.563L41.5877 146.793L41.1675 147.237L40.6545 147.488L40.2479 147.308L39.8114 147.537L39.735 147.668L39.151 147.884L38.5262 148.225L37.8167 148.239L37.5739 148.446L36.848 148.492L36.5288 148.318L35.9858 147.75H35.8657L35.5983 147.202L35.4946 147.104L35.4264 147.112L35.2054 147.458L34.9407 147.543L34.9461 147.458L34.7169 147.436L34.5614 147.499L33.7319 147.243L33.68 147.145L34.6596 146.277L34.9789 146.151L34.6214 146.241L33.65 147.114L33.429 147.183L33.4508 146.522L33.238 146.135L33.2844 146.037L33.1725 145.606L33.0088 145.502L32.7932 145.142L32.8151 144.836L32.0592 144.121L31.9419 144.067L31.5926 144.178L30.5257 143.63L30.583 143.442L30.5584 143.212L30.3347 142.88L30.141 142.776L29.8681 142.735L29.5925 142.77L29.6116 142.931Z" fill="#E46EC3" stroke="white" stroke-width="0.5"/>
<path d="M53.0133 140.959L53.3025 141.21L53.3844 141.169L53.5099 141.204L53.5563 141.335L53.8592 141.496L53.8728 141.6L53.0815 141.635L52.7868 141.559L52.4894 141.232L52.9069 140.967L53.0133 140.959ZM49.7825 138.789L50.1291 138.798L51.2315 139.07L52.664 139.717L53.3516 139.941L53.589 140.066L53.6109 140.29L52.6122 140.68L51.9027 140.653L51.3761 140.522L50.6994 140.126L49.3405 139.193L49.245 139.076L49.2832 138.874L49.4606 138.77L49.7825 138.789ZM59.4775 98.4788L62.4081 99.8022L62.681 99.2946L63.2649 99.1336L63.3822 99.1255L64.441 99.5757L64.0917 100.083L63.8079 100.831L63.8024 101.008L63.4013 101.881L62.5473 102.746L62.6264 103.303L62.2853 105.09L61.9306 105.532L61.906 105.666L61.9497 106.024L62.2444 106.264L62.8802 106.411L63.3386 106.255L63.9825 106.509L64.5965 106.586L65.4806 106.523L66.8804 105.707L67.7017 105.658L67.8109 105.587L67.8682 105.628L68.1847 105.298L68.594 105.129L69.4371 105.262L69.3771 106.064L69.5326 106.408L69.5545 106.662L69.5026 106.788L69.7537 106.979L70.0893 106.556L70.6159 106.217L71.0143 106.127L71.3909 105.833L71.6419 105.467L72.0649 105.284L72.5151 105.382L72.5315 105.846L72.8371 106.351L72.8289 107.039L72.8971 107.412L73.1918 107.399L73.2791 107.617L74.5152 108.979L75.1674 109.211L76.6135 110.215L76.5999 110.313L75.7158 110.657L75.8768 111.759L75.6831 111.849L75.6612 111.926L75.3502 111.975L74.507 111.863L74.2642 111.675L74.1659 111.26L73.9149 111.394L73.5083 111.47L73.1618 111.617L72.9162 111.975L72.8289 112.537L72.2968 112.774L72.2286 113.061L73.7048 114.119L73.6802 114.758L73.7539 115.822L73.8303 116.166L74.0732 116.461L74.0568 116.832L74.4852 116.728L75.8277 116.714L75.6067 117.162L74.7035 117.492L73.9913 118.032L73.4346 118.9L73.1236 119.132L73.1973 119.656L72.818 119.929V120.18L72.938 120.573L73.421 120.524L73.6857 120.335L74.4033 120.363L74.6789 120.215L75.0336 120.895L74.9954 120.985L73.2627 121.41L73.6475 121.921L73.9749 122.033L74.2505 122.409L74.0813 122.486L74.5316 123.121L75.0418 123.703L75.3665 123.905L75.4757 124.281L75.7786 124.527L76.1278 125.902L76.5781 125.749L76.9792 125.714L77.8223 125.498L78.1498 125.086L78.439 124.393L78.7337 124.085H78.9766L79.6287 124.344L79.9562 124.366L80.2017 124.196L80.7639 123.4L81.1568 123.168L81.3287 123.132L81.6561 123.195L82.3219 123.719L82.7585 123.67L82.9823 123.361L83.0941 123.026L83.3752 122.718L84.1392 122.117L84.2893 121.893L85.1133 121.487L85.5718 121.353L86.0629 121.38L86.3904 121.484L86.8215 121.645L87.3836 121.973L87.4955 122.183L87.591 122.903L87.8065 123.359L88.1176 123.542L88.8871 123.675L89.1681 123.858L87.9212 126.235L87.7956 126.262L87.8311 126.437L87.2772 127.239L87.3045 127.678L87.1026 127.58L86.5022 128.691L86.4258 129.283L86.3276 129.471L85.8665 129.359L85.5854 129.43L85.3262 129.354L85.2061 129.452L85.1597 129.793L84.876 130.219L84.5731 130.385L84.0519 130.393L83.6972 130.568L83.629 130.805L83.7381 131.043L84.0355 131.226L83.8745 131.378L83.3861 131.575L83.2442 131.736L82.8267 131.569L81.7353 131.597L81.2441 131.165L81.1322 131.283L81.2932 131.793L81.1977 132.178L81.4569 132.609L82.3847 132.734L82.1036 134.093L81.4569 134.08L79.9971 133.864L78.7419 133.586H78.0297L77.5467 133.698L76.529 134.205L75.7486 135.013L75.08 135.493L74.8263 135.597L74.3515 135.701L73.2491 135.534L72.6652 135.57L72.0649 135.763L71.4182 136.113L70.7496 136.907L70.3321 138.167L70.1384 138.473L69.59 139.079L68.6349 139.927L67.3279 140.852L64.6074 141.63L63.9252 142.178L60.6863 143.068L59.7367 142.97L56.4951 141.886L55.9029 142.443L55.6192 142.623L55.4991 142.937L55.2563 142.945L55.1307 143.223L54.5905 143.758L54.4868 144.209L54.1921 144.694L53.8128 145.09L53.4335 145.311L52.5358 145.728L51.6844 145.908L51.0923 146.173L50.0554 146.416L48.8848 146.277L48.0771 146.012L46.6691 145.041L44.6908 143.54L44.0551 143.472L43.2419 143.494L42.4261 143.202L40.5269 143.049L40.2158 142.923L39.8365 142.258L39.6974 141.709L39.6319 140.361L38.9197 139.351L38.7478 138.607L38.6277 138.426L36.9796 138.058L36.3657 137.501L35.5662 137.39L34.7367 137.605L34.0709 138.001L33.195 139.114L32.7557 139.199L31.5196 138.808L31.1621 138.459L31.7269 138.167L31.9507 137.952L32.3436 136.928L32.461 136.587L32.4309 136.421L31.9916 135.349L31.978 134.917L32.3109 134.402L32.6956 134.102L33.1022 134.017L33.7189 133.78L34.2155 133.766L34.5866 133.668L35.8472 133.076L37.1434 132.582L37.6318 132.456L38.5213 132.47L38.9525 132.672L39.138 132.846L38.7505 132.77L38.6905 133.076L39.2526 133.417L39.5282 133.744L39.741 133.834L39.8011 133.771L39.6537 133.597L39.6592 133.471L39.8502 133.52L39.9894 133.417L40.0658 133.474L40.4969 132.972L40.4287 132.895L40.4723 132.819L40.8052 132.554L41.1327 132.407L41.1545 132.164L40.9608 131.703L39.6783 129.798L39.5691 129.539L39.6374 129.01L39.8447 128.71L40.3414 127.648L40.4832 127.545L40.4532 127.329L40.1258 127.042L39.8829 126.939L39.7219 127.203L39.7301 127.504L39.6183 127.392H39.5719L39.5555 127.517L39.4982 127.495L39.389 127.307L39.108 127.217L38.917 127.37L38.8297 127.334L38.6005 127.474L38.3112 127.501L38.1611 127.43L38.0793 127.283L38.1257 126.906L38.7424 124.726L38.756 124.153L38.696 124.104L38.5404 124.18V123.804L38.8051 123.19L38.9907 123.05L39.2963 123.1L39.6019 122.644L39.7192 122.603L40.1203 122.786L40.1967 122.728L40.516 122.72L40.8107 122.909L41.351 123.124L41.6102 123.34L42.5216 122.535L43.1437 122.114L43.5093 121.801L43.7085 121.528L43.9759 121.34L44.4562 120.529L45.0046 119.773L48.3336 115.915L49.2668 114.723L49.275 114.616L49.3787 114.589L49.5643 114.744L49.7662 114.444L49.7089 114.409L49.5397 114.619L49.4496 114.542L49.436 114.417L50.3255 113.506L50.623 113.287L51.327 112.523L53.248 110.059L54.5441 108.155L56.2113 105.251L57.4201 103L59.4775 98.4788ZM40.5487 133.043L40.1258 133.559L40.1995 133.629L40.1176 133.872L40.1449 134.02L40.003 133.992L40.0494 134.11L39.9812 134.186L40.0412 134.241L40.0139 134.309L40.0821 134.331L40.284 134.121L40.5869 134.282L40.9935 134.65L42.5652 135.354L43.1 135.752L44.3607 136.38L45.182 136.931L46.3772 137.327L46.3471 137.381L46.4208 137.436L46.53 137.409L47.4714 138.437L48.0498 138.939L48.5601 139.286L48.6638 139.51L49.406 140.427L49.6134 140.615L50.5629 141.212L50.9695 141.297L51.6735 141.796L52.4294 142.088L52.9996 142.192L54.5795 142.277L54.8824 142.241L55.0107 142.124L55.1007 141.971L55.1062 141.728L55.2262 141.72L55.4991 140.809L55.1662 140.62L55.1526 140.53L55.0625 140.579L53.3653 139.586L51.8618 138.89V138.828L51.7499 138.8L51.7445 138.863L49.9408 138.32L48.9012 137.93L48.5819 137.687L48.1071 137.018L48.0553 136.888L48.1208 136.819L48.1262 136.38L47.4686 135.649L46.852 135.308L46.4645 135.28L46.2489 135.37L46.0852 135.299L45.2093 134.233L45.0374 134.142L44.9201 133.99L44.5735 134.039L44.3061 133.99L44.2161 134.017L44.1506 134.142L44.0414 134.156L43.6103 134.129L43.4247 133.99L43.4548 133.76L43.3129 133.725L43.2256 134.011L43.0618 133.801L42.0331 133.438L41.7084 133.133L41.3837 132.623L40.767 132.915L40.6333 133.089L40.5487 133.043Z" fill="#E46EC3" stroke="white" stroke-width="0.5"/>
</svg>
