<svg width="187" height="219" viewBox="0 0 187 219" fill="none" xmlns="http://www.w3.org/2000/svg">
<path d="M90.0251 84.4571L90.685 84.4972L91.033 85.2268L91.6445 84.9548L92.4246 84.8346L92.4542 85.484H93.7678L94.1832 85.7075L94.6365 85.7645L94.898 85.6147L95.7646 85.9226L95.7182 84.512L96.6292 84.4866L96.8695 84.7861L97.4536 85.0222L97.8859 85.4186L97.9976 85.4819L98.2359 85.2457L98.1305 85.0981L98.2549 84.881L98.4172 85.0054L98.9296 84.4466L98.8832 84.2463L98.6323 84.1451L98.5416 83.6854L99.1384 83.698L99.2986 83.3417L99.4736 83.2405L99.9249 83.3016L100.028 82.9685L100.142 82.9495L100.22 82.5573L100.513 82.3802L100.684 82.3633L100.754 82.1124L100.895 82.1229L101.076 81.9374L101.188 81.9753L101.538 81.8003L101.19 81.4039L101.416 81.4503L101.222 80.7776L101.852 80.1957L101.612 79.8625L101.757 79.8161L101.772 79.5294L101.7 79.2953L101.416 79.2721L101.468 78.7871L101.011 78.7513L100.882 78.4835L100.657 78.4076L100.638 78.1757L100.342 77.7476L100.467 77.5557L100.64 77.5389L100.758 77.4904L100.766 77.3175L100.975 77.1593L101.082 77.2837L101.209 77.0328L101.009 77.0455L100.996 76.6975L101.599 76.7144L101.692 76.6048L101.582 76.4803L101.616 76.3665L101.481 76.1535L101.797 76.1767L101.833 76.0059L102.236 76.0354L102.255 76.2421L102.833 76.1999L102.82 75.8478L103.223 75.8794L103.235 76.1725L103.493 76.2231L103.541 76.4002L103.712 76.4445L103.786 76.6828L103.796 77.0033L104.079 77.0834L104.212 76.7756L103.984 76.7271L103.914 76.4023L104.087 76.3855L104.163 76.0418L104.391 76.0903L104.488 75.8942L104.688 75.8815L104.842 75.717L105.732 75.7318L105.772 76.0565L105.998 76.1345L106.044 76.8367L105.945 77.0602L106.084 77.1298L106.177 76.9927L106.685 77.1214L106.978 77.0012L107.014 77.3807L106.837 77.4819L106.883 77.6612L106.71 77.6759L106.727 77.8783L106.605 77.9859L107.406 77.9648L107.469 77.8551L107.613 77.8657L107.634 77.9838L108.051 78.5109L108.113 78.8356L108.511 78.7829L108.435 78.2853L108.806 78.2305L108.905 77.659L110.636 77.6106L110.62 77.813L110.674 77.8172L110.613 78.2178L111.275 78.3359L111.32 78.4582L111.682 78.4624L111.836 78.3022L111.95 78.2832L112.047 78.1482L112.302 78.1124L112.439 77.8362L112.857 77.8467L112.832 78.1061L113.681 79.0296L113.517 79.2763L113.384 79.7571L113.515 80.1177L113.253 80.2357L113.257 80.4677L113.456 80.6912L113.51 80.9569L114.706 81.1066L115.676 81.0328L115.868 80.5309L116.659 80.3559L116.834 80.5204L117.215 80.3306L117.658 80.3264L117.791 80.1366L117.93 80.124L118.017 80.3412L118.019 80.8409L118.192 81.037L118.305 82.2494L118.83 82.0259L119.615 82.4245L120.172 82.4118L120.222 82.6817L120.528 82.6669L120.821 83.2299L122.407 83.348L122.419 83.4661L122.634 83.4977L122.729 87.7065L122.816 87.8899L122.565 87.9384L121.989 88.3918L121.86 88.5436L121.839 89.7855L122.59 89.4165L122.799 89.8994L123.282 89.9437L123.682 90.1735L123.581 90.3274L123.362 90.3506L123.202 90.5509L122.784 90.4329L121.871 91.0296L121.81 91.4977L121.367 92.0206L120.665 91.8119L120.399 92.2209L120.281 91.8709L120.169 91.911L120.235 92.0312L119.9 92.1261L119.788 91.9426L119.59 92.027L119.522 92.3538L119.701 92.4339L119.954 92.9969L119.912 93.1297L120.06 93.2331L120.279 92.7628L120.49 92.7924L121.023 93.0327L120.414 93.6147L119.326 93.9669L119.471 94.319L119.244 94.4265L118.892 94.4624L118.725 94.7449L118.063 94.4645L117.823 94.9031L117.66 94.9389L117.62 95.0443L117.738 95.1687L117.462 95.4914L116.869 95.5272L116.844 95.7444L116.694 95.6706L116.486 95.8646L116.602 96.0164L116.304 96.28L116.749 96.5815L116.41 96.7586L115.94 96.455L115.777 96.708L115.474 96.8092L115.564 97.4207L115.29 97.4966L115.347 97.6948L114.835 97.3047L113.974 97.3954L113.873 97.6021L113.618 97.5177L113.993 96.9885L113.92 96.6806L114.044 96.5035L114.006 96.3622L113.882 96.2926L114.162 95.9152L113.698 95.504L113.403 95.5251L113.348 95.2995L113.07 95.4049L113.011 95.2067L112.821 95.2404L112.829 95.4049L112.216 95.6664L112.1 96.2821L111.807 96.2779L111.674 96.5372L111.307 96.4972L110.987 96.7628L111.073 96.961L110.531 97.3406L110.24 97.3364L110.177 97.4376L109.907 97.4924L109.854 98.8419L109.559 98.3253L108.676 98.7217L108.931 99.369L108.8 99.6263L108.347 99.6874L107.758 100.063L107.427 100.219L107.174 100.088L107.191 99.6305L107.556 99.0992L107.469 98.9031L107.278 98.9663L107.153 98.6036L105.877 98.9726L105.694 98.9558L105.555 99.0253L105.373 98.9811L105.131 99.0401L105.23 98.5109L104.992 98.4898L104.872 98.3443L104.718 97.9774L104.61 97.9964L104.486 98.2009L104.41 97.8424L103.853 98.1461L103.999 98.6184L103.661 98.8314L103.478 98.8166L103.358 98.6711L103.315 98.8567L103.436 99.0022L103.385 99.2931L103.278 99.31L103.103 99.1624L102.575 99.4407L102.044 99.1013L101.806 99.0823L101.738 98.9157L101.409 99.0232L101.268 98.7702L101.561 98.4434L101.732 97.6463L101.913 97.3638L101.823 96.8134L102.021 96.6933L102.078 95.2573L100.806 95.2932L100.68 95.5272L100.18 95.7064L99.2902 96.3749L98.9043 96.0733L98.3245 96.1956L98.082 96.1513L98.3561 96.5225L98.3856 96.8788L97.8985 97.2499L96.1126 97.4819L95.1468 98.0955L94.5648 97.1951L95.0203 96.9252L94.7525 96.2589L94.4004 96.1303L93.3861 96.4255L92.2939 96.0375L91.9692 95.8034L91.461 95.9384L91.248 95.0823L90.9339 95.2299L90.7989 95.1139L90.6007 95.2109L90.6091 94.9663L90.4658 95.0949L90.4763 94.8229L90.4299 94.5741L89.6624 94.1229L89.4072 94.9558L88.5912 95.0486L88.4352 94.7133L88.7051 93.4397L87.8321 92.5942L88.0641 92.3854L87.7119 91.9257L88.296 91.4049L88.102 91.2552L88.4478 90.2494L88.0746 89.4756L87.5622 89.4482L87.3556 88.7376L88.0683 88.8071L89.1437 88.2547L89.3124 87.5104L89.4937 86.454L89.9955 86.0344L90.0251 84.4571Z" fill="#E46EC3" stroke="white" stroke-width="0.5"/>
<path d="M61.2458 124.59L60.8958 124.775L60.4677 124.866L60.2653 125.001L60.084 125.25L59.8815 125.678L59.7234 126.129L59.7002 126.534L59.521 126.624L59.386 126.85L59.3755 127.025L57.7055 127.497L51.793 129.368L51.2047 125.03L50.8357 124.008L50.4983 123.348L50.5742 123.099L50.0914 122.475L50.0408 121.695L47.6349 120.978L46.802 120.632L45.5727 119.394L45.3175 118.403L44.706 117.631L45.0287 115.162L45.1847 114.203L44.9064 113.728L44.8157 112.588L44.1768 111.873L44.3244 111.312L44.0967 110.334L43.9406 110.068L44.0756 109.089L44.1958 108.995L44.1768 108.006L43.4409 107.942L43.4388 107.681L43.1309 107.457L42.996 107.685L42.7282 107.616L42.7408 107.98L42.6396 108.518L42.1926 108.474L41.9459 108.349L40.9696 108.246L41.1341 107.829L40.9591 107.43L41.0772 107.072L40.7925 105.627L40.5774 105.577L40.3919 106.053L40.141 105.929L40.2021 105.762L39.7045 105.536L39.3798 105.237L39.3418 104.653L39.6117 103.732L39.4683 103.403L39.7235 103.529L39.89 103.103L40.2063 102.819L40.6069 102.821L40.6808 102.515L41.1868 102.504L41.5368 102.568L41.9396 102.329L41.8447 102.154L42.1293 101.796L42.2158 101.57H42.6691L42.4288 101.277L42.8231 100.583L42.8083 100.396L42.9918 100.025L42.939 99.7041L42.6628 99.5734L42.6502 99.4111L42.4562 99.352L42.4414 98.8101L42.5173 98.3652L42.2095 97.9372L42.646 97.4733L42.5764 97.2898L43.093 96.6741L43.0297 96.5834L43.1562 96.6678L43.2321 96.6404L43.4704 96.2672L43.618 96.1849L43.6981 96.05L43.6307 95.7611L43.4662 95.3837L43.3987 94.9155L43.5231 94.652L43.6075 94.3736L43.7298 94.4179L43.8289 94.4053L43.9701 94.4833L44.0376 94.4812L44.0903 94.4432L44.1262 94.477L44.1473 94.5993L44.2422 94.6288L44.3096 94.7342L44.3961 94.7005L44.3898 94.5761L44.4846 94.5529L44.5099 94.4959L44.5774 94.5023L44.6112 94.4538L44.7145 94.4453L44.7672 94.4706L44.8663 94.3441L44.8452 94.2155L45.0202 94.129L45.1531 94.2071L45.229 94.2977L45.2501 94.4496L45.2226 94.5233L45.0898 94.6899L45.0582 94.7722L45.0898 94.8523L45.2058 94.9577L45.4019 95.0821L46.2601 95.8855L46.3339 95.915L46.4604 95.7948L46.7935 95.8138L46.8779 96.012L47.1415 96.1491L47.5632 96.4759L47.6412 96.478L47.7298 96.4042L47.812 96.2123L48.1409 96.0204L48.3434 95.9614L48.7904 95.7231L49.0054 95.5228L49.2374 95.3541L49.3913 95.2951L49.444 95.2382L49.4651 95.1686L49.4398 94.9619L49.4504 94.749L49.6106 94.2176L49.676 94.1248L49.7603 94.0953L50.1019 94.2703L50.3528 94.2724L50.4688 94.1691L50.5131 93.8844L50.5721 93.8549L50.7619 93.895L50.8357 93.8444L50.8589 93.7432L50.7977 93.4691L50.7956 93.273L50.9327 93.1169L50.9538 93.1106L51.0571 93.2413L51.0929 93.3742L51.3101 93.4923L51.5041 93.7558L51.6981 93.7664L51.8921 93.8718L51.9427 93.8296L51.9743 93.6546L51.8921 93.429L51.8541 93.1992L51.8794 93.1802L52.1177 93.1739L52.2 93.1443L52.3012 93.157L52.512 93.3257L52.5964 93.3425L52.8178 93.2013L52.8958 93.2392L52.9844 93.332L53.0835 93.3531L53.4988 93.1971L53.7413 93.0705L53.8193 93.1591L53.891 93.4079L54.0239 93.5133L54.182 93.5787L54.2875 93.7558L54.2959 93.9814L54.4224 94.1459L54.7935 94.3989L55.0761 94.4812L55.1456 94.4559L55.1583 94.4095L55.1014 94.2703L55.1182 94.2197L55.4577 94.0574L55.6665 94.0595L55.7782 94.2661L55.9511 94.1902L56.0144 93.9604L56.0418 93.1401L56.0755 92.847L56.1746 92.7964L56.337 92.7838L56.4319 92.9314L56.5584 93.0241L56.6238 93.0136L56.6744 92.9482L56.7798 92.9229L56.8557 93.0748L57.0349 93.0705L57.0877 93.1486L57.288 92.9609L57.347 92.9546L57.4461 92.8702L57.4925 92.9419L57.4756 93.0811L57.5136 93.176L57.8214 93.2477L57.8446 93.2266L57.8193 93.157L57.8383 93.1001L57.9459 93.0748L57.988 93.0178L57.9585 92.8302L58.0576 92.7838L58.1272 92.7121L58.1609 92.7311L58.1968 92.6931L58.2305 92.7142L58.2769 92.6446L58.4161 92.7015L58.5426 93.1001L58.6016 93.1802L58.7071 93.1992L58.9453 93.1443L59.1499 93.1675L59.3143 93.2013L59.3944 93.294L59.5526 93.623L59.5442 93.7115L59.4598 93.8254L59.3987 94.0721L59.4282 94.4959L59.5315 94.8101L59.6264 94.8671L59.7529 94.8797L60.1114 94.7448L60.2695 94.7574L60.318 94.827L60.2695 95.0336L60.3011 95.1707L60.5837 95.3056L60.668 95.5334L60.7988 95.6346L61.0265 95.6662L61.2036 95.6156L61.3006 95.6219L61.5937 95.7274L62.0639 95.7801L62.1715 95.8243L62.241 95.9361L62.3191 95.9593L62.4161 95.8771L62.7682 95.9614L63.0465 95.8855L63.1266 95.8876L63.386 96.244V96.2946L63.2974 96.3346L63.2869 96.3726L63.2932 96.7606L63.2996 96.8112L63.3459 96.8217L63.6686 96.6572L64.3876 96.4738L64.5795 96.3726L64.8472 95.9256L65.2795 94.7954L65.4018 94.6182L65.5452 94.5592L65.8235 94.5993L66.007 94.6941L66.047 94.7532L66.0576 95.0484L66.5573 95.6725L66.7155 95.7611L67.211 95.8222L67.6559 95.856L68.0818 95.8328L68.3349 95.8834L68.6511 95.8792L69.0581 95.7337L69.387 95.7168L71.1013 95.0189L71.1983 94.9366L71.2616 94.7658L71.3839 93.9625L71.755 92.09L72.0987 91.9741L72.3707 92.1069L72.6722 91.9741L72.8557 91.6536L73.1424 92.0964L73.1783 92.5118L73.3807 93.1928L73.7139 93.3236L73.931 93.0199L74.0407 92.9398L74.648 93.3046V93.5576L74.5109 93.5808L74.3738 94.0552L75.1119 94.7743L74.648 95.0969L74.7302 95.4596L74.7281 95.8475L75.3016 95.6683L75.6769 97.5787L76.2189 98.4411L76.3011 98.77L77.193 100.103L77.2732 100.432L77.0749 101.127L76.4255 100.594L75.7718 101.174L75.7128 101.849L75.0655 102.243L75.1983 102.97L75.3311 103.16L74.8483 102.994L74.5004 103.447L74.7133 103.689L75.4619 104.957L75.3269 105.06L75.2468 104.98L74.6332 105.079L74.5278 105.372L75.0591 105.324L75.3522 106.338L76.4951 107.468L77.3807 106.985L77.8066 107.365L77.8319 107.601L77.5599 107.963L77.716 108.493L79.0528 108.946L79.2911 109.214L79.9595 109.467L80.6237 109.931L81.5072 111.618L82.2578 112.931L82.6311 113.098L81.7223 114.099L76.8894 117.477L76.5815 117.577L76.4023 117.319L75.2236 117.136L75.4007 116.727L74.2705 115.289L73.7581 115.367L73.4208 114.724L72.7207 113.669L70.2305 114.243L68.8198 118.015L67.1055 117.874L66.9875 119.173L65.7307 119.276L64.0797 120.809L63.7339 121.349L63.2616 121.865L62.3612 123.217L61.2458 124.59Z" fill="#E46EC3" stroke="white" stroke-width="0.5"/>
<path d="M140.834 117.176L141.323 117.494L141.528 117.735L142.044 117.781L142.244 118.296L144.068 118.091L145.355 119.894L147.305 119.213L148.18 119.576L148.163 119.997L149.565 120.613L150.757 121.279L152.03 121.311L152.26 121.661L152.454 121.655L152.684 121.505L152.804 121.806L152.937 121.96L153.121 121.701L153.241 121.703L153.087 121.943L153.224 121.973L153.367 121.979L153.511 122.087L153.643 121.842L153.74 121.838L153.665 122.045L153.458 122.199L153.515 122.262L153.694 122.226L153.549 122.418L154.906 124.01L155.227 125.222L155.891 125.946L155.765 126.831L155.815 127.164L155.965 127.295L156.389 127.143L156.458 127.238L156.819 127.455L156.971 127.59L157.679 127.742L157.736 127.822L157.846 128.24L157.69 128.984L157.255 129.625L157.038 129.473L156.52 129.011L156.3 128.957L155.969 129.026L155.733 129.121L155.341 129.391L155.079 129.416L154.959 129.347L154.888 129.134L154.847 129.113L154.628 129.17L154.523 129.138L154.495 128.904L154.449 128.813L154.398 128.548L154.247 128.432L154.168 128.295L153.996 128.2L153.956 128.263L153.871 128.305L153.736 128.273L153.54 128.429L153.481 128.545L153.329 128.581L153.268 128.666L153.158 128.731L152.956 128.765L152.893 128.653L152.867 128.657L152.671 128.843L152.543 128.813L152.498 128.775L152.374 128.893L152.17 128.927L152.089 128.902L152.06 128.944L151.906 128.992L151.847 129.104L151.803 129.115L151.607 129.056L151.598 129.125L151.537 129.191L151.526 129.264L151.482 129.313L151.398 129.309L151.238 129.364L150.976 129.355L150.727 129.568L150.578 129.583L150.426 129.486L150.158 129.41L150.065 129.317L150.036 129.33L150.012 129.454L149.932 129.528L149.563 129.684L149.369 129.659L149.184 129.686L149.102 129.621L149.007 129.642L148.905 129.728L148.832 129.931L148.642 130.064H148.482L148.399 129.954L148.345 129.937L148.229 129.981L148.075 130.11L147.978 130.142L147.798 130.152L147.697 130.059L147.556 130.072L147.419 130.036L147.385 130.093L147.436 130.209L147.423 130.262L147.362 130.228L147.301 130.241L147.065 130.5L146.649 130.764L146.584 130.837L146.478 130.869L146.432 130.943L146.478 130.994L146.588 130.916L146.679 130.913L146.814 131.004L146.921 131.019L147.041 131.375L147.208 131.466L147.539 131.415L147.67 131.297L147.978 131.341L148.123 131.232L148.226 131.244L148.29 131.316L148.267 131.388L148.302 131.407L148.477 131.356L148.574 131.548L148.912 131.717L149.057 131.858L149.078 132.01L148.728 132.128L148.562 132.297L148.737 132.567L148.684 132.685L148.574 133.142L148.486 133.298L148.57 133.574L148.65 134.22L148.733 134.462V134.913L148.792 135.301L148.914 135.607L148.886 135.725L148.893 135.782L148.952 135.858L148.941 136.018L149.156 136.493L149.144 136.666L149.211 136.976L149.287 137.03L149.498 137.501L150.017 138.808L150.08 138.892L150.135 139.09L150.086 139.261L150.093 139.371L149.989 139.476L149.787 139.911L149.795 139.951L149.844 140.012L150.131 139.993L150.187 140.018L150.196 140.174L150.28 140.343L150.284 140.484L150.356 140.655L150.263 140.828L150.135 140.839L150.04 140.919L149.934 140.855L149.821 140.834L149.511 140.923L149.137 141.231L148.76 141.338L148.674 141.437L148.671 141.612L148.737 141.735L148.872 141.868L149.059 141.99L149.409 142.08L149.5 142.239L149.49 142.264L149.445 142.255L149.329 142.319L149.283 142.27L149.266 142.319L149.194 142.346L149.127 142.317L149.099 142.376L148.8 142.502L148.802 142.557L148.711 142.618L148.648 142.595L148.539 142.639L148.536 142.593L148.423 142.637L148.402 142.576L148.364 142.574L148.14 142.612L148.127 142.781L148.06 142.949L147.978 143.299L147.832 143.441L147.769 143.677L147.811 143.898L147.942 144.17L148.064 144.284L148.176 144.294L148.22 144.345L148.142 144.436L147.969 144.522L147.944 144.647L147.938 144.832L148.024 144.952L148.018 145.252L148.21 145.389L148.161 145.555L148.26 145.692L148.224 145.895L148.089 145.973L148.014 145.977L147.94 145.918L147.891 145.916L147.773 146.013L147.71 146L147.6 146.076L147.569 146.057L147.541 145.962L147.575 145.688L147.499 145.572L147.432 145.38L147.337 145.319L147.176 145.279L147.012 145.121L146.944 144.927L146.885 144.822L146.837 144.79L146.592 144.773L146.554 144.855L146.5 144.87L146.468 144.83V144.754L146.438 144.744L146.257 144.729L146.192 144.687L146.093 144.701L146.038 144.613L145.709 144.56L145.511 144.699L145.336 144.67L145.076 144.674L144.973 144.501L144.606 144.206L144.507 143.989L144.456 143.94L144.216 143.755L144.022 143.702L143.946 143.603L143.885 143.58L143.716 143.284L143.674 143.055L143.693 142.951L143.742 142.884L143.716 142.861L143.617 142.863L143.398 142.934L143.332 143.076L143.29 143.103L143.166 142.941L143.092 142.899L142.932 142.918L142.814 142.873L142.698 142.907L142.586 142.831L142.371 142.789L142.266 142.732L142.158 142.743L142.036 142.637L141.911 142.643L141.852 142.599L141.7 142.654L141.584 142.498L141.165 142.401L141.072 142.253L140.914 142.194L140.558 142.342L140.427 142.293L140.357 142.431L140.256 142.462L139.63 142.319L139.545 142.449L139.341 142.414L139.242 142.445L139.143 142.557L139.063 142.441L138.989 142.397L138.926 142.399L138.772 142.494L138.641 142.352L138.512 142.393L138.36 142.319L138.219 142.327L138.145 142.296L138.023 142.156L137.688 142.177L137.437 142.123L137.192 142.118L136.977 142.038L136.779 142.061L136.652 142.015L136.218 142.129L135.874 142.14L135.725 142.093L135.605 141.927L135.531 141.882L135.166 141.844L134.987 141.874L134.521 141.752L134.181 141.756L134.002 141.931L133.81 141.958L133.743 142.133L133.677 142.186L133.205 142.144L133.036 142.161L132.823 142.11L132.705 142.277L132.539 142.293L132.14 142.407L132.041 142.403L132.009 142.376L131.946 142.184L131.817 142.108L131.269 142.085L130.864 142.161L130.814 142.137L130.748 142.047L130.559 142.026L130.422 141.912L130.293 141.975L130.156 141.935L129.958 142.036L129.926 142.04L129.884 141.842L129.671 141.935L129.443 141.792L129.047 141.836L129 141.745L129.237 141.674L129.346 141.45L128.574 141.085L128.178 141.003L128.081 140.602L127.923 140.533L127.98 140.29L127.824 140.198L127.87 139.721L128.414 139.061L128.267 138.812L127.653 138.888L127.714 138.692L127.482 138.662L127.343 138.757L126.651 138.515L126.649 138.152L127.545 137.3L127.702 137.227L127.799 136.963L127.704 136.556L127.885 136.347L127.978 136.103L127.959 135.398L127.533 135.107L127.301 134.793L127.046 134.757L126.654 134.397L126.584 134.388L125.669 134.289L124.887 133.541L124.754 133.332L124.941 132.64L124.549 131.963L123.233 131.042L123.153 130.791L122.993 130.599L122.959 129.895L121.81 129.865L121.736 128.788L122.974 128.879L122.751 128.29L122.573 126.14L122.964 125.482L123.292 124.763L123.651 124.17L124.121 123.641L124.992 122.747L126.107 121.739L128.45 120.392L129.426 120.588L130.679 120.356L132.077 120.602L132.073 120.775L132.309 120.839L132.589 120.508L132.703 120.851L132.83 120.697L133.203 120.832L133.331 120.529L133.597 120.571L133.975 120.683L134.597 120.959L134.154 120.512L134.438 120.459L134.871 120.68L135.278 120.624L135.687 120.841L135.822 121.186L136.13 121.14L136.123 120.765L137.365 120.626L137.188 117.53L137.3 117.324L138.358 117.56L138.959 116.885L139.482 117.435L140.142 116.594L140.834 117.176Z" fill="#E46EC3" stroke="white" stroke-width="0.5"/>
<path d="M23.6155 123.291L23.586 123.316L23.5228 123.301L23.3963 123.038L23.3541 123.015L23.3878 122.974L23.274 122.721L23.2529 122.553L23.158 122.449L23.1432 122.401L23.1664 122.367L23.2297 122.344L23.4532 122.433L23.6556 122.66L23.7252 122.922L23.6155 123.291ZM39.3793 105.237L39.702 105.539L40.1996 105.762L40.1384 105.931L40.3872 106.055L40.5728 105.579L40.7879 105.629L41.0725 107.074L40.9545 107.432L41.1274 107.831L40.965 108.248L41.9392 108.351L42.1859 108.476L42.6329 108.52L42.7341 107.982L42.7236 107.618L42.9913 107.687L43.1242 107.46L43.4341 107.683V107.944L44.17 108.008L44.189 108.997L44.0688 109.089L43.9339 110.068L44.0899 110.334L44.3176 111.312L44.17 111.873L44.8089 112.588L44.8996 113.728L45.1779 114.203L45.0219 115.164L44.6993 117.631L45.3108 118.405L45.5659 119.396L46.7952 120.632L47.6281 120.978L50.034 121.695L50.0846 122.475L50.5675 123.097L50.4916 123.346L50.8269 124.006L50.46 123.786L50.1395 123.809L49.9476 123.63L49.665 123.776L49.2307 123.645L49.1231 123.316L48.9418 123.236L48.733 123.379L48.5222 123.255L48.2164 123.166L48.1489 122.979L48.2143 122.654L48.073 122.23L47.8727 122.203L47.7546 122.266L47.6914 122.371L47.5712 122.409L47.3055 122.245L46.81 121.543L45.8443 122.5L45.3909 122.437L43.7715 122.605L42.9871 122.911L42.3672 122.926L41.9877 123.078L41.722 123.141L41.4711 123.128L41.1801 123.196L41.0978 123.331L40.4653 123.253L40.5222 123.514L40.3008 123.938L39.3688 124.632L39.7989 124.885L39.5333 125.14L39.1179 125.391L38.6224 125.604L38.3293 125.644L38.0551 125.825L37.4226 125.741L37.2918 126.068L36.7394 126.038L35.8011 125.806L35.7947 125.754L35.9487 125.779L36.0225 125.747L35.8664 125.692L35.8411 125.64L35.8559 125.498L35.9423 125.461L35.9297 125.364L35.9698 125.33L36.286 125.298L36.1195 125.201L36.0921 125.113L36.1469 125.056L36.3135 125.011L36.2228 124.91L36.1659 124.765L36.0667 124.685L36.0436 124.611L36.0794 124.573L36.2586 124.571L36.3177 124.461L36.0899 124.261L36.0077 124.229L35.8833 124.081L35.9698 123.968L36.1131 123.97L35.9676 123.898L35.9508 123.816L35.8938 123.797L35.9381 123.725L35.9297 123.643L36.0457 123.554L36.2249 123.578L36.1595 123.468L36.2228 123.426L36.1363 123.396L36.1237 123.339L36.2671 123.261L36.3683 123.093L36.4505 123.187L36.4379 123.103L36.4653 123.023L36.44 122.996L36.383 123.015L36.343 122.947L36.3978 122.859L36.4104 122.74L36.5032 122.608L36.518 122.447L36.771 122.175L36.8849 122.137L36.7773 122.097L36.7668 122.061L36.8975 122.042L36.9207 122.011L36.8343 121.962L36.752 121.83L36.577 121.673L36.6361 121.353L36.5876 121.138L36.7415 120.988L36.5791 120.927L36.6361 120.788L36.5559 120.495L36.5138 120.482L36.4568 120.512L36.3957 120.482L36.3029 120.545L36.2481 120.52L36.2966 120.425L36.3704 120.402L36.2375 120.267L36.1933 120.284L36.1595 120.261L36.1933 120.115L36.2713 120.056L36.2207 119.951L36.1363 119.917L36.111 119.932L36.0119 120.094L35.8095 120.214L35.6977 120.391L35.6935 120.543L35.6239 120.537L35.5523 120.486L35.5607 120.381L35.5248 120.318L35.5417 120.248L35.5965 120.193L35.5712 120.103L35.4974 120.054L35.4194 120.086L35.3667 120.153L35.3245 120.141L35.333 119.982L35.3667 119.93L35.2929 119.904L35.2781 119.845L35.1095 119.778L35.0863 119.74L35.1052 119.704L35.1811 119.725L35.2697 119.626L35.2339 119.575L35.2549 119.474L35.2086 119.394L35.1137 119.329L34.5064 119.447L34.3483 119.62L34.2534 119.666L34.2028 119.658L34.129 119.493L34.0362 119.476L33.9244 119.985L33.8759 120.041L33.7536 120.092H33.5744L33.2708 119.925L32.8659 119.852L32.5665 119.685L32.3514 119.708L32.2586 119.66L32.2544 119.613L32.2038 119.634L32.1806 119.584L31.9171 119.491L31.6218 119.447L31.4721 119.455L31.3161 119.343L31.3414 119.571L31.4363 119.664L31.5417 119.717L31.5987 119.814L31.5839 120.056L31.5291 120.168L31.5017 120.149L31.5249 120.216L31.4974 120.219L31.4258 120.025L31.4616 119.85L31.3751 119.759L31.3013 119.748L31.2803 119.666L31.198 119.592L31.0989 119.221L31.0652 119.223L31.0589 119.293L31.0146 119.297L30.9619 119.373L30.8585 119.392L30.7194 119.535L30.6751 119.556L30.6498 119.521L30.7594 119.407L30.8628 119.348L30.9049 119.179L30.9429 119.177L30.9534 119.143L30.9197 119.086L30.9893 119.029L31.004 118.915L30.8164 119.015L30.6646 119.2L30.7552 119.023L30.7531 118.958L30.5191 118.688L29.9835 118.53L29.819 118.555L29.7642 118.511L29.6545 118.559L29.4521 118.492L29.3593 118.536L29.2771 118.532L28.9882 118.781L28.9229 118.785L28.8638 118.829L28.8322 118.983L28.7647 118.966L28.6993 119.004L28.499 118.998L28.4041 118.951L28.3029 118.949L28.0752 118.837L27.8812 118.884L27.7969 118.939L27.7083 119.063L27.6746 119.08L27.6366 119.04L27.5734 119.053L27.3857 119.403L27.2761 119.508L27.1938 119.512L27.158 119.472L27.198 119.31L27.1812 119.234L27.1285 119.206L27.0694 119.234L26.9345 119.333L26.829 119.472L26.7995 119.691L26.6878 119.987L26.6372 120.037L26.5655 120.02L26.5212 119.957L26.5739 119.772L26.5465 119.731L26.4094 119.843L26.3483 119.841L26.3103 119.594L26.2091 119.44L26.0067 119.782L25.9645 119.904L25.8907 119.982L25.8612 119.993L25.8106 119.93L25.8443 119.742L25.7958 119.74L25.6799 119.81L25.6187 119.892L25.6567 119.942L25.5175 120.056L25.4121 120.275L25.3636 120.461L25.2898 120.575L25.2349 120.512L25.2181 120.079L24.9418 120.372L24.8196 120.459L24.5243 120.9L24.4737 121.081L24.1933 121.005L24.0457 121.075L23.8833 121.332L23.9044 121.532L23.8475 121.614L23.74 121.667L23.6725 121.764L23.4954 121.705L23.3836 121.614L23.4363 121.777L23.4047 121.905L23.6029 122.066L23.5607 122.085L23.4363 122.026L23.4068 122.059L23.5776 122.199L23.643 122.308L23.624 122.355L23.5122 122.323L23.2487 122.169L23.1601 122.158L23.0526 122.333L22.9809 122.323L22.9239 122.262L22.8775 122.274L22.8396 122.445L22.8944 122.546L22.8185 122.627L22.7679 122.595L22.6983 122.445L22.5908 122.317L22.5549 122.319L22.576 122.481L22.6477 122.595L22.6519 122.658L22.7742 122.783L22.7995 122.892L22.7721 122.924L22.4938 122.762L22.3567 122.652L22.3356 122.603L22.2386 122.601L22.0678 122.475L22.0215 122.477L21.9835 122.549L21.8654 122.304L21.8148 122.277L21.8275 122.192L21.8001 122.135L21.8443 122.061L21.9751 122.099L21.8085 121.914L21.819 121.838L21.7958 121.794L21.5829 121.718L21.4901 121.73L21.4585 121.756L21.5323 121.842H21.6103L21.6503 121.884L21.6693 121.952L21.6461 122.036L21.6967 122.228L21.9118 122.464L21.935 122.549L21.9055 122.635L21.994 122.69L22.0193 122.738V122.797L21.9856 122.835L21.9139 122.84L21.8739 122.913H21.8338L21.7073 122.816L21.7199 122.764L21.6503 122.523L21.6693 122.435L21.6145 122.414L21.6377 122.355L21.5175 122.059L21.3847 121.935L21.2075 121.834L21.2012 121.789L21.1527 121.752L21.0726 121.737L21.1042 121.785L21.0852 121.811L20.9798 121.733L20.9672 121.754L21.0621 121.956L21.1675 122.002L21.1822 121.924L21.2307 121.96L21.256 122.049L21.3193 122.118L21.3003 122.184L21.332 122.279L21.2792 122.27L21.1928 122.152L21.0642 122.072L21.0473 122.11L21.1063 122.154L21.1548 122.279L21.0578 122.317L21.0663 122.182L20.9756 122.102L20.9081 121.983L20.9187 121.937L20.9587 121.914L20.8744 121.836L20.8006 121.834L20.7816 121.861L20.8322 121.973L20.7711 122.011L20.8575 122.093L20.8681 122.175L20.9503 122.283L21.0621 122.38L21.0494 122.428L20.8238 122.306L20.4168 122.192L20.3451 122.078L20.1828 121.979L20.0668 121.956L19.8559 121.851L19.6851 121.686L19.5418 121.699L19.3963 121.494L19.3414 121.342L19.2002 121.267L19.1306 121.269L19.0505 121.205L18.9197 121.186L18.7806 120.91L18.6941 120.965L18.4537 120.914L18.3905 120.847L18.4116 120.737L18.3947 120.695L18.2555 120.678L18.1374 120.621L18.1396 120.497L18.2618 120.172L18.5465 119.93L18.8565 119.947L18.9851 120.046L19.0104 120.219L19.2423 120.444L19.4448 120.467L19.9087 120.413L20.0795 120.271L20.2819 119.972L20.1406 119.567L19.3646 118.517L19.1685 118.064L18.8733 117.33L18.7995 117.075L18.654 116.094L18.1037 116.084L17.7263 115.978L17.3046 115.303L17.1232 114.871L16.9124 114.502L16.381 113.988L16.1722 113.962L16.0057 114.015L15.3035 114.085L14.886 114.093L14.3378 113.92L13.7453 113.667L13.7537 113.834L13.7094 114.167L13.6166 114.511L12.8786 114.072L12.6425 113.832L12.5476 113.667L12.7226 113.577L12.7395 113.539L12.3662 112.87L12.1491 112.545L12.6467 112.301L12.7289 112.174L12.8786 112.189L12.925 112.067L12.4717 111.904L12.4632 111.793L12.5602 111.592L12.5497 111.415L12.5096 111.308L12.4717 111.255L12.2271 111.145L12.1406 111.004L12.7605 111.211L13.2413 111.185L15.3267 111.512L18.9408 111.915L20.0752 112.233L22.0826 113.028L22.051 112.396L23.3267 112.465L23.5502 112.284L24.2397 112.301L25.0705 111.449L27.3224 109.937L27.5797 109.931L27.9635 109.566L28.1321 109.65L28.5096 109.418L28.7373 108.704L29.585 108.645L30.072 108.421L31.8053 108.72L31.9149 108.944L31.7737 109.043L31.742 109.549L33.0557 109.849L33.2012 109.591L33.3804 109.566L34.2808 110.076L34.7215 110.066L35.0103 109.891L34.9176 109.587L35.2022 108.379L35.6977 108.358L35.6345 106.85L35.9972 107.01L36.2418 106.441L36.4948 106.563L37.9181 106.565L38.5528 106.365L38.4452 106.114L39.2381 105.442L39.3793 105.237Z" fill="#E46EC3" stroke="white" stroke-width="0.5"/>
<path d="M121.366 92.0205L122.779 92.5329L122.796 93.0094L122.975 93.2857L122.794 93.8423L122.703 94.3294L122.726 94.9683L122.507 95.0189L122.395 95.2509L122.572 95.525L122.269 95.8118L122.872 96.476L123.477 96.3178L124.067 96.2693L124.399 95.991L124.453 96.1639L125.124 96.2946L125.349 96.5772L125.113 96.7606L125.385 97.4586L125.672 96.7395L126.246 97.351L126.482 97.3616L126.798 97.9056L126.655 97.9899L126.766 98.3083L127.239 98.496L127.306 98.7511L127.167 98.8102L127.228 98.9282L127.007 98.9999L126.965 98.9388L126.406 99.1749L126.412 99.312L126.151 99.487L126.292 99.9699L126.556 99.9572L126.634 100.132L127.045 100.01L127.892 99.3921L128.091 99.1265L129.293 99.1665L129.438 99.0843L129.495 98.8776L129.691 98.8017L129.872 98.9957L131.313 98.5993L131.844 98.9114L132.038 98.865L132.228 98.3547L132.323 98.4264L132.645 98.2408L133.107 98.1902L133.567 98.4644L133.721 98.1945L133.695 97.564L133.95 96.5477L134.372 96.1365L135.163 95.9319L135.888 96.6995L136.744 96.7332L137.419 97.1655L137.662 98.0279L137.335 98.477L137.807 98.8144L137.714 99.1749L137.111 99.6768L136.789 100.126L136.209 100.392L136.027 100.518L135.654 100.529L135.54 101.016L135.665 101.201L135.57 101.585L135.677 101.874L135.593 102.205L135.228 102.779L134.161 103.171L133.193 103.637L133.132 103.997L133.461 104.375L133.451 104.586L133.796 104.699L134.412 105.208L134.423 105.604L134.754 105.796L135.15 106.209L134.758 106.376L134.674 106.256L134.332 106.433L134.368 106.675L134.273 107.08L134.562 107.656L136.24 107.379L136.409 107.881L136.236 108.556L136.24 108.818L135.485 109.593L135.171 109.486L134.963 109.503L134.75 109.699L134.796 110.019L134.471 110.119L134.623 110.431L134.977 110.595L135.034 110.865L135.675 110.848L135.869 110.907L135.781 111.124L135.42 111.139L135.313 111.455L135.84 111.936L136.253 111.904L136.544 112.136L135.781 112.415L136.025 112.767L135.745 112.769L135.707 113.275L135.504 113.267L135.302 114.129L135.055 114.675L135.14 114.918L135.232 114.96L135.448 115.888L135.492 116.2L135.119 116.035L134.731 116.096L134.752 116.558L134.577 116.984L134.254 117.106L134.621 117.296L134.834 117.659L135.232 117.954L135.842 118.182L136.04 117.636L136.295 117.477L136.778 117.714L137.187 117.53L137.364 120.626L136.122 120.765L136.129 121.14L135.821 121.186L135.686 120.841L135.277 120.623L134.87 120.68L134.438 120.459L134.153 120.512L134.596 120.959L133.974 120.683L133.596 120.571L133.33 120.529L133.202 120.832L132.829 120.697L132.702 120.851L132.588 120.508L132.308 120.839L132.072 120.775L132.076 120.602L130.678 120.356L129.425 120.588L128.449 120.392L126.106 121.739L124.991 122.747L124.12 123.641L123.65 124.17L123.292 124.763L116.519 124.685L112.595 124.83L111.869 124.777L108.584 124.862L102.779 124.874L95.028 124.752L94.9627 124.183L94.7645 124.124L93.1387 124.214L87.7893 122.762L87.0323 122.34L86.2858 121.496L85.4318 121.423L83.3718 120.314L82.95 120.301L80.8942 119.497L80.7149 119.316L80.3185 119.561L79.104 118.88L78.56 118.922L77.9422 118.506L77.453 118.045L75.7598 118.359L76.8879 117.477L81.7207 114.1L82.6295 113.098L82.2563 112.931L81.5057 111.618L82.6633 110.566L82.4355 109.832L83.9643 109.494L83.6501 109.092L83.7914 108.864L83.6374 108.491L84.5062 108.524L84.717 106.937L87.8778 107.46L88.1814 107.289L88.4788 107.329L88.9448 107.164L89.2168 106.496L90.4925 106.45L91.7239 105.092L92.348 105.018L92.6137 104.084L93.1514 104.139L93.3707 103.595L93.9969 103.023L94.8614 102.517L96.2257 100.952L97.1366 99.7822L96.9447 99.3942L97.0607 99.2677L96.9173 98.9894L97.0628 98.8102L97.746 98.7216L98.4988 98.399L98.7855 98.1502L98.9163 97.836L99.1503 97.583L99.0807 97.4143L98.6379 97.1655L98.6189 97.0305L98.3849 96.8787L98.3554 96.5224L98.0813 96.1512L98.3237 96.1955L98.9036 96.0732L99.2895 96.3747L100.179 95.7063L100.679 95.5271L100.806 95.293L102.077 95.2572L102.02 96.6931L101.822 96.8133L101.913 97.3637L101.731 97.6462L101.56 98.4433L101.267 98.7701L101.409 99.0231L101.738 98.9156L101.805 99.0822L102.043 99.1012L102.575 99.4406L103.102 99.1623L103.277 99.3099L103.384 99.293L103.435 99.002L103.315 98.8566L103.357 98.671L103.477 98.8165L103.661 98.8313L103.998 98.6183L103.852 98.146L104.409 97.8423L104.485 98.2008L104.609 97.9963L104.717 97.9773L104.871 98.3442L104.991 98.4897L105.229 98.5107L105.13 99.04L105.373 98.981L105.554 99.0252L105.693 98.9557L105.877 98.9725L107.152 98.6035L107.277 98.9662L107.469 98.9029L107.555 99.099L107.19 99.6304L107.173 100.088L107.427 100.219L107.758 100.063L108.346 99.6873L108.799 99.6262L108.93 99.3689L108.675 98.7216L109.558 98.3252L109.853 98.8418L109.906 97.4923L110.176 97.4375L110.239 97.3363L110.53 97.3405L111.072 96.9609L110.986 96.7627L111.306 96.497L111.673 96.5371L111.806 96.2778L112.099 96.282L112.215 95.6663L112.829 95.4048L112.82 95.2403L113.01 95.2066L113.069 95.4048L113.347 95.2994L113.402 95.525L113.697 95.5039L114.161 95.9151L113.881 96.2925L114.005 96.3621L114.043 96.5034L113.919 96.6805L113.993 96.9883L113.617 97.5176L113.872 97.6019L113.974 97.3953L114.834 97.3046L115.346 97.6947L115.289 97.4965L115.564 97.4206L115.473 96.8091L115.777 96.7079L115.939 96.4549L116.409 96.7585L116.749 96.5814L116.304 96.2799L116.601 96.0163L116.485 95.8645L116.694 95.6705L116.843 95.7443L116.869 95.5271L117.461 95.4913L117.737 95.1686L117.619 95.0442L117.659 94.9388L117.822 94.903L118.062 94.4644L118.724 94.7448L118.891 94.4623L119.243 94.4264L119.471 94.3189L119.325 93.9667L120.413 93.6146L121.023 93.0326L120.489 92.7923L120.278 92.7627L120.059 93.233L119.911 93.1296L119.954 92.9968L119.701 92.4338L119.521 92.3537L119.589 92.0268L119.787 91.9425L119.899 92.1259L120.234 92.0311L120.169 91.9109L120.28 91.8708L120.399 92.2208L120.664 91.8118L121.366 92.0205Z" fill="#E46EC3" stroke="white" stroke-width="0.5"/>
<path d="M89.7399 69.2585L89.8896 69.2437L90.2122 69.1298L90.4231 69.929L90.5095 70.0555L90.3915 70.2242L90.8575 71.5062L90.071 71.7867L90.8448 72.2716L91.1316 72.299L91.3551 72.8916L91.2391 73.0033L90.868 73.0392L89.7968 73.6043L90.2249 74.9791L90.7499 74.8652L90.7584 75.9743L90.4252 76.3011L90.2417 76.55L90.421 77.0855L91.1126 77.1593L91.1548 78.9854L91.7726 79.3712L91.6693 79.8267L91.0683 79.7002L90.8005 79.9131L90.3683 79.8836L90.1869 80.1029L90.3345 80.7735L90.537 80.7861L90.5707 81.4187L90.4842 81.4124L90.5116 82.1862L90.0752 82.3001L90.0246 84.4572L89.995 86.0344L89.4932 86.454L89.3119 87.5104L89.1432 88.2547L88.0678 88.8072L87.3551 88.7376L87.5617 89.4482L88.0741 89.4756L88.4473 90.2494L88.1015 91.2552L88.2955 91.4049L87.7114 91.9258L88.0636 92.3854L87.8316 92.5942L88.7046 93.4397L88.4347 94.7133L88.5907 95.0486L89.4067 94.9558L89.6619 94.1229L90.4294 94.5741L90.4758 94.823L90.4653 95.095L90.6086 94.9663L90.6002 95.2109L90.7984 95.1139L90.9334 95.2299L91.2475 95.0823L91.4605 95.9384L91.9687 95.8034L92.2934 96.0375L93.3857 96.4255L94.3999 96.1303L94.752 96.2589L95.0198 96.9252L94.5643 97.1951L95.1463 98.0955L96.1121 97.4819L97.898 97.2499L98.3851 96.8788L98.6192 97.0306L98.6381 97.1656L99.0809 97.4144L99.1505 97.5831L98.9165 97.8361L98.7857 98.1503L98.499 98.3991L97.7462 98.7217L97.063 98.8103L96.9175 98.9895L97.0609 99.2679L96.9449 99.3944L97.1368 99.7824L96.2259 100.953L94.8617 102.517L93.9971 103.023L93.3709 103.595L93.1516 104.139L92.6139 104.084L92.3482 105.018L91.7241 105.092L90.4927 106.45L89.217 106.496L88.945 107.165L88.479 107.329L88.1817 107.289L87.878 107.46L84.7173 106.937L84.5064 108.525L83.6377 108.491L83.7916 108.864L83.6503 109.092L83.9645 109.494L82.4358 109.832L82.6635 110.566L81.5059 111.618L80.6224 109.931L79.9582 109.467L79.2898 109.214L79.0515 108.946L77.7146 108.493L77.5586 107.964L77.8306 107.601L77.8053 107.365L77.3794 106.985L76.4938 107.468L75.3509 106.338L75.0578 105.324L74.5265 105.372L74.6319 105.079L75.2455 104.98L75.3256 105.06L75.4606 104.957L74.712 103.69L74.4991 103.447L74.847 102.994L75.3298 103.16L75.197 102.971L75.0642 102.243L75.7115 101.849L75.7705 101.174L76.4242 100.594L77.0736 101.128L77.2718 100.432L77.1917 100.103L76.2998 98.7702L76.2175 98.4413L75.6756 97.5789L75.3003 95.6685L74.7268 95.8477L74.7289 95.4598L74.6466 95.0971L75.1105 94.7745L74.3725 94.0554L74.5096 93.581L74.6466 93.5578V93.3048L74.0394 92.94L73.9297 93.0201L73.7125 93.3238L73.3794 93.193L73.177 92.5119L73.1411 92.0966L72.8544 91.6538L72.6709 91.9743L72.3694 92.1071L72.0974 91.9743L72.1206 91.9679L71.7431 91.6263L71.6145 91.4745L71.4416 90.9938L71.3298 90.9031L71.1991 90.8673L70.9166 91.0781L70.79 91.0865L70.5349 91.0191L70.0942 90.7133L69.9023 90.7028L69.8475 90.7365L69.7526 90.6501L69.3646 90.6585L69.3225 90.4729L69.2023 90.454L69.1538 90.2768L69.0631 90.144L68.9999 89.931L69.0484 89.7518L69.0231 89.7033L68.692 89.6675L67.779 89.6801L67.4669 89.6021L67.2729 89.5199L66.9081 89.2141L66.8596 89.1277L67.3488 88.6385L67.3994 88.5752L67.3868 88.4656L67.2097 88.4107L66.9145 88.3686L66.0014 87.7718L65.9698 87.814L66.0099 87.9089L66.012 88.027L65.8855 88.0375L65.8391 88.0164L65.6788 87.9152L65.508 87.6706L65.4827 87.5863L65.4785 87.4429L65.5312 87.1962L65.8032 87.1435L66.1997 87.1308L66.3726 87.0549L66.5919 86.8715L66.7964 86.591L67.3193 86.1018L67.4753 86.0175L67.9118 86.0913L67.9856 86.0491L68.1206 86.0534L68.2155 86.0133L68.4095 85.8383L68.5149 85.5958L68.7004 85.581L69.2065 85.3153L69.3414 85.1298L69.6135 84.9421L69.6472 84.8873L69.4384 84.3812L69.2676 84.086V83.8225L69.2466 83.7782L68.9197 83.7487L68.7363 83.6854L68.7131 83.6243L68.7025 83.0043L68.6498 82.9474L68.323 82.8799L68.3061 82.8082L68.1859 82.7682L68.1944 82.1778L68.245 82.1103L68.6414 82.0365L68.7574 81.9648L68.8438 81.8636L68.9282 81.6612L69.4216 81.309L69.6556 81.0244L69.6071 80.9211L69.489 80.803L69.4553 80.5668L69.6303 80.5542L69.8285 80.6322L69.8834 80.5036L70.3219 80.2147L70.4632 80.2547L70.6741 80.4909L70.8723 80.5204L70.9988 80.4424L71.2328 80.1936L71.4079 80.2463L71.4543 80.2969L71.5449 80.3032L71.6672 80.3813L71.9772 80.6807L72.0636 80.6933L72.2787 80.4487L72.3841 80.4761L72.4622 80.4382L72.6857 80.4319L72.7405 80.4614L72.9408 80.356L73.0062 80.3581L73.2824 80.6997L73.4764 80.7587L73.6893 80.6385L74.0056 80.3918L74.0141 79.9891L73.896 79.6369L73.7653 79.6116L73.5776 79.5231L73.1411 79.5441L72.6224 79.3375L72.46 79.1773L72.3209 78.8905L72.0826 78.7176L71.9772 78.7513L71.9498 78.9179L71.8971 78.958L71.4711 78.9769L71.2476 78.9095L71.1211 78.7344L70.9693 78.6143L70.7922 78.57L70.5897 78.5911L70.3451 78.5721L70.1005 78.4161L70.0415 78.2727L69.9972 77.7982L70.0668 77.6949L70.3156 77.4482L70.3578 77.0834L70.4063 76.997L70.5855 76.9696L70.6952 77.0687L70.8976 77.0666L70.9461 77.1361L70.9693 77.25L71.0663 77.3027L71.1717 77.309L71.3214 77.2859L71.4753 77.2078L71.5808 77.0919L71.722 77.0181L71.76 76.8494L71.6272 76.5057L71.41 76.3918L71.0494 76.4087L70.9714 76.5204L70.8069 76.6132L70.5665 76.5689L69.9951 76.5457L69.8538 76.3749L69.7758 76.3391L69.6493 76.3328L69.4933 76.2505L69.0083 76.2189L68.983 76.1767L68.9872 75.9764L69.0209 75.8731L69.3499 75.8541L69.3942 75.9132L69.43 76.0502L69.4722 76.0755L69.5186 76.0502L69.546 75.6559L69.5882 75.6116L69.8053 75.5336L69.9761 75.2237L70.1786 75.0739L70.246 74.9769V74.8441L70.1996 74.7302L69.9508 74.5278L69.9108 74.395L69.7505 74.3465L69.5945 74.3865L69.4722 74.2896L69.3119 74.2811L69.2845 74.1715L69.3499 74.045L69.5038 73.8868L69.7632 73.8931L69.9972 73.8362L70.1174 74.0977L70.2313 74.1546L70.4021 74.142L70.421 74.0956L70.3852 73.9606L70.4864 73.7118L70.3557 73.4777L70.4021 73.3323L70.5792 73.1467L70.6066 73.0581L70.7078 73.0139L70.8681 73.0223L70.9672 72.9485L71.2392 72.9843L71.2961 73.0687L71.3805 73.4335L71.4753 73.5178L71.6229 73.5368L71.7326 73.6L71.7958 73.8299L71.8612 73.8868L71.9751 73.5916L72.0468 73.4862L72.226 73.4398L72.3715 73.3639L72.4221 73.5009L72.5929 73.6781L72.6751 73.6148L72.7173 73.4988L72.7089 73.4103L72.848 73.3428L72.8712 73.3829L72.808 73.4672L72.8333 73.503L72.9535 73.444L73.0673 73.5115L72.9366 73.7413L72.9303 73.8046L73.1643 73.8678L73.2381 73.9459L73.371 73.9437L73.5565 73.9269L73.6177 73.8805V73.7729L73.4954 73.5199L73.4574 73.3702L73.5186 73.2922L73.6092 73.2943L73.7442 73.1825H73.8665L74.0077 73.2943L74.2861 73.3407L74.3641 73.2901L74.4189 73.3175L74.8174 73.328L74.9735 73.2458L75.0916 73.2374L75.1654 73.1783L75.2349 73.1868L75.4458 73.3871L75.372 73.4841L75.1358 73.6L75.1274 73.6591L75.2518 74.0091L75.3024 74.0829L75.4838 74.1588L75.6187 74.26L75.6967 74.2642L75.7452 74.1694L75.6904 74.0302L75.7284 73.9353L75.8085 73.8446L75.8738 73.6738L76.0404 73.6064L76.0952 73.522L76.1016 73.4588L76.2871 73.3175L76.3504 73.3027L76.4389 73.1425L76.5866 73.0877L76.6372 73.0244L76.7152 73.0054L76.7911 72.8937L76.7637 72.8114L76.7826 72.7629L76.926 72.7882L77.2465 72.7524L77.4152 72.8178H77.6113L77.7884 72.8705L78.0309 72.8199L78.1385 72.7629L78.1975 72.687L78.2291 72.493L78.1638 72.3475L78.1912 72.2632L78.2249 72.2295L78.3683 72.2021L78.4168 72.1536L78.5286 72.1472L78.5517 72.1999L78.6066 72.2252L78.7942 72.1536L79.2202 72.221L79.294 72.181L79.5154 72.143L79.5512 72.0882L79.6482 72.1388L79.6904 72.0629L79.7558 72.0945L80.1585 71.9322L80.2049 71.8815L80.3736 71.8478L80.5486 71.7466L80.8206 71.6833L80.8543 71.6285L80.9893 71.6517L81.1369 71.5758L81.2486 71.6749L81.3098 71.6327L81.3688 71.6391L81.3983 71.6053L81.4658 71.6517L81.5249 71.6285L81.5417 71.502L81.6113 71.4008L81.645 71.4451L81.7041 71.4303L81.6682 71.561L81.6809 71.5948L81.7526 71.6074L81.8728 71.5041L81.9508 71.3544L82.0541 71.3987L82.1258 71.3692L82.208 71.4303L82.3177 71.4092L82.3831 71.4261L82.5201 71.3122L82.6888 71.3312L82.8237 71.2637L82.9777 71.2701L83.0705 71.2363L83.4036 71.2764L83.4985 71.2279L83.5428 71.1478L83.5386 71.074L83.5723 71.0381L83.6461 71.0234L83.703 71.0697L83.7895 71.0845L83.8675 71.0276L83.9476 71.0191L84.0678 70.9538L84.0847 70.8779L84.1711 70.8083L84.2766 70.7935L84.3272 70.8294L84.6645 70.745L84.6941 70.7914L84.673 70.823V71.0571L84.7151 71.0718L84.9387 71.0107L85.1348 70.9011L85.3878 70.7071L85.5565 70.629L85.6261 70.6396L85.8243 70.7851L85.9908 70.9453L86.1743 71.1984L86.6276 71.1857L86.6972 71.095L86.6993 71.0044L86.5876 70.5595L86.4927 70.4161L86.5749 70.1525L86.5391 69.9037L86.5918 69.8362L86.8996 69.6211L87.1801 69.5073H87.3045L87.5997 69.5895L87.6883 69.5642L87.6988 69.4525L87.5554 69.2564L87.5702 69.1404L87.6313 69.0645L87.7684 69.0118L88.1142 69.1066L88.304 69.1024L88.4621 69.1699L88.7025 69.3344L88.8079 69.347L88.8965 69.3006L89.0019 69.1657L89.0652 68.9928L89.0778 68.8642L89.1537 68.7123L89.4046 68.5943L89.586 68.5774L89.6471 68.5922L89.6914 68.6638L89.6092 68.9654L89.6134 69.153L89.7399 69.2585Z" fill="#E46EC3" stroke="white" stroke-width="0.5"/>
<path d="M61.455 127.05L61.5984 126.945L61.6658 126.791L61.7417 126.696L61.8851 126.772L61.961 126.859L62.0939 126.907H62.2858L62.3722 127.069L62.3237 127.261L62.3617 127.586L62.3427 127.797L62.2373 127.93L62.3617 128.187L62.4481 128.522L62.602 128.617L62.7265 128.742L62.7939 128.923L62.8003 129.085L60.7676 127.613L60.7887 127.405L60.8751 127.348V127.147L60.9236 127.053H61.0565L61.1703 127.109L61.3411 127.116L61.455 127.05ZM64.7887 126.899H64.3522L64.3817 126.158L64.7296 126.072L65.4128 126.028L65.9357 126.087L66.0369 126.304L66.4291 126.376L66.8508 126.39L66.9099 126.492H65.8198L65.2378 126.812L64.7887 126.899ZM73.4149 114.724L73.7523 115.367L74.2625 115.289L75.3927 116.727L75.2156 117.136L76.3943 117.321L76.5735 117.579L76.8835 117.48L75.7554 118.363L77.4486 118.047L77.9357 118.511L78.5535 118.926L79.0996 118.884L80.3142 119.563L80.7106 119.318L80.8898 119.5L82.9457 120.305L83.3674 120.316L85.4275 121.425L86.2815 121.499L87.0279 122.342L87.7849 122.762L93.1365 124.214L94.7601 124.124L94.9583 124.183L95.0237 124.752L94.9667 125.239L95.6141 125.739L95.7385 126.137L95.6204 126.399L95.3716 126.751L95.243 127.183L95.205 127.788L94.9435 128.746L95.7216 129.391L96.3732 129.669L96.3985 133.697L96.3183 133.811L96.2698 134.165L96.7063 134.593L96.9551 134.513L97.4253 134.776L97.4359 134.966L97.9061 135.537L99.03 136.341L98.7411 136.628L98.583 136.499L98.3341 136.6L98.1233 136.824L98.2097 136.946L98.3299 137.258L98.2814 137.865L98.1064 137.95L97.7016 137.598L97.7037 138.487L97.3136 138.886L97.3473 139.074L97.263 139.535L96.8476 139.653L96.9699 140.195L97.1449 140.088L97.0795 139.736L97.3052 139.607L97.2609 139.862L97.4991 139.852L97.4275 140.151L97.5856 140.531L97.8766 140.453L97.8597 140.638L97.4591 140.895L96.1012 141.574L95.0068 141.979L93.982 142.751L92.8286 143.915L92.253 143.561L90.5977 145.279L90.2414 145.193L90.2098 141.865L89.0964 142.388L88.5081 140.495L88.3753 139.957L87.4117 139.101L86.914 138.601L86.408 137.484L86.3194 137.382L86.1781 137.302L85.9335 137.307L85.7522 137.353L83.8144 138.274L83.7216 138.291L81.2588 138.135L79.6626 137.973L79.087 137.88L77.2778 138.199L73.554 138.93L73.4802 138.924L73.3369 138.787L70.4776 135.257L69.9399 134.715L69.7438 134.091L67.825 132.706L68.0295 132.524L68.154 132.457L68.2973 132.046L68.3543 131.634L68.2594 131.196L68.0865 130.633L67.9241 130.433L67.6753 130.414L67.5889 130.146L67.4075 129.992L67.3021 129.638V129.389L67.4075 129.151L67.397 128.377L67.3021 128.033L67.1102 127.89L67.1587 127.679L67.3126 127.325L67.3316 126.981L67.1777 126.369L66.9774 126.15L66.9478 125.739L67.1587 125.596L67.2726 124.995L67.359 124.881L67.4075 124.676L67.9895 124.533L68.1329 124.332L68.2003 124.075L68.582 123.721L69.0121 123.645L69.3073 123.377L69.689 123.234L70.0896 122.996L70.3469 122.557L70.4144 121.859L70.4017 121.505L70.2436 121.482L70.0179 121.663L69.3875 121.551L68.8245 121.574L68.4196 121.079L68.4428 120.381L68.5103 120.088L68.2172 119.997L68.0148 119.818L67.4518 119.841L67.4286 120.044L67.6542 120.155L67.8566 120.179L68.1265 120.381V120.651L67.9684 120.742L67.8103 120.923L67.5846 121.035L67.3147 120.9L66.9985 120.809V121.463L66.8466 121.57L66.7897 121.372L66.8171 120.809L66.7054 120.583L66.5071 120.385H66.2246L65.2947 121.005L65.126 121.231L65.1007 121.652L65.223 121.804L65.3664 122.121L65.4613 122.264L65.7481 122.388H65.9779L66.1698 122.293L66.408 122.226L66.9141 122.188L67.028 122.407L67.2093 122.551L67.4581 122.637L67.7744 122.418L67.9283 122.226L68.1097 122.188L68.1476 122.561L68.4724 123.105L68.4639 123.525L68.3775 123.831L67.9389 124.107H67.709L67.165 124.212L66.9078 124.126L66.6695 123.869L66.4502 123.744L65.8008 123.611L65.4761 123.573L65.2947 123.679L64.9215 124.022L64.6347 124.041L64.5019 123.966L64.5778 123.565L64.4913 123.422L64.4618 123.164L64.4724 122.848L64.31 122.648L64.0612 122.599H63.3738L63.2409 122.629L63.2515 122.859L63.7006 123.575L63.806 123.814L63.7301 124.09L63.825 124.815L63.7765 125.102L63.6627 125.294L63.5298 125.361L63.3864 125.286L63.2135 125.792L63.0617 125.916L62.8804 125.849L62.6505 125.868L62.4207 125.954H62.2014L62.1719 125.8L62.1824 125.6L62.2309 125.37L62.4692 125.007L62.6421 124.815L62.718 124.642L62.5451 124.518L62.3448 124.413L62.1635 124.518L61.9442 124.737L61.6869 124.756L61.4381 124.718L61.3242 124.623L61.242 124.592L62.3596 123.217L63.2599 121.865L63.7301 121.349L64.0759 120.809L65.727 119.276L66.9837 119.173L67.1018 117.874L68.8182 118.015L70.2267 114.243L72.7169 113.667L73.4149 114.724Z" fill="#E46EC3" stroke="white" stroke-width="0.5"/>
<path d="M26.7785 131.407L26.7953 131.43L26.8965 131.369L26.9577 131.396L26.7532 131.527L26.6836 131.614L26.7025 131.692L26.6709 131.7L26.6372 131.607L26.6836 131.441L26.6456 131.202L26.6667 131.177L26.7532 131.293L26.7785 131.407ZM27.0589 130.705L27.1179 130.722L27.177 130.688L27.2318 130.637L27.2655 130.526L27.3014 130.673L27.3562 130.629L27.3731 130.665L27.3436 130.926L27.3668 131.013L27.5523 131.108L27.3351 131.061L27.3056 131.118L27.1749 131.148L27.1707 131.101L27.2655 131.019L27.1538 130.977L27.217 130.867L27.2044 130.802L27.0652 130.793L26.8923 130.587L26.886 130.54L26.9914 130.443L27.0083 130.469L26.945 130.553L27.0589 130.705ZM24.5244 130.003L24.6762 130.041L24.7584 130.116L24.5434 130.146L24.4421 130.281L24.4316 130.441L24.4906 130.589L24.5117 130.77L24.5623 130.848L24.6108 130.854L24.6361 130.791L24.6551 130.812L24.6045 130.97L24.7057 131.116L24.9503 131.238L25.1696 131.154L25.2033 131.162L25.216 131.194L25.1359 131.367L25.1106 131.371L25.0515 131.302L24.7563 131.259L24.6235 131.181L24.4632 130.926L24.3262 130.464L24.4168 130.184L24.4232 130.047L24.5244 130.003ZM25.6208 129.918L25.7853 129.946L25.8401 130.093L25.8085 130.249L25.8444 130.363L25.7368 130.553L25.7326 130.656L25.6925 130.741L25.5998 130.806L25.5386 130.812L25.4543 130.905L25.4269 130.968L25.4606 131.057L25.4311 131.08L25.3826 131.04L25.3552 130.922L25.3762 130.865L25.3467 130.741L25.4037 130.618L25.3973 130.521L25.3741 130.464L25.2771 130.382L25.2961 130.268L25.2329 130.14L25.3235 130.03L25.469 130.041L25.6208 129.918ZM35.1032 127.314L35.1327 127.318L35.1643 127.259L35.2086 127.247L35.2571 127.283L35.3688 127.582L35.3731 127.711L35.4237 127.829L35.4005 127.909L35.4237 128.035L35.4152 128.063L35.2739 128.075L35.3309 128.16L35.3203 128.183L35.1095 128.099L35.0652 127.97L34.9577 127.808L34.8164 127.671L34.7595 127.571L34.8037 127.506L34.9977 127.354L35.0083 127.329L34.9408 127.266L34.9345 127.211L35.0378 127.253L35.1032 127.314ZM35.8095 125.807L36.7479 126.038L37.3003 126.068L37.431 125.741L38.0636 125.826L38.3377 125.644L38.6308 125.604L39.1263 125.391L39.5417 125.14L39.8074 124.885L39.3773 124.632L40.3093 123.938L40.5307 123.514L40.4737 123.253L41.1063 123.331L41.1885 123.196L41.4795 123.129L41.7304 123.141L41.9961 123.078L42.3757 122.926L42.9956 122.911L43.78 122.606L45.3994 122.437L45.8527 122.5L46.8185 121.543L47.314 122.245L47.5797 122.41L47.6998 122.372L47.7631 122.266L47.8812 122.203L48.0815 122.23L48.2228 122.654L48.1574 122.979L48.2249 123.167L48.5306 123.255L48.7415 123.38L48.9502 123.236L49.1316 123.316L49.2391 123.645L49.6735 123.776L49.956 123.63L50.1479 123.81L50.4684 123.787L50.8353 124.006L51.2064 125.028L51.7926 129.366L48.8912 130.319L48.9017 150.905L48.3577 150.884L48.1173 151.124L47.9993 151.034L47.9402 151.021L47.5438 151.095L47.3899 151.173L47.3477 151.289L47.2992 151.329L47.2402 151.282L47.2085 151.185L47.1347 151.093L47.0926 151.112L47.0905 151.226L47.0124 151.28L46.9281 151.259L46.7215 151.137L46.4811 150.918L46.207 150.568L45.9729 150.378L45.7874 150.125L45.4099 149.503L45.1042 148.782L44.9123 148.499L44.6846 148.276L44.6213 148.174L44.6044 148.063L44.6424 147.685L44.4568 147.417L44.1427 147.067L42.5781 145.96L41.897 145.511L41.6967 145.391L41.4964 145.313L40.5328 145.343L39.0293 145.583L38.3504 145.769L37.1696 146.289L36.7647 146.428L36.4653 146.625L35.1116 147.839L34.3462 148.474L34.3525 148.364L34.5275 147.951L34.5507 147.694L34.5444 147.517L34.4896 147.306L34.323 147.082L34.3546 146.844L34.2555 146.738L34.3167 146.308L34.3926 146.156L34.6835 145.802L34.867 145.484L35.236 144.552L35.3246 144.113L35.2782 143.862L35.177 143.666L34.8311 143.272L34.808 143.2L34.886 143.082L34.8691 143.188L34.9176 143.295L35.1348 143.468L35.2887 143.675L35.4152 144.018L35.5185 143.907L35.5713 143.763L35.5945 143.47L35.5565 143.183L35.4743 143.116L35.2929 143.114L35.2044 143.036L35.0631 143.095L35.1242 142.994L35.0357 142.753L34.4706 142.587L34.3019 142.559L33.9751 142.608L33.8296 142.713L33.7431 142.848L33.7178 142.846L33.4922 142.477L33.372 142.393L33.2856 142.372L33.1401 142.378L33.0726 142.353L32.8385 142.388L32.5159 142.485L32.2671 142.61L32.1828 142.608L32.109 142.538L31.8433 142.108L31.8138 142L31.6619 141.764L31.5945 141.515L31.1221 141.068L31.1728 141.014L31.1833 140.912L31.0989 140.649L30.8923 140.63L30.5001 140.71L30.4495 140.765L30.2197 140.754L29.6651 140.845L29.5512 140.811L29.5344 140.723L29.5639 140.478L29.7284 139.789L29.7431 139.339L29.7115 139.032L29.644 138.913L29.6166 138.717L29.5344 138.515L29.3446 138.336L29.313 138.237L29.1822 138.152L29.1337 138.135L29.1021 138.173L29.0789 138.154L28.9208 137.887L28.7184 137.414L28.5391 137.195L28.3852 136.364L28.187 136.073L28.1343 136.023L27.9677 135.983L27.8876 135.886L27.9192 135.51L27.8602 135.242L27.7294 134.914L27.5186 134.707L27.0779 134.509L26.7679 134.431L26.0046 134.372L25.7516 134.266L25.4585 134.064L25.3362 133.868L25.3172 133.788L25.3067 132.967L25.2518 132.725L25.2561 132.704L25.3615 132.877L25.3657 132.957L25.4163 132.946L25.6166 132.364L25.7727 132.39L25.8528 132.371L25.8992 132.417L26.0257 132.406L26.2091 132.48L26.439 132.461L26.6287 132.493L26.7637 132.423L26.9134 132.543L27.3393 132.579L27.5291 132.546L27.605 132.419L27.6598 132.406L27.7463 132.465L28.0352 132.55L28.1511 132.729L28.1912 132.735L28.2334 132.828L28.3283 132.872L28.4379 132.851L28.3873 132.948L28.4358 133.066L28.8027 133.319L29.2392 133.328L29.3678 133.225L29.4606 133.094L29.5555 133.041L29.5892 132.946L29.9434 132.853L29.9919 132.851L30.0109 132.891L29.954 132.982L29.9603 133.022L30.0046 133.005L30.1185 133.132L30.2091 133.111L30.2534 133.068L30.2576 133.001L30.4769 133.098L30.6119 133.05L30.6414 133.003L30.6013 132.91L30.4453 132.786L30.2028 132.678L29.6925 132.683L29.5323 132.727L29.5365 132.655L29.6061 132.586L29.5913 132.508L29.4859 132.579L29.4669 132.558L29.4753 132.362L29.3573 132.122L29.1337 131.797L28.9988 131.749L28.7795 131.542L28.5792 131.439L28.5729 131.403L28.4485 131.297L28.3725 131.268L28.362 131.339L28.2692 131.388L28.1026 131.371L27.934 131.398L27.7885 131.314L27.7779 131.257L27.9319 131.31L27.8897 131.247L27.9129 131.143L27.9719 131.057L27.9023 131.004L27.9002 130.909L28.2334 130.448L28.2882 130.412L28.4632 130.332L28.5265 130.325L28.634 130.376L28.6762 130.359L29.0114 130.013L29.1527 129.939L29.2265 129.946L29.3678 130.026H29.4458L29.4753 129.863L29.4268 129.41L29.469 129.201L29.4985 129.132L29.5576 129.085L29.6061 128.877L29.741 128.649L29.8401 128.573L29.8949 128.463L29.9793 128.442L30.1206 128.242L30.1859 128.2L30.2703 128.318L30.3188 128.341L30.6667 128.322L30.8037 128.286L30.8501 128.215L30.9956 128.174L31.2803 128.002L31.3182 127.909L31.4595 127.73L31.5418 127.736L31.5692 127.791L31.6535 127.839L31.7062 127.799L31.837 127.888L32.0626 127.913L32.2144 128.027L32.2924 128.042L32.5033 128.021L32.7247 127.932L32.8807 127.928L33.0895 127.995L33.3952 127.951L33.6672 127.955L33.7895 127.932L33.973 127.846L34.0931 127.85L34.3356 127.786L34.517 127.856L34.8775 127.873L34.9324 127.93L34.9998 128.09L35.1643 128.215L35.352 128.236L35.411 128.225L35.4089 128.17L35.6704 128.297L35.818 128.305L35.8201 128.248L35.5396 128.12L35.5966 128.099L35.6134 128.04L35.5649 127.964L35.5586 127.856L35.4743 127.749L35.4511 127.666L35.449 127.512L35.4869 127.458L35.7041 127.55L35.9044 127.702L36.1174 127.736L36.2882 127.938L36.4864 128.077L36.5138 128.044L36.3261 127.873L36.1258 127.565L36.0647 127.54L35.9107 127.557L35.8285 127.428L35.5713 127.306L35.5966 127.238L35.6914 127.181L35.6514 127.116L35.7231 127.07L35.8791 127.006L36.0014 126.989L36.1469 127.023L36.1701 126.998L36.0815 126.833V126.739L36.0098 126.76L35.9234 126.907L35.7294 126.998L35.6387 127.072L35.6071 127.053L35.6303 126.985L35.5839 126.954L35.6029 126.848L35.4764 126.831L35.5839 126.802L35.5101 126.764L35.508 126.728L35.6408 126.612L35.7273 126.595L35.7189 126.509L35.8644 126.494L35.9107 126.58L36.0562 126.669L36.09 126.661L35.8601 126.348L35.6598 126.19L35.761 126.163L35.8454 126.081L35.8348 126.03L35.7631 126.028L35.7653 125.975L35.877 125.948L35.8918 125.982L35.9403 125.96L35.9445 125.99L35.9845 125.996L36.0541 125.963L36.0963 125.901L35.9909 125.922L35.8095 125.807Z" fill="#E46EC3" stroke="white" stroke-width="0.5"/>
<path d="M133.927 70.9915L134.112 70.9831L134.201 71.0316L134.247 71.1075L134.285 71.4111L134.154 71.6114L134.184 71.8434L134.167 71.934L133.998 72.1259L133.819 72.225L133.783 72.4528L133.657 72.5013L133.397 72.691L133.319 72.6531L133.21 72.4506L133.071 72.5055L132.976 72.4949L132.805 72.3937L132.59 72.3684L132.503 72.3705L132.465 72.3979L132.451 72.5139L132.484 72.6531L132.756 73.02L132.792 73.311L132.959 73.6209L133.838 74.4749L137.144 77.1507L138.325 78.283L138.54 78.536L139.28 79.7611L139.926 80.7395L140.691 82.1291L140.72 82.0995L141.184 82.9978L141.151 83.021L142.477 85.3657L142.719 85.9308L143.082 86.4917L143.133 86.633L143.297 86.8586L143.575 87.4111L143.611 87.39L143.651 87.468L143.62 87.4933L143.944 88.1765L144.025 88.2566L144.02 88.3135L144.429 89.1675L144.122 89.2034L144.012 89.8465L143.384 90.0067L143.493 90.3652L142.964 90.8839L142.85 90.7468L142.03 90.867L142.049 91.2592L142.26 91.2234L142.196 91.487L142.234 91.799L142.021 91.7252L141.182 92.2587L140.664 92.4211L140.571 92.2081L140.32 92.3199L140.267 92.556L139.824 92.7922L139.729 92.7163L139.379 93.0557L139.871 93.7663L139.982 94.42L140.295 94.5149L140.484 94.8017L140.817 95.0631L141.092 95.2044L141.939 95.7674L141.792 97.2033L142.18 97.313L142.298 98.148L142.017 98.439L141.313 99.7189L140.748 99.9782L140.084 99.8138L138.323 99.08L138.081 98.654L137.809 98.8143L137.336 98.4769L137.663 98.0278L137.421 97.1654L136.746 96.7331L135.89 96.6994L135.164 95.9319L134.374 96.1364L133.952 96.5476L133.697 97.5639L133.722 98.1944L133.568 98.4643L133.108 98.1902L132.647 98.2408L132.324 98.4263L132.229 98.3546L132.039 98.8649L131.845 98.9113L131.314 98.5992L129.874 98.9956L129.693 98.8016L129.496 98.8776L129.44 99.0842L129.294 99.1664L128.092 99.1264L127.894 99.392L127.046 100.01L126.635 100.132L126.557 99.9571L126.294 99.9698L126.152 99.4869L126.414 99.3119L126.407 99.1749L126.966 98.9387L127.008 98.9999L127.23 98.9282L127.169 98.8101L127.308 98.751L127.24 98.4959L126.768 98.3082L126.656 97.9898L126.8 97.9055L126.483 97.3615L126.247 97.3509L125.674 96.7394L125.387 97.4585L125.115 96.7605L125.351 96.5771L125.125 96.2945L124.455 96.1638L124.4 95.9909L124.069 96.2692L123.479 96.3177L122.873 96.4759L122.27 95.8117L122.574 95.5249L122.397 95.2508L122.509 95.0188L122.728 94.9682L122.705 94.3293L122.795 93.8423L122.977 93.2856L122.797 93.0094L122.781 92.5328L121.368 92.0204L121.811 91.4975L121.872 91.0294L122.785 90.4327L123.202 90.5507L123.363 90.3504L123.582 90.3272L123.683 90.1733L123.282 89.9435L122.8 89.8992L122.591 89.4163L121.84 89.7853L121.861 88.5434L121.99 88.3916L122.566 87.9382L122.816 87.8897L122.73 87.7063L122.635 83.4975L122.42 83.4659L122.407 83.3478L122.384 83.0821L121.619 83.0252L121.41 82.4728L121.494 82.2218L121.684 82.4833L121.984 82.5276L122.159 82.9029L122.361 82.8165L122.304 82.167L122.566 82.0616L122.525 81.7052L122.734 81.5935L122.504 80.9714L122.1 81.1127L121.912 81.0537L121.665 81.72L121.111 81.7284L121.007 81.1865L121.298 80.8449L121.163 80.5603L120.71 80.8787L120.611 80.7753L120.855 80.575L121.011 80.1849L121.246 79.8349L121.218 79.5924L121.454 79.4786L121.442 79.3289L121.653 79.215L121.461 78.9156L121.248 79.059L121.182 78.9008L120.948 78.9873L120.933 79.1349L120.347 79.6473L120.246 79.0379L120.341 78.3905L120.687 78.5592L120.843 78.399L120.505 77.8655L120.292 77.389L120.824 76.8681L120.893 76.5603L121.104 76.613L121.208 76.166L121.494 76.1997L121.857 76.4274L122.142 75.9994L122.842 76.1575L122.8 76.6341L123.158 76.6678L123.234 76.3115L123.529 76.3747L123.487 76.516L123.635 76.575L123.632 76.847L123.706 76.8913L123.719 76.9398L123.692 77.098L124.191 77.2856L124.522 76.4696L124.345 76.3663L124.467 75.7569L125.161 75.8708L125.345 75.253L125.577 75.2909L125.695 75.2319L125.762 75.1138L125.823 74.8439L125.859 74.8144L125.998 74.865L126.553 74.8608L126.61 74.8945L126.698 75.0611L126.791 75.0168L127.278 74.6309L127.519 74.4032L127.702 74.321L128.2 73.9351L128.486 73.7812L128.605 73.6378L128.602 73.4944L128.254 72.9968L128.799 72.7163L129.087 72.8386L129.134 72.8302L131.649 71.6578L131.666 71.5967L131.561 71.4659V71.4259L131.677 71.0843L131.713 71.0737L132.141 71.2656L132.583 71.3015L132.782 71.2909L133.003 71.1454L133.387 71.1539L133.619 70.9156L133.728 70.6562L133.946 70.6373L134.232 70.4644L134.456 70.3716L134.53 70.3821L134.557 70.5635L134.54 70.5951L133.92 70.9325L133.927 70.9915Z" fill="#E46EC3" stroke="white" stroke-width="0.5"/>
<path d="M102.737 63.8688L102.841 64.1155L102.893 64.1429L103.159 64.0734L103.433 63.9468L103.608 63.9215L103.745 63.9447L104.083 64.1008L104.201 64.0523L104.506 64.0333L104.814 64.0881L105.236 64.299L105.483 64.3791L105.607 64.4613L105.698 64.5752L105.843 65.0011L105.934 65.0876L106.143 65.1677L106.383 65.1993L106.718 65.5494L106.788 65.581L107.064 65.5894L107.134 65.5536L107.345 65.3153L107.794 65.1213L107.855 65.0475L107.998 64.6427L108.099 64.5351L108.26 64.5372L108.525 64.6912L108.743 64.6954L108.823 64.6617L108.949 64.5183L109.044 64.4761L109.453 64.396L109.529 64.4107L109.569 64.7017L109.666 64.8978L109.814 65.1909L109.982 65.3448L110.037 65.5979L110.183 65.7455L110.324 66.0196L110.353 66.1967L110.32 66.6817L110.347 66.9368L110.259 67.1519L110.244 67.3311L110.261 67.4007L110.455 67.6769L110.469 68.0206L110.503 68.145L110.64 68.4128L110.824 68.6089L111.231 68.7144L111.479 68.9105L111.498 68.9674L111.503 69.2499L111.182 69.349L111.108 69.4081L111.077 69.4756L111.035 69.794L111.058 70.0892L111.115 70.4729L111.214 70.8166L111.178 71.0992L111.094 71.3142L111.058 71.3438L110.992 71.3395L110.636 71.27L110.385 71.1371L110.351 71.1434L110.326 71.1941L110.328 71.4618L110.358 71.5251L110.431 71.5841L110.644 71.6369L110.687 71.7064L110.712 71.8625L110.562 72.0649L110.547 72.126L110.594 72.1977L110.716 72.2715L110.779 72.3475L110.838 72.4803L110.864 72.7143L110.927 72.7692L111.077 72.8134L111.125 72.7966L111.433 72.5288L111.528 72.3285L111.711 72.2905L112.314 72.4803L112.355 72.5731L112.327 72.7354L112.369 72.8113L112.656 72.7565L112.945 72.8535L113.04 72.7818L113.213 72.7333L113.318 72.6047L113.314 72.474L113.232 72.2315L113.305 71.9784L113.402 71.8372L113.936 71.9046L114.45 72.0185L114.596 72.1387L114.606 72.2758L114.752 72.358L114.739 72.4908L115.026 72.6532L115.058 72.6427L115.123 72.5372L115.151 72.28L115.016 72.1366L114.697 71.9679L114.756 71.757L114.876 71.5546L114.773 71.388L114.581 71.2383L114.512 71.0802L114.531 71.0486L114.619 71.0275L114.919 71.0317L115.079 71.0675L115.431 71.3374L115.513 71.5905L115.484 71.7845L115.673 71.9046L115.576 72.2062L115.617 72.2526L115.981 72.4908L116.369 72.5984L116.382 72.7966L116.131 72.7418L116.064 72.8282L115.865 72.8388L115.84 72.9526L115.918 73.0686L115.914 73.1466L116.068 73.2668L116.072 73.3005L115.899 73.893L116.112 74.1229L116.321 74.1946L116.373 74.1672L116.54 73.7644L116.622 73.64L117.31 73.9183L117.265 73.6189L117.076 73.2457L116.877 73.2056L116.702 73.2162L116.627 73.271L116.485 73.2436L116.582 72.8071L116.764 72.7165L116.814 72.6363L117.556 72.7017L117.693 72.7249L117.797 72.8282L118.368 72.8851L118.356 73.1951L118.621 73.2373L118.731 73.5957L118.792 73.6337L119.269 73.7349L119.591 73.8424L119.629 73.893L120.089 73.8762L120.12 73.8235L120.093 73.6822L120.123 73.6379L120.253 73.6864L120.42 73.8277L120.603 73.9183L120.637 73.9015L120.645 73.8467L120.538 73.5978L120.54 73.5262L120.856 73.4207L121.029 73.2752L121.071 73.1782L121.014 73.0707L121.038 73.0496L121.28 73.0749L121.289 73.1508L121.516 73.1909L121.409 73.9141L121.274 74.5235L120.348 74.3843L120.211 74.6395L120.312 74.8609L120.173 74.9263L119.872 74.9874L119.92 75.1877L119.794 75.7275L119.507 75.7739L119.511 75.9911L119.6 76.008L119.604 76.0333L119.456 76.5203L119.891 76.6764L119.935 76.7565L120.085 76.8029L120.087 76.921L119.998 77.1782L120.07 77.2647L120.291 77.3891L120.504 77.8656L120.842 78.3991L120.686 78.5593L120.34 78.3907L120.245 79.038L120.346 79.6474L120.932 79.135L120.947 78.9874L121.181 78.9009L121.246 79.0591L121.459 78.9157L121.651 79.2151L121.44 79.329L121.453 79.4787L121.217 79.5926L121.244 79.835L121.01 80.1851L120.854 80.5752L120.61 80.7755L120.709 80.8788L121.162 80.5604L121.297 80.8451L121.006 81.1866L121.109 81.7285L121.664 81.7201L121.911 81.0538L122.098 81.1128L122.503 80.9716L122.733 81.5936L122.524 81.7054L122.564 82.0617L122.303 82.1671L122.36 82.8166L122.157 82.903L121.982 82.5277L121.683 82.4834L121.493 82.222L121.409 82.4729L121.618 83.0253L122.383 83.0823L122.406 83.3479L120.821 83.2299L120.527 82.6669L120.222 82.6816L120.171 82.4117L119.614 82.4244L118.83 82.0259L118.305 82.2494L118.191 81.0369L118.018 80.8408L118.016 80.3411L117.93 80.1239L117.79 80.1366L117.658 80.3263L117.215 80.3306L116.833 80.5203L116.658 80.3559L115.867 80.5309L115.676 81.0327L114.706 81.1065L113.51 80.9568L113.455 80.6911L113.257 80.4676L113.253 80.2357L113.514 80.1176L113.384 79.757L113.516 79.2763L113.681 79.0296L112.831 78.106L112.856 77.8466L112.439 77.8361L112.302 78.1123L112.047 78.1482L111.95 78.2831L111.836 78.3021L111.682 78.4623L111.319 78.4581L111.275 78.3358L110.613 78.2178L110.674 77.8171L110.619 77.8129L110.636 77.6105L108.905 77.659L108.806 78.2304L108.435 78.2852L108.511 78.7829L108.112 78.8356L108.051 78.5108L107.633 77.9837L107.612 77.8656L107.469 77.8551L107.406 77.9647L106.604 77.9858L106.727 77.8783L106.71 77.6758L106.883 77.6611L106.836 77.4819L107.013 77.3806L106.978 77.0011L106.685 77.1213L106.176 76.9927L106.084 77.1297L105.944 77.0601L106.044 76.8366L105.997 76.1345L105.772 76.0565L105.731 75.7317L104.842 75.717L104.688 75.8814L104.487 75.8941L104.39 76.0902L104.163 76.0417L104.087 76.3854L103.914 76.4023L103.983 76.727L104.211 76.7755L104.078 77.0833L103.796 77.0032L103.785 76.6827L103.711 76.4444L103.541 76.4002L103.492 76.223L103.235 76.1724L103.222 75.8793L102.82 75.8477L102.832 76.1998L102.254 76.242L102.235 76.0354L101.833 76.0058L101.797 76.1766L101.481 76.1534L101.615 76.3664L101.582 76.4803L101.691 76.6047L101.599 76.7143L100.996 76.6975L101.008 77.0454L101.209 77.0327L101.082 77.2837L100.974 77.1592L100.766 77.3174L100.757 77.4903L100.639 77.5388L100.466 77.5557L100.342 77.7475L100.637 78.1756L100.656 78.4075L100.882 78.4834L101.01 78.7512L101.468 78.7871L101.415 79.272L101.7 79.2952L101.772 79.5293L101.757 79.8161L101.611 79.8624L101.852 80.1956L101.221 80.7776L101.415 81.4502L101.19 81.4038L101.537 81.8002L101.187 81.9753L101.076 81.9373L100.894 82.1229L100.753 82.1123L100.684 82.3632L100.513 82.3801L100.22 82.5572L100.142 82.9494L100.028 82.9684L99.9244 83.3016L99.4732 83.2404L99.2982 83.3416L99.1379 83.698L98.5412 83.6853L98.6318 84.145L98.8828 84.2462L98.9292 84.4465L98.4168 85.0053L98.2544 84.8809L98.13 85.0981L98.2354 85.2457L97.9972 85.4818L97.8854 85.4186L97.4532 85.0222L96.8691 84.786L96.6287 84.4866L95.7178 84.5119L95.7642 85.9225L94.8975 85.6147L94.6361 85.7644L94.1827 85.7075L93.7673 85.4839H92.4537L92.4242 84.8345L91.644 84.9547L91.0325 85.2267L90.6846 84.4971L90.0246 84.4571L90.0752 82.3L90.5117 82.1861L90.4843 81.4123L90.5707 81.4186L90.537 80.786L90.3346 80.7734L90.187 80.1028L90.3683 79.8835L90.8006 79.9131L91.0684 79.7001L91.6693 79.8266L91.7726 79.3712L91.1548 78.9853L91.1126 77.1592L90.421 77.0854L90.2418 76.5499L90.4252 76.301L90.7584 75.9742L90.75 74.8651L90.2249 74.979L89.7969 73.6042L90.868 73.0391L91.2391 73.0032L91.3551 72.8915L91.1316 72.299L90.8448 72.2715L90.071 71.7866L90.8575 71.5061L90.3915 70.2241L90.5096 70.0554L90.4231 69.9289L90.2123 69.1297L91.2181 68.7439L92.4959 68.4297L92.8164 68.4887L93.0061 68.2378L93.0715 68.202L93.702 68.1092L94.0984 68.1408L94.265 67.9637L94.5581 67.93L95.0473 67.8119L95.0936 67.7634L95.1337 67.5399L95.1843 67.4851L95.275 67.4956L95.4563 67.601L95.8886 67.5863L96.1606 67.6875L96.2681 67.6537L96.3546 67.5863L96.5085 67.5842L97.0209 67.3712L97.0841 67.2468L97.1453 66.9495L97.2086 66.8567L97.3435 66.7449L97.4489 66.7028L97.6176 66.7112L98.0857 66.9431L98.3978 66.863L98.8153 66.8377L98.8764 66.7745L98.8322 66.6269L98.887 66.378L98.9987 66.2072L99.1674 66.047L99.0515 65.9437L99.0009 65.8446L98.8216 65.6358L98.7879 65.5683L98.8195 65.406L98.7141 65.2394L98.7183 65.2036L99.0304 65.1972L99.1822 65.1298L99.2412 65.1445L99.3952 65.271L99.4479 65.25L99.509 65.1635L99.5786 65.1382L99.9645 65.1825L100.359 65.0981L100.445 65.1846L100.517 65.1909L100.584 65.0665L100.639 64.7481L100.679 64.6806L100.795 64.6258L100.871 64.5415L100.905 64.3812L100.968 64.2863L100.956 64.1071L101.048 63.9996L101.124 63.9743L101.32 64.0164L101.974 64.4529L102.06 64.4803L102.107 64.4381L102.141 64.3412L102.079 64.0987L101.963 63.9679L101.898 63.9553L101.797 64.0038L101.759 63.9764L101.74 63.6791L101.774 63.542L101.877 63.4492L102.027 63.4534L102.311 63.5399L102.653 63.755L102.737 63.8688Z" fill="#E46EC3" stroke="white" stroke-width="0.5"/>
<path d="M145.243 90.882L145.325 91.0127L145.605 91.6769L146.244 92.9484L146.282 93.0792L146.797 94.1145L146.87 94.3295L146.902 94.2473L146.955 94.3949L147.233 94.882L147.406 95.2594L147.349 94.8525L147.368 94.6627H147.431L147.461 94.7787L147.872 94.7766L147.864 94.416L147.902 94.2979L148.06 94.2789L148.11 94.163L148.401 94.1545L148.412 94.1124L148.469 94.0976L148.625 94.1039L148.842 93.8572L149.002 93.8551L148.987 93.7307L149.042 93.4861L149.04 93.1656L149.025 93.0328L148.867 92.8662L148.886 92.3517L149.017 92.3222L149.631 92.3454L149.664 92.2442L149.666 91.9595L149.73 91.7824L149.831 91.6854L150.295 91.8224L150.44 91.8815L150.56 91.9764L150.782 92.0227L150.757 92.0987L150.805 92.1598L151.174 92.2969L151.385 92.4571L151.486 92.3896L151.592 92.221L151.684 92.2547L151.767 92.3791L151.769 92.63L151.68 93.0391L151.488 93.3448L151.465 93.562L151.406 93.7159L151.425 93.9521L151.821 93.9648L152.494 93.7096L152.774 93.7138L152.791 93.8003L152.827 93.8045L152.842 93.8382L152.848 94.0069L152.914 94.0343L152.952 94.2115L152.863 94.3317L152.916 94.4371L153.009 94.4539L153.129 94.7681L153.135 94.8483L153.015 95.0971L153.013 95.2236L153.135 95.2531L153.706 95.2784L154.297 95.1645L154.324 95.1456L154.343 94.8904L154.366 94.8714L154.425 94.9031L154.419 95.0106L154.702 94.8461L155.214 94.9199L155.296 94.9558L155.629 95.2468L155.842 95.3121L156.07 95.2889L156.15 95.2447L156.275 95.0907L156.336 95.0739L156.526 95.0929L156.72 95.0591L156.89 95.1076H157.059L157.299 95.1983L157.432 95.2046L157.508 95.1814L157.924 94.9157L158.099 94.7365L158.139 94.6437L158.143 94.3295L158.206 94.0491L158.371 94.0027L158.733 94.1503L158.969 94.2072L159.191 94.222L159.298 94.1566L159.368 94.0386L159.665 93.7476L159.71 93.6337L159.682 93.4777L159.737 93.446L159.847 93.4608L159.893 93.5114L159.969 93.5325L160.026 93.6696L160.051 93.6927L160.087 93.6822L160.133 93.7602L160.319 93.6189L160.557 93.5958L160.92 93.6822L161.034 93.5936L160.952 93.7075L160.981 93.7792L161.281 93.9099L161.428 93.891L161.652 93.9437L161.888 94.0533L162.177 94.3042L162.482 94.338L162.598 94.3801L162.678 94.435L163.218 95.0465L163.284 95.4429L163.326 95.5188L163.592 95.8077L163.718 96.048H163.75L163.942 96.2252L164.152 96.5246L164.342 96.7059L164.401 96.8156L164.424 96.9041L164.313 97.096L164.306 97.2162L164.5 97.8214L164.494 97.9141L164.408 98.1039L164.41 98.1777L164.521 98.3865L164.774 98.6753L164.823 98.7049L165.127 98.6922L165.329 98.5172L165.401 98.5109L165.736 98.8166L165.871 98.8799L166.177 98.9431L166.286 99.0148L166.457 99.1877L166.537 99.2257L166.78 99.2489L166.841 99.3353L166.86 99.4893L167.157 99.4956L167.26 99.5272L167.53 99.7486L167.644 99.9299L167.678 100.086L167.629 100.145L167.535 100.082L167.49 100.132L167.503 100.225L167.446 100.364L167.461 100.607L167.522 100.729L167.604 100.788L167.967 100.898L168.022 101.039V101.18L168.342 101.764L168.378 101.889L168.391 102.043L168.334 102.285L168.353 102.365L168.408 102.462L168.58 102.538L168.677 102.696L168.871 102.677L168.985 102.753L169.03 102.84L169.169 102.796L169.259 102.861L169.34 102.796L169.392 102.688L169.55 102.621L169.795 102.61L170.052 102.699L170.204 102.876L170.299 102.903L170.622 102.817L170.754 102.85L170.921 102.958L171.3 102.92L171.349 102.93L171.397 102.994L171.343 103.226L171.364 103.278L171.547 103.348L171.769 103.179L171.885 103.148L172.062 103.156L172.287 103.498L172.323 103.504L172.467 103.377L172.422 103.175L172.593 102.954L172.58 102.777L172.606 102.739L173.101 102.561L173.375 102.389L173.62 102.049L173.848 101.895L173.932 101.76L174.025 101.739L174.12 101.651L174.181 101.541L174.118 101.433L174.141 101.349L174.917 101.351L174.927 101.408L174.771 101.731L174.775 101.834L174.834 101.933L174.714 102.036L174.489 102.163L174.366 102.125L174.172 102.372L174.166 102.547L174.225 102.747L174.318 102.842L174.533 102.806L174.91 102.983L174.921 103.013L174.841 103.093L174.999 103.224L174.934 103.437L174.957 103.578L175.347 103.799L175.379 104.059L175.324 104.134L175.319 104.198L175.44 104.341L175.484 104.493L175.583 104.539L175.724 104.529L175.874 104.786L176.496 104.841L176.819 105.037L176.871 105.117L177 105.661V105.764L176.935 105.754L176.823 105.667L176.629 105.674L176.504 105.549L176.273 105.446L175.594 105.76L175.406 105.764L175.254 105.672H175.197L175.088 105.785L175.022 106.072L174.712 106.268L174.617 106.386L174.588 106.443L174.577 106.62L174.632 106.916L174.946 107.314L174.948 107.451L174.735 107.612L174.706 107.662L174.685 107.791L174.778 107.968L174.752 108.153L174.499 108.44L174.434 108.624L174.377 108.668L174.223 108.71L174.172 108.896L174.094 108.988L174.037 109.214L173.846 109.254L173.403 109.513L173.224 109.419L173.129 109.461L172.93 109.473L172.758 109.699L172.507 109.876L172.304 109.874L171.691 109.792L171.49 109.906L171.286 109.853L171.117 109.923L170.974 109.937L170.529 110.302L170.411 110.528L170.392 110.762L170.172 111.318L170.035 111.584L170.018 111.793L170.042 112.033L169.962 112.238L169.945 112.379L169.78 112.704L169.755 112.91L169.964 114.064L170.08 114.924L170.008 115.455L170.158 115.852L170.396 116.191L170.432 116.326L170.364 116.632L170.415 116.813L170.39 117.195L170.364 117.271L170.312 117.311L169.985 117.343L169.898 117.438L169.839 117.766L169.719 118.026L169.706 118.224L169.363 118.19L169.105 118.26L168.987 118.216L168.859 118.3L168.732 118.207L168.452 118.258L168.317 118.538L167.91 118.819L167.826 118.979L167.712 119.034L167.549 119.036L167.44 119.091L167.385 119.346L167.201 119.449L167.012 119.445L166.746 119.614L166.712 119.609L166.662 119.538L166.324 119.569L166.293 119.536L166.307 119.502L166.463 119.417L166.541 119.232L166.664 119.127L166.605 119.072L166.596 118.975L166.491 118.928L166.455 118.776L166.331 118.601L166.255 118.551H166.164L166.04 118.601L165.755 118.597L165.523 118.711L165.337 118.654L165.268 118.542L165.205 118.517L164.973 118.595L164.823 118.555L164.327 118.58L164.19 118.61L163.975 118.715L163.686 118.791L163.604 118.787L163.353 118.606L163.077 118.601L162.841 118.492L162.47 118.401L162.227 118.399L161.732 118.23L161.628 118.169L161.483 118.005L161.23 117.79L161.03 117.847L160.793 117.537L160.357 117.511L160.07 117.239L159.667 117.229L159.573 117.248L159.484 117.309L159.332 118.243L159.256 118.422L159.096 118.504L159.014 118.949L158.908 119.316L158.569 120.073L158.497 120.331L158.394 121.018L158.223 121.632L157.633 122.846L157.521 123.141L157.394 123.614L157.329 124.6L157.2 124.896L156.979 125.288L156.831 125.745L156.526 126.426L156.448 126.654L156.378 127.015L156.389 127.143L155.965 127.295L155.815 127.164L155.764 126.831L155.891 125.946L155.227 125.222L154.906 124.01L153.548 122.418L153.694 122.226L153.515 122.262L153.458 122.199L153.664 122.045L153.74 121.838L153.643 121.842L153.51 122.087L153.367 121.979L153.224 121.973L153.087 121.944L153.24 121.703L153.12 121.701L152.937 121.96L152.804 121.807L152.684 121.505L152.454 121.655L152.26 121.661L152.03 121.311L150.757 121.279L149.565 120.613L148.163 119.997L148.18 119.576L147.305 119.213L145.354 119.894L144.068 118.091L142.244 118.296L142.044 117.781L141.527 117.735L141.323 117.494L140.834 117.176L140.142 116.594L139.482 117.435L138.959 116.885L138.358 117.56L137.3 117.324L137.188 117.53L136.779 117.714L136.296 117.478L136.041 117.636L135.843 118.182L135.233 117.954L134.835 117.659L134.622 117.296L134.255 117.106L134.577 116.984L134.752 116.558L134.731 116.096L135.119 116.035L135.493 116.2L135.448 115.888L135.233 114.96L135.14 114.918L135.056 114.675L135.303 114.129L135.505 113.267L135.708 113.275L135.746 112.769L136.026 112.767L135.781 112.415L136.545 112.137L136.254 111.905L135.84 111.936L135.313 111.455L135.421 111.139L135.781 111.124L135.87 110.907L135.676 110.848L135.035 110.865L134.978 110.595L134.624 110.431L134.472 110.119L134.797 110.02L134.75 109.699L134.963 109.503L135.172 109.486L135.486 109.594L136.241 108.818L136.237 108.556L136.41 107.881L136.241 107.38L134.563 107.656L134.274 107.08L134.369 106.675L134.333 106.433L134.674 106.256L134.759 106.376L135.151 106.209L134.754 105.796L134.423 105.604L134.413 105.208L133.797 104.7L133.451 104.586L133.462 104.375L133.133 103.997L133.194 103.637L134.162 103.171L135.229 102.779L135.594 102.205L135.678 101.874L135.571 101.585L135.665 101.201L135.541 101.016L135.655 100.529L136.028 100.518L136.209 100.392L136.789 100.126L137.112 99.6769L137.715 99.1751L137.808 98.8145L138.08 98.6543L138.322 99.0802L140.083 99.814L140.747 99.9784L141.312 99.7191L142.016 98.4392L142.297 98.1482L142.179 97.3132L141.791 97.2035L141.938 95.7676L141.091 95.2046L140.817 95.0633L140.484 94.8019L140.294 94.5151L139.982 94.4202L139.87 93.7665L139.379 93.056L139.729 92.7165L139.824 92.7924L140.266 92.5562L140.319 92.3201L140.57 92.2083L140.663 92.4213L141.181 92.2589L142.021 91.7254L142.234 91.7992L142.196 91.4872L142.259 91.2236L142.048 91.2594L142.029 90.8672L142.849 90.7471L142.963 90.8841L143.492 90.3654L143.383 90.0069L144.011 89.8467L144.121 89.2036L144.429 89.1677L145.243 90.882Z" fill="#E46EC3" stroke="white" stroke-width="0.5"/>
<path d="M95.0287 124.752L102.78 124.874L103.522 126.087L103.887 127.289L104.45 128.723L104.956 130.913L105.19 131.247L105.504 132.974L105.873 135.474L105.719 135.578L105.645 136.065L105.361 136.51L105.293 137.161L104.779 138.445L104.789 138.563L104.237 139.354L104.667 139.506L104.553 139.683L104.73 140.231L104.952 140.134L105.044 140.141L104.998 140.345L105.283 140.301L105.717 140.617L105.844 140.305L105.936 140.314L106.017 140.645L106.386 140.678L106.487 140.826L106.632 140.769L106.733 140.896L106.66 141.142L106.868 141.345L107.02 141.243L107.126 141.324L106.978 141.585L107.107 141.688L107.24 141.747L107.134 141.853L107.273 142.049L107.218 142.504L107.231 142.778L107.311 142.878L107.21 143.143L107.64 143.409L107.942 143.392L107.988 143.578L108.231 143.668L108.254 143.85L108.387 143.886L108.437 144.025L108.555 144.191L108.779 144.233L109.057 144.72L109.384 144.634L109.458 144.767L109.384 144.976L109.561 144.984L109.563 145.113L109.793 145.321L109.74 145.427L109.736 145.564L109.774 145.657L109.755 145.737L109.808 145.781L110.017 145.764L109.852 145.971L109.605 146.121L109.544 146.123L109.428 146.034L109.293 146.161L109.219 146.283L108.943 146.587L108.931 146.698L108.739 147.181L108.635 147.202L108.528 147.103L108.46 147.084L108.456 146.886L108.408 146.806L108.184 146.681L107.946 146.473L107.853 146.471L107.819 146.511L107.773 146.732L107.659 146.869L107.493 146.998L107.526 147.32L107.307 147.462L107.155 147.51L106.982 147.704L106.826 148.039L106.426 148.265L106.333 148.482H106.272L106.227 148.347L106.133 148.36L105.964 148.739L105.704 148.845L105.599 148.754L105.489 148.725L105.342 148.817L105.063 148.847L104.912 148.98L104.623 149.058L104.29 149.389L104.188 149.6L103.952 149.669L103.805 149.796L103.739 149.91L103.775 149.988L103.878 150.055L103.849 150.146L103.813 150.163L103.617 150.131L103.381 150.188L103.202 150.121L102.94 150.152L102.839 150.213L102.742 150.424L102.546 150.536L102.445 150.789L102.386 150.829L102.263 150.762L102.217 150.776L102.042 151.048L102.025 151.289L101.884 151.424L101.856 151.584H101.761L101.702 151.624L101.519 151.822L101.131 152.385L101.066 152.533L101.038 152.695L100.92 152.803L100.758 152.866L100.631 152.971L100.585 152.828L100.743 152.72L100.627 152.668L100.555 152.701L100.496 152.678L100.452 152.543L100.243 152.674L100.216 152.621L99.7793 152.594L99.7815 152.708L100.102 152.729L100.18 152.851L100.104 152.931L100.191 153.155L100.115 153.813L100.406 154.215L100.505 154.506L100.718 154.62L100.794 154.806L100.412 154.958L100.199 154.943L100.127 155.042L99.695 154.916L99.7435 154.814L99.5748 154.675L99.4082 154.719L99.0456 154.409L98.7103 154.291L98.3919 153.935L97.8816 153.633L97.6644 153.574L97.5379 153.397L97.6033 153.195L97.9639 153.182L97.9554 152.72L98.0862 152.59L97.9639 152.284L98.0883 152.153L98.3075 152.107L98.238 152.065L98.1853 152.088L98.063 151.974L97.7931 152.149L97.7193 152.044L97.5885 152.16L97.2954 151.885L97.1141 151.666L97.0361 151.645L96.9117 151.531L95.5474 151.489L95.326 151.544L95.248 151.533L95.1721 151.483L92.2875 151.268L91.9797 147.755L89.8437 147.495L89.8627 145.834L89.9449 145.737L89.9533 145.153L90.2401 145.277L90.2464 145.195L90.6028 145.281L92.258 143.565L92.8337 143.919L93.9871 142.755L95.0118 141.986L96.1062 141.581L97.4662 140.902L97.8669 140.645L97.8837 140.459L97.5927 140.537L97.4346 140.158L97.5063 139.858L97.268 139.869L97.3123 139.616L97.0888 139.742L97.1542 140.096L96.9791 140.204L96.8568 139.662L97.2722 139.542L97.3566 139.08L97.3228 138.892L97.7129 138.492L97.7108 137.602L98.1157 137.954L98.2907 137.87L98.3371 137.262L98.2169 136.95L98.1304 136.828L98.3413 136.605L98.5901 136.503L98.7483 136.63L99.0371 136.343L97.9111 135.54L97.4409 134.968L97.4304 134.776L96.9602 134.513L96.7114 134.593L96.2749 134.167L96.3234 133.813L96.4056 133.697L96.3803 129.669L95.7288 129.391L94.9507 128.746L95.21 127.789L95.2501 127.183L95.3766 126.751L95.6254 126.399L95.7435 126.138L95.6191 125.739L94.9718 125.239L95.0287 124.752Z" fill="#E46EC3" stroke="white" stroke-width="0.5"/>
<path d="M27.9905 89.2436L28.4691 89.2583L28.5345 89.2119L28.6947 89.3279L28.9246 89.2731L28.9541 89.3026L29.049 89.2815L29.0722 89.311L29.1565 89.3047L29.1607 89.2604L29.5339 89.1845L29.633 89.2668L29.6499 89.3595L29.9093 89.4228L29.9388 89.6822L29.9325 89.9267L29.8819 89.9963L29.5318 90.0153L29.4538 90.028L29.4327 90.0638L29.4496 90.1524L29.5403 90.2135L29.5719 90.2768L29.5698 90.4286L29.7258 90.494L30.0358 90.4813L30.1981 90.5446L30.5671 90.359L30.6705 90.2135L30.6684 90.0617L30.759 90.0301L30.8413 90.2072L30.9572 90.184L31.01 90.2051L31.0859 90.3337L30.972 90.5593L31.0121 90.6247L31.0985 90.6352L31.3536 90.5024L31.4717 90.3864L31.6763 90.3084L31.6952 90.2789L31.5434 89.9162L31.5371 89.834L31.6151 89.6484L31.9504 89.2267L32.3299 89.252L32.6462 89.4312L32.8044 89.3827L32.9752 89.4038L33.1122 89.3258L33.1923 89.2077L33.2451 88.9884L33.3821 88.961L33.6035 89.0011L33.7764 88.8767L33.768 88.7312L33.8755 88.6806L33.9831 88.7227L34.0168 88.7628L34.1011 89.3996L34.3415 89.718L34.4554 89.9879L34.5967 90.1207L34.6367 90.3717L34.8012 90.4834L34.8033 90.5488L34.7675 90.5762L34.7864 90.6626L34.8687 90.6943L34.875 90.6648L34.9994 90.5952L34.9931 90.709L35.1238 90.7196L35.0816 90.6247L35.1196 90.6036L35.1702 90.6563L35.2018 90.6479L35.2145 90.4876L35.2524 90.4813L35.2967 90.65L35.3705 90.6964L35.341 90.5657L35.5392 90.5045L35.6109 90.5277L35.5898 90.3843L35.6868 90.437V90.3274L35.7205 90.262L35.7501 90.3105L35.7416 90.3738L35.7838 90.3421L35.8154 90.397L35.8723 90.3674L35.8829 90.4412L35.9862 90.397L36.098 90.4518L36.2076 90.4096L36.2034 90.4497L36.0874 90.5193L36.1085 90.5931H36.1444L36.1971 90.5361L36.2498 90.5699L36.2793 90.4412L36.3447 90.4434L36.3362 90.5256L36.3911 90.572L36.4501 90.6922L36.4817 90.6669L36.4564 90.5846L36.5682 90.6289L36.5513 90.5277L36.6673 90.5825L36.8739 90.494L36.9477 90.4223L36.9941 90.4181L37.03 90.475L37.108 90.5045L37.2978 90.4855L37.2999 90.4223L37.2176 90.3316L37.2324 90.262L37.342 90.2915L37.4222 90.1924L37.4559 90.2156L37.4074 90.3168L37.4306 90.3464L37.5213 90.378L37.6562 90.3506L37.711 90.3759L37.7785 90.515L37.8312 90.5172L37.8776 90.4138L37.9809 90.3548L38.1117 90.3147L38.1749 90.3379L38.2529 90.456L38.3605 90.4792L38.4533 90.5678L38.4554 90.6605L38.6409 90.7512L38.662 90.825L38.8075 90.8862L38.9909 90.8967L39.0141 90.9937L39.1006 91.0928L39.2208 91.1561L39.244 91.2341L39.2102 91.2784L39.0922 91.2952L39.2039 91.4365L39.1765 91.5672L39.128 91.5946L39.1132 91.6959L39.1407 91.7844L39.3009 91.9341L39.3368 92.0374L39.322 92.1218L39.3958 92.2146L39.4844 92.1872L39.6636 92.2757L39.6931 92.3664L39.7543 92.3242L39.8365 92.3369L39.9356 92.301L40.0558 92.4339L40.1043 92.4444L40.2498 92.417L40.2919 92.3748L40.5745 92.5119L40.6251 92.5772L40.8528 92.6321L40.9308 92.708L40.9161 92.7754L40.9583 92.8113L41.2071 92.8914L41.2893 92.9715L41.3441 93.1128L41.283 93.271L41.2956 93.3469L41.3146 93.3532L41.3462 93.2731L41.38 93.2583L41.4959 93.4291L41.5023 93.4882L41.4306 93.5092L41.3947 93.5577L41.4622 93.6189L41.458 93.7117L41.5613 93.7517L41.5402 93.8614L41.6899 93.9794L41.8354 94.3021L41.9324 94.4349L42.0062 94.475L42.5292 94.5171L42.8138 94.6711L42.8265 94.7891L42.6304 95.1202L42.5671 95.3922L42.6156 95.6263L42.4596 95.9362L42.4469 96.1197L42.7948 96.6574L42.9214 96.6489L43.0289 96.5836L43.0921 96.6742L42.5755 97.2899L42.6451 97.4734L42.2087 97.9373L42.5165 98.3653L42.4406 98.8102L42.4554 99.3521L42.6493 99.4112L42.662 99.5735L42.9382 99.7043L42.9909 100.025L42.8075 100.396L42.8223 100.584L42.4279 101.277L42.6683 101.57H42.215L42.1285 101.796L41.8439 102.154L41.9388 102.329L41.536 102.568L41.186 102.504L40.6799 102.515L40.6061 102.821L40.2055 102.819L39.8892 103.103L39.7226 103.529L39.4675 103.403L39.6109 103.732L39.341 104.653L39.3789 105.237L39.244 105.442L38.4511 106.114L38.5587 106.365L37.924 106.566L36.5007 106.563L36.2477 106.441L36.0052 107.011L35.6404 106.852L35.7037 108.358L35.2103 108.379L34.9235 109.585L35.0163 109.889L34.7274 110.064L34.2867 110.074L33.3863 109.564L33.2071 109.587L33.0616 109.844L31.748 109.545L31.7796 109.039L31.9209 108.94L31.8112 108.716L30.078 108.417L29.5909 108.64L28.7432 108.699L28.5134 109.414L28.1359 109.646L27.9673 109.562L27.5856 109.927L27.3284 109.933L25.0764 111.445L24.2456 112.297L23.5561 112.28L23.3326 112.463L22.0569 112.394L22.0885 113.026L20.0833 112.231L18.9467 111.913L15.3326 111.51L13.2472 111.183L12.7665 111.209L12.1465 111.002L11.7796 110.568L11.7986 110.498L11.7712 110.477L11.573 110.481L11.2841 110.416L10.7612 110.165L10.1223 109.922L10 109.83L10.447 108.575L10.7254 107.924L10.9299 107.316L11.1724 106.768L11.8239 106.363L12.0938 106.009L12.2372 105.642L12.2941 105.357L12.2625 105.218L12.1676 105.083L11.5245 104.508L11.1892 104.309L11.1787 104.227L11.2694 103.685L11.3411 102.903L11.5034 102.58L11.5646 102.131L11.5625 101.712L11.6405 101.121L11.6995 100.984L11.7438 100.936L11.9694 100.931L12.524 100.718L12.7412 100.573L12.9963 100.318L13.1671 100.056L13.4412 99.5061L13.4665 99.4344L13.4138 99.2636L13.146 98.8376L13.4159 98.5614L13.399 98.4855L13.3168 98.4497L13.3147 98.1228L13.3864 97.99L13.7027 97.9668L13.747 97.9394L13.7512 97.6969L13.8292 97.6484L13.8946 97.4523L14.1623 97.195L14.3353 97.1529L14.6305 97.3089L14.7865 97.5092L15.1239 97.6885L15.088 97.7601L15.223 97.9394L15.263 97.9731L15.4191 97.9942L15.4338 98.0996L15.5582 98.2767L15.7754 98.4813L15.9483 98.7132L16.001 98.8861L16.1107 98.9768L16.1297 99.156L16.2773 99.2825L16.3426 99.4027L16.5176 99.4576L16.564 99.5229L16.699 100.141L16.777 100.219L16.7896 100.324L16.836 100.402L16.9457 100.482L17.0574 100.678L17.0891 100.826L17.0617 100.908L17.1102 100.944L17.2852 100.978L17.3737 100.921L17.4454 100.938L17.5002 101.045L17.5614 101.071L17.593 101.189L17.7132 101.134L17.7807 101.201L17.7849 101.275L17.9072 101.326L17.9409 101.296L17.943 101.13L19.1766 100.569L19.6995 100.056L19.7606 99.9552L19.6679 99.6874L19.6552 99.5588L19.398 99.5082L19.2862 99.4554L19.2588 99.4006L19.2693 99.2868L19.3157 99.2277L19.3474 99.0928L19.3579 98.9578L19.2989 98.7955L19.1028 98.475L19.0353 98.2578L18.9741 97.7053L18.7717 96.6426L18.8308 96.4465L18.7696 96.282L18.5039 96.1344L18.4575 96.0459L18.4533 95.9594L18.5356 95.8603L18.6241 95.835L18.7591 95.8666L19.0353 96.1218L19.3516 96.1471L19.4907 96.2652L19.5435 96.2694L19.7206 96.0606L20.0095 95.894L20.1908 95.6263L20.642 95.0907L20.8487 94.9747L21.1966 94.8967L21.38 94.7385L21.6289 94.7175L21.943 94.6057L21.9852 94.4813L21.9472 94.3611L21.7743 93.9605L21.7048 93.8466L21.5888 93.7559L21.5846 93.7032L21.8102 93.3258L21.7807 93.0601L21.8334 93.0074L21.9599 92.9758L21.981 92.8471L22.1391 92.883L22.3226 92.9863L22.409 92.9821L22.6916 92.8809L23.1049 92.9568L23.2714 92.9441L23.6889 92.5709L23.8112 92.4107L24.0832 92.1661L24.9899 91.8245L25.2535 91.776L25.8566 91.4745L25.8755 91.4491L25.7996 91.3943L25.7174 91.1898L25.8755 91.0274L25.8713 90.9621L25.7828 90.8672L26.2361 90.8271L26.2488 90.5952H26.4449L26.4554 90.4982L26.3584 90.2768L26.3985 89.9499L26.4554 89.7644L26.5166 89.7496L26.5566 89.7918L26.5925 89.7623L26.6747 89.4945L26.9024 89.4966L26.9952 89.5451L27.2841 89.5873L27.2883 89.7117L27.088 89.9078L27.0753 89.9605L27.4401 89.9183L27.4739 89.8508L27.5308 89.8255L27.5961 89.3701L27.4464 89.2878L27.3705 89.1993L27.3431 88.9463L27.3916 88.689L27.5076 88.6785L27.8808 88.8556L27.9905 89.2436Z" fill="#E46EC3" stroke="white" stroke-width="0.5"/>
<path d="M123.292 124.763L122.963 125.482L122.573 126.139L122.75 128.29L122.973 128.879L121.735 128.788L121.809 129.865L122.958 129.895L122.992 130.599L123.152 130.791L123.233 131.042L124.548 131.963L124.941 132.64L124.753 133.332L124.886 133.541L125.668 134.289L126.583 134.388L126.653 134.397L127.045 134.757L127.3 134.793L127.532 135.107L127.958 135.398L127.977 136.103L127.884 136.347L127.703 136.556L127.798 136.963L127.701 137.226L127.545 137.3L126.648 138.152L126.651 138.515L127.342 138.757L127.481 138.662L127.713 138.692L127.652 138.888L128.266 138.812L128.413 139.061L127.869 139.721L127.823 140.197L127.979 140.29L127.922 140.533L128.08 140.602L128.177 141.003L128.574 141.085L129.345 141.45L129.236 141.673L129 141.745L129.046 141.836L129.442 141.792L129.67 141.935L129.883 141.842L129.925 142.04L129.957 142.036L129.856 142.213L129.782 142.567L129.731 142.656L129.558 142.787L129.139 142.654L128.635 142.631L128.475 142.662L128.378 142.648L127.945 142.458L127.751 142.485L127.578 142.561L127.454 142.54L127.418 142.502L127.271 142.494L127.155 142.333L126.971 142.255L126.95 142.201L126.767 142.11L126.648 141.994L126.48 141.973L126.358 141.88L126.322 141.901L126.305 141.8L126.267 141.754L125.963 141.625L125.883 141.688H125.567L125.428 141.501L125.377 141.323L125.261 141.22L125.097 141.138L125.044 140.978L124.955 140.935L124.787 140.784L124.721 140.8L124.639 140.748L124.601 140.771L124.523 140.63L124.325 140.611L124.266 140.539L124.198 140.577L124.116 140.533L123.937 140.512L123.903 140.469L123.798 140.45L123.741 140.328L123.332 140.356L123.23 140.33L123.174 140.364L123.262 140.547L123.247 140.592L123.184 140.625L123.115 140.628L122.944 140.722L122.75 140.775L122.549 140.714L122.467 140.619L122.349 140.585L122.149 140.912L122.09 141.115L121.799 141.032L121.63 141.051L121.057 141.353L120.782 141.467L120.73 141.53L120.713 141.566L120.753 141.64L120.742 141.707L120.66 141.884L120.55 142.026L120.491 142.175L120.506 142.865L120.335 143.19L120.179 143.734L120.171 144.043L120.24 144.377L120.548 144.773L120.536 144.895L120.456 144.935L120.39 144.944L120.293 144.876L119.861 144.836L119.713 144.714L119.715 144.453L119.665 144.4L119.429 144.387L118.883 144.237L118.589 144.267L118.473 144.237L118.345 144.282L118.248 144.246L118.081 144.24L117.953 144.143L117.788 144.115L117.685 144.058L117.4 143.664L117.084 143.565L116.837 143.428L116.759 143.415L116.603 143.453L116.397 143.409L115.509 142.998L115.304 142.991L115.136 143.046L115.034 143.023L114.948 143.105L114.847 143.124L114.718 143.08L114.587 142.943L114.292 142.858L114.166 142.778L114.105 142.692L113.797 142.589L113.611 142.597L113.375 142.728L113.027 142.827L112.831 142.966L112.599 142.911L112.542 142.831L112.382 142.719L112.308 142.717L112.186 142.774L111.861 142.787L111.762 142.899L111.397 142.88L111.365 142.922L111.37 143.019L111.195 143.365L110.977 143.481L110.988 143.691L110.94 143.828L110.431 143.887L110.303 144.001L110.292 144.052L110.368 144.168L110.638 144.366L110.642 144.472L110.577 144.611L110.505 144.634L110.412 144.606L110.242 144.461L110.174 144.518L110.088 144.655L110.062 144.838L109.997 145.02L109.915 145.146L109.854 145.18L109.792 145.321L109.563 145.113L109.561 144.984L109.383 144.975L109.457 144.767L109.383 144.634L109.057 144.72L108.778 144.233L108.555 144.191L108.437 144.025L108.386 143.885L108.253 143.85L108.23 143.668L107.988 143.578L107.941 143.392L107.64 143.409L107.209 143.143L107.311 142.877L107.231 142.778L107.218 142.504L107.273 142.049L107.134 141.853L107.239 141.747L107.106 141.688L106.977 141.585L107.125 141.323L107.02 141.243L106.868 141.345L106.659 141.142L106.733 140.895L106.632 140.769L106.486 140.826L106.385 140.678L106.016 140.644L105.936 140.313L105.843 140.305L105.717 140.617L105.282 140.301L104.998 140.345L105.044 140.141L104.951 140.134L104.73 140.231L104.553 139.683L104.666 139.506L104.236 139.354L104.789 138.563L104.778 138.445L105.293 137.161L105.36 136.51L105.645 136.065L105.719 135.578L105.873 135.474L105.504 132.973L105.189 131.246L104.955 130.913L104.449 128.723L103.886 127.289L103.522 126.087L102.779 124.874L108.584 124.862L111.869 124.777L112.595 124.83L116.519 124.685L123.292 124.763Z" fill="#E46EC3" stroke="white" stroke-width="0.5"/>
<path d="M68.5139 120.088L68.4464 120.381V120.718L68.4233 121.079L68.8281 121.575L69.3911 121.551L70.0216 121.663L70.2472 121.482L70.4053 121.505L70.418 121.859L70.3505 122.557L70.0933 122.996L69.6926 123.234L69.311 123.377L69.0158 123.645L68.5856 123.721L68.204 124.075L68.1365 124.333L67.9931 124.533L67.6684 124.6L67.4111 124.676L67.3626 124.881L67.2762 124.995L67.2192 125.319L67.1623 125.596L66.9515 125.739L66.9704 125.92L66.981 126.15L67.1813 126.369L67.2677 126.705L67.3352 126.981L67.3162 127.325L67.1623 127.679L67.1138 127.89L67.3057 128.033L67.4006 128.377L67.4111 129.151L67.3057 129.389V129.638L67.4111 129.992L67.5925 130.146L67.6789 130.414L67.9277 130.433L68.0901 130.633L68.263 131.196L68.3579 131.635L68.301 132.046L68.1576 132.457L68.0332 132.524L67.9383 132.619L67.8286 132.706L66.3189 131.616H66.3147V131.614L62.8018 129.077L62.7975 129.079L62.7912 128.917L62.7237 128.735L62.5993 128.611L62.4454 128.516L62.3969 128.354L62.359 128.181L62.2346 127.924L62.34 127.791L62.359 127.58L62.321 127.255L62.3695 127.063L62.2831 126.901H62.0912L61.9583 126.852L61.8824 126.766L61.739 126.69L61.6631 126.785L61.5957 126.939L61.4523 127.044L61.3363 127.11L61.1655 127.103L61.0516 127.046H60.9188L60.8703 127.141V127.342L60.7838 127.398L60.7628 127.607L59.7485 126.876L59.3711 127.021L59.3816 126.844L59.5166 126.618L59.6979 126.528L59.7211 126.123L59.8793 125.672L60.0817 125.244L60.2609 124.995L60.4633 124.86L60.8914 124.769L61.2351 124.586L61.2414 124.584V124.602L61.3173 124.615L61.4312 124.71L61.68 124.748L61.9372 124.729L62.0237 124.653L62.1565 124.51L62.3379 124.404L62.5382 124.51L62.7111 124.634L62.6352 124.807L62.4623 124.999L62.3379 125.18L62.224 125.362L62.1755 125.591L62.165 125.792L62.1945 125.946H62.4138L62.6436 125.859L62.8735 125.84L63.0548 125.908L63.2066 125.783L63.2931 125.553L63.3795 125.277L63.5229 125.353L63.6557 125.286L63.7696 125.094L63.8181 124.807L63.7801 124.415L63.7317 124.252L63.7232 124.08L63.7991 123.803L63.6937 123.565L63.388 123.059L63.2446 122.848L63.234 122.618L63.3669 122.589L63.7675 122.578L64.0543 122.589L64.3031 122.637L64.4654 122.838L64.4549 123.154L64.4844 123.411L64.5709 123.555L64.5413 123.793L64.4928 123.955L64.6257 124.031L64.9125 124.012L65.0748 123.85L65.2857 123.668L65.467 123.563L65.7917 123.601L66.2219 123.687L66.4412 123.736L66.6605 123.86L66.8987 124.118L67.156 124.204L67.7 124.099H67.9298L68.1302 123.966L68.3684 123.822L68.4549 123.517L68.4633 123.097L68.3389 122.859L68.1386 122.553L68.1091 122.372L68.0985 122.18L67.9172 122.218L67.7633 122.41L67.447 122.629L67.1982 122.542L67.0168 122.399L66.903 122.18H66.6647L66.3969 122.218L66.1586 122.285L65.9668 122.38H65.7369L65.4501 122.256L65.3553 122.112L65.2119 121.796L65.0896 121.644L65.1149 121.222L65.2836 120.997L66.2135 120.377H66.496L66.6942 120.575L66.806 120.801L66.7786 121.364L66.8355 121.562L66.9873 121.454V120.801L67.3036 120.891L67.5735 121.026L67.7991 120.915L67.9573 120.733L68.1154 120.643V120.381L67.8455 120.179L67.6431 120.155L67.4175 120.044L67.4407 119.841L67.8012 119.818H68.0036L68.2061 119.997L68.5139 120.088ZM65.2393 126.812L65.4417 126.682L65.6441 126.595L65.8191 126.494H66.9093L66.8502 126.393L66.4285 126.378L66.0363 126.306L65.9351 126.089L65.4122 126.03L65.0643 126.06L64.7311 126.074L64.3832 126.161L64.3684 126.466L64.3537 126.903H64.7902L65.2393 126.812Z" fill="#E46EC3" stroke="white" stroke-width="0.5"/>
</svg>
