<svg width="20" height="11" viewBox="0 0 20 11" fill="none" xmlns="http://www.w3.org/2000/svg">
<path d="M18.6118 0.246619L9.99912 9.0135L1.38645 0.246619C1.23257 0.0896673 1.026 0.00179931 0.810891 0.00179931C0.595786 0.00179931 0.389215 0.0896673 0.235334 0.246619C0.160826 0.322851 0.101633 0.413841 0.0612238 0.514261C0.0208142 0.614681 0 0.722512 0 0.831437C0 0.940363 0.0208142 1.04819 0.0612238 1.14861C0.101633 1.24903 0.160826 1.34002 0.235334 1.41626L9.39771 10.7446C9.55862 10.9083 9.77442 11 9.99912 11C10.2238 11 10.4396 10.9083 10.6005 10.7446L19.7629 1.41806C19.8379 1.34177 19.8976 1.25055 19.9383 1.1498C19.979 1.04905 20 0.940796 20 0.831437C20 0.722078 19.979 0.613827 19.9383 0.513074C19.8976 0.412321 19.8379 0.321108 19.7629 0.244819C19.609 0.0878672 19.4025 0 19.1873 0C18.9722 0 18.7657 0.0878672 18.6118 0.244819V0.246619Z" fill="#2E3540"/>
</svg>
