<svg width="314" height="271" viewBox="0 0 314 271" fill="none" xmlns="http://www.w3.org/2000/svg">
<path opacity="0.25" d="M271.046 271C268.867 271 266.629 270.709 264.43 270.128C250.946 266.485 242.968 252.667 246.627 239.237L251.199 222.435L139.608 264.101C130.23 267.609 119.683 265.264 112.679 258.151C105.674 251.039 103.533 240.477 107.23 231.214L144.259 138.251L62.7107 159.142C52.612 161.719 41.9491 157.882 35.8588 149.452C29.7685 141.022 29.5155 129.724 35.1972 121.023L50.8024 97.0889L39.1082 99.6664C32.3369 101.159 25.2348 99.8214 19.4947 95.9455C13.7352 92.0696 9.84359 86.0233 8.69558 79.2017L0.348161 29.3384C-1.94787 15.6178 7.35299 2.63353 21.1486 0.346757C34.9248 -1.94002 47.9616 7.32335 50.2576 21.0634L54.227 44.7257L100.264 34.5902C110.285 32.381 120.656 36.4313 126.513 44.8419C132.37 53.2526 132.526 64.3377 126.922 72.9228L113.029 94.2208L179.808 77.1087C189.031 74.7444 198.799 77.7289 205.084 84.8411C211.369 91.9534 213.14 101.973 209.618 110.79L175.294 196.951L279.627 157.979C288.519 154.665 298.521 156.564 305.526 162.94C312.55 169.297 315.391 179.025 312.92 188.153L295.466 252.357C292.411 263.578 282.215 270.981 271.066 270.981L271.046 271Z" fill="white"/>
</svg>
