<svg width="568" height="398" viewBox="0 0 568 398" fill="none" xmlns="http://www.w3.org/2000/svg">
<path opacity="0.25" d="M82.1501 469C86.3379 469 90.6379 468.442 94.863 467.327C120.775 460.336 136.105 433.822 129.076 408.053L120.289 375.813L334.725 455.762C352.747 462.493 373.013 457.993 386.474 444.346C399.935 430.699 404.048 410.433 396.943 392.658L325.789 214.278L482.493 254.365C501.899 259.31 522.389 251.947 534.093 235.772C545.796 219.596 546.282 197.917 535.364 181.22L505.377 135.296L527.849 140.242C540.861 143.105 554.508 140.539 565.538 133.102C576.606 125.665 584.084 114.063 586.29 100.974L602.331 5.29508C606.743 -21.0324 588.87 -45.9467 562.36 -50.3346C535.888 -54.7225 510.836 -36.9478 506.424 -10.5832L498.796 34.8205L410.329 15.3724C391.073 11.1332 371.144 18.905 359.889 35.0436C348.634 51.1822 348.335 72.4523 359.104 88.9256L385.801 129.793L257.476 96.9577C239.752 92.421 220.982 98.1476 208.905 111.795C196.828 125.442 193.425 144.667 200.193 161.586L266.15 326.914L65.6608 252.133C48.5732 245.775 29.3543 249.419 15.8936 261.653C2.39551 273.85 -3.06348 292.517 1.68512 310.031L35.2247 433.227C41.095 454.758 60.6879 468.963 82.1128 468.963L82.1501 469Z" fill="white"/>
</svg>
