<svg width="213" height="205" viewBox="0 0 213 205" fill="none" xmlns="http://www.w3.org/2000/svg">
<path d="M23.0879 244C17.5701 244 12.0349 242.011 7.66594 237.963C-1.47239 229.503 -1.99457 215.266 6.53454 206.184C34.8373 175.996 72.0171 158.351 109.162 148.266C66.012 130.551 36.6649 112.525 34.3673 111.089C25.4204 105.519 21.5214 94.5512 24.9852 84.6387C28.4491 74.7262 38.3707 68.5157 48.8494 69.6748C111.669 76.5945 168.797 68.2217 218.596 44.7984C255.811 27.2915 274.853 7.43186 275.045 7.22427C283.522 -1.90977 297.795 -2.44604 306.985 5.97873C316.176 14.4035 316.716 28.6581 308.256 37.7922C305.401 40.8714 250.937 98.1149 143.697 113.321C170.398 123.233 201.207 132.177 232.817 136.243C248.726 137.004 259.048 138.37 260.667 138.595C272.608 140.239 281.154 150.912 280.093 162.832C279.031 174.768 268.761 183.746 256.716 183.331C247.804 183.003 238.909 182.276 230.102 181.221C185.559 179.231 90.8509 182.207 39.6588 236.838C35.2028 241.595 29.1628 244 23.0879 244Z" fill="white"/>
</svg>
