<svg width="451" height="270" viewBox="0 0 451 270" fill="none" xmlns="http://www.w3.org/2000/svg">
<path d="M-29.6476 405C-38.7562 405 -47.8934 401.698 -55.1055 394.979C-70.1906 380.938 -71.0526 357.306 -56.9732 342.231C-10.2524 292.125 51.1223 262.837 112.44 246.097C41.2093 216.693 -7.23543 186.773 -11.0283 184.39C-25.7973 175.144 -32.2337 156.94 -26.5157 140.486C-20.7977 124.033 -4.41952 113.725 12.8781 115.649C116.577 127.134 210.881 113.237 293.088 74.358C354.52 45.2994 385.955 12.3357 386.271 11.9911C400.264 -3.16991 423.825 -4.06002 438.997 9.92371C454.168 23.9074 455.059 47.5678 441.094 62.7288C436.382 67.8399 346.475 162.855 169.447 188.094C213.524 204.547 264.383 219.393 316.563 226.14C342.825 227.404 359.864 229.672 362.537 230.045C382.248 232.773 396.356 250.49 394.603 270.274C392.85 290.086 375.898 304.989 356.014 304.3C341.302 303.754 326.62 302.548 312.081 300.797C238.551 297.495 82.2121 302.434 -2.29324 393.112C-9.64902 401.009 -19.6196 405 -29.6476 405Z" fill="#00C0F0"/>
</svg>
